<svg width="40" height="40" viewBox="0 0 40 40" xmlns="http://www.w3.org/2000/svg"><title>Error</title><g fill="none" fill-rule="evenodd"><path d="M0 0h40v40H0z"/><path d="M19.99 22.79a73.52 73.52 0 0 1-2.778 2.545 153.107 153.107 0 0 1-4.038 3.38L11.29 26.83a112.915 112.915 0 0 1 3.37-4.073 74.53 74.53 0 0 1 2.53-2.766 74.314 74.314 0 0 1-2.543-2.78 154.642 154.642 0 0 1-3.38-4.035l1.885-1.885c1.392 1.098 2.75 2.22 4.073 3.37a77.01 77.01 0 0 1 2.766 2.53 74.302 74.302 0 0 1 2.78-2.544c1.316-1.14 2.66-2.266 4.04-3.38l1.884 1.886c-1.1 1.39-2.223 2.75-3.37 4.073a76.29 76.29 0 0 1-2.532 2.765c.926.964 1.774 1.89 2.545 2.78 1.14 1.315 2.266 2.66 3.38 4.037l-1.885 1.886a116.17 116.17 0 0 1-4.073-3.37 78.083 78.083 0 0 1-2.767-2.532zm0-2.786l-.012-.013.013-.012.015.014-.013.014z" fill="#FF4A25"/></g></svg>