<svg xmlns="http://www.w3.org/2000/svg" width="14" height="14" viewBox="0 0 14 14"><path fill="#010101" d="M12.667 8.344c-.72-1.272-.287-2.903.97-3.644l-1.353-2.383c-.385.23-.834.363-1.314.363-1.445 0-2.617-1.2-2.617-2.68H5.65c.002.457-.11.92-.35 1.343-.722 1.273-2.327 1.705-3.586.968L.362 4.694c.39.225.727.555.965.978.72 1.272.29 2.898-.963 3.64l1.352 2.384c.385-.228.833-.358 1.31-.358 1.44 0 2.61 1.192 2.616 2.665h2.705c0-.45.11-.908.35-1.328.72-1.27 2.32-1.704 3.578-.97l1.354-2.384c-.39-.226-.725-.554-.963-.974zM7 9.834C5.46 9.835 4.213 8.567 4.213 7 4.213 5.435 5.46 4.166 7 4.166c1.54 0 2.784 1.27 2.784 2.834C9.784 8.566 8.54 9.835 7 9.835z"/></svg>