<?xml version="1.0" encoding="UTF-8"?>
<svg width="512px" height="512px" viewBox="0 0 512 512" version="1.1" xmlns="http://www.w3.org/2000/svg" xmlns:xlink="http://www.w3.org/1999/xlink">
    <!-- Generator: Sketch 44 (41411) - http://www.bohemiancoding.com/sketch -->
    <title>bar-chart</title>
    <desc>Created with Sketch.</desc>
    <defs></defs>
    <g id="Page-1" stroke="none" stroke-width="1" fill="none" fill-rule="evenodd">
        <g id="bar-chart" fill-rule="nonzero" fill="#010202">
            <path d="M0.576841527,319.281622 C-0.536144735,316.528149 0.576841527,313.757358 3.15767922,312.545138 L32.6760104,298.691187 C23.4495157,243.639049 31.5630242,186.231739 55.5325543,136.340196 C116.020938,12.3992863 258.386398,-35.9163684 374.20149,28.6257265 L342.860442,59.5200377 C318.519915,48.8178604 292.324413,42.8952963 266.145041,42.8952963 C156.959476,42.8952963 68.452873,137.5351 68.452873,254.739527 C68.452873,263.450198 69.1948638,272.16087 69.9207244,280.871542 L97.2130831,268.212495 C98.3099392,267.415892 100.535911,266.636608 102.003763,267.017591 C104.584601,268.212495 104.955596,270.983284 104.584601,274.152376 L92.7933986,383.46005 C92.7933986,384.637636 92.4224032,385.434238 91.6804123,386.213523 C90.2125609,388.60333 87.2607277,388.984314 85.0347552,387.408426 L2.41568838,321.671429 C1.68982778,321.25581 0.947836938,320.476525 0.576841527,319.281622 Z" id="Shape"></path>
            <path d="M509.195432,126.434622 C511.421404,128.010509 512.518259,131.1796 511.034278,133.569407 C510.679412,134.366009 510.292287,135.145294 509.550297,135.543595 L482.628933,152.168336 C536.842655,279.676638 484.46778,429.749565 366.07185,487.953477 C280.500951,530.311932 179.816019,513.687191 110.101142,446.391624 L139.232347,417.471501 C222.593404,492.317472 346.893001,480.83601 416.962744,391.339485 C464.546939,330.745767 476.354272,246.409838 447.948926,173.555373 L420.285573,190.578415 C418.07573,191.773319 415.123897,190.976716 413.656046,188.604228 C413.28505,187.824943 412.914055,186.63004 412.914055,185.833437 L412.914055,75.3654942 C412.914055,72.594704 415.123897,70.2222149 417.704735,70.2222149 C418.801591,70.2222149 419.543581,70.620516 420.285573,71.0188171 L509.195432,126.434622 Z" id="Shape"></path>
            <path d="M383.056988,189.400829 L383.056988,299.868773 C383.056988,307.401858 377.524317,312.943439 370.894791,312.943439 L340.650599,312.943439 C334.004942,312.943439 328.472271,307.401858 328.472271,299.868773 L328.472271,189.400829 C328.472271,182.266044 334.004942,176.326163 340.650599,176.326163 L370.894791,176.326163 C377.524317,176.326163 383.056988,182.266044 383.056988,189.400829 Z" id="Shape"></path>
            <path d="M292.324413,169.987981 L292.324413,299.868773 C292.324413,307.401858 286.791742,312.943439 280.162216,312.943439 L249.918024,312.943439 C243.272367,312.943439 237.755826,307.401858 237.755826,299.868773 L237.755826,169.987981 C237.755826,162.853196 243.288497,156.930632 249.918024,156.930632 L280.162216,156.930632 C286.791742,156.930632 292.324413,162.870513 292.324413,169.987981 Z" id="Shape"></path>
            <path d="M201.591838,248.003043 L201.591838,299.868773 C201.591838,307.401858 196.059167,312.943439 189.41351,312.943439 L159.169318,312.943439 C152.152665,312.943439 147.007121,307.401858 147.007121,299.868773 L147.007121,248.003043 C147.007121,240.868258 152.168796,234.928376 159.169318,234.928376 L189.41351,234.928376 C196.059167,234.928376 201.591838,240.885576 201.591838,248.003043 Z" id="Shape"></path>
        </g>
    </g>
</svg>