<?xml version="1.0" encoding="UTF-8" standalone="no"?>
<svg width="512px" height="512px" viewBox="0 0 512 512" version="1.1" xmlns="http://www.w3.org/2000/svg" xmlns:xlink="http://www.w3.org/1999/xlink">
    <!-- Generator: Sketch 3.8.3 (29802) - http://www.bohemiancoding.com/sketch -->
    <title>clear</title>
    <desc>Created with Sketch.</desc>
    <defs></defs>
    <g id="Page-1" stroke="none" stroke-width="1" fill="none" fill-rule="evenodd">
        <g id="clear" fill="#000000">
            <path d="M256,512 C397.384896,512 512,397.384896 512,256 C512,114.615104 397.384896,0 256,0 C114.615104,0 0,114.615104 0,256 C0,397.384896 114.615104,512 256,512 Z M256.004028,297.085322 C241.867387,310.65889 228.272523,323.101732 215.219246,334.414025 C195.926105,351.13394 176.181125,367.662431 155.983714,384 L128.321652,356.337939 C144.444786,335.926092 160.931303,316.008656 177.781697,296.585034 C189.128195,283.505809 201.505798,269.978868 214.91468,256.004028 C201.341111,241.867387 188.898268,228.272523 177.585975,215.219246 C160.866063,195.926105 144.33757,176.181125 128,155.983714 L155.662062,128.321652 C176.073909,144.444786 195.991345,160.931303 215.414968,177.781697 C228.494192,189.128195 242.021132,201.505798 255.995975,214.91468 C270.132615,201.341111 283.727477,188.898268 296.780756,177.585975 C316.073896,160.866063 335.818876,144.33757 356.016288,128 L383.678349,155.662062 C367.555215,176.073909 351.068699,195.991345 334.218303,215.414968 C322.871807,228.494192 310.494203,242.021132 297.085322,255.995975 C310.65889,270.132615 323.101732,283.727477 334.414025,296.780756 C351.13394,316.073896 367.662431,335.818876 384,356.016288 L356.337939,383.678349 C335.926092,367.555215 316.008656,351.068699 296.585034,334.218303 C283.505809,322.871807 269.978868,310.494203 256.004028,297.085322 Z"></path>
        </g>
    </g>
</svg>