<?xml version="1.0" encoding="UTF-8" standalone="no"?>
<svg width="512px" height="512px" viewBox="0 0 512 512" version="1.1" xmlns="http://www.w3.org/2000/svg" xmlns:xlink="http://www.w3.org/1999/xlink" xmlns:sketch="http://www.bohemiancoding.com/sketch/ns">
    <!-- Generator: Sketch 3.4.2 (15857) - http://www.bohemiancoding.com/sketch -->
    <title>close</title>
    <desc>Created with Sketch.</desc>
    <defs></defs>
    <g id="Page-1" stroke="none" stroke-width="1" fill="none" fill-rule="evenodd" sketch:type="MSPage">
        <g id="close" sketch:type="MSArtboardGroup" fill="#000000">
            <path d="M256.008052,338.17064 C227.734772,365.317779 200.545045,390.203464 174.43849,412.82805 C135.852209,446.267875 96.36225,479.324861 55.9674271,512 L0.643303759,456.675877 C32.8895717,415.852182 65.8626055,376.01731 99.5633946,337.170066 C122.25639,311.011617 147.011595,283.957737 173.82936,256.008052 C146.682221,227.734772 121.796536,200.545045 99.1719503,174.43849 C65.7321254,135.852209 32.6751392,96.36225 -1.73372428e-12,55.9674271 L55.3241233,0.643303759 C96.1478175,32.8895717 135.98269,65.8626055 174.829934,99.5633946 C200.988383,122.25639 228.042263,147.011595 255.991948,173.82936 C284.265228,146.682221 311.454955,121.796536 337.56151,99.1719503 C376.147791,65.7321254 415.63775,32.6751392 456.032573,0 L511.356696,55.3241233 C479.110428,96.1478175 446.137394,135.98269 412.436605,174.829934 C389.74361,200.988383 364.988405,228.042263 338.17064,255.991948 C365.317779,284.265228 390.203464,311.454955 412.82805,337.56151 C446.267875,376.147791 479.324861,415.63775 512,456.032573 L456.675877,511.356696 C415.852182,479.110428 376.01731,446.137394 337.170066,412.436605 C311.011617,389.74361 283.957737,364.988405 256.008052,338.17064 L256.008052,338.17064 Z M256.142221,256.675887 L255.608556,256.142221 L256.142221,255.608556 L256.675887,256.142221 L256.142221,256.675887 L256.142221,256.675887 Z" id="!" sketch:type="MSShapeGroup"></path>
        </g>
    </g>
</svg>