<?xml version="1.0" encoding="UTF-8" standalone="no"?>
<svg width="512px" height="512px" viewBox="0 0 512 512" version="1.1" xmlns="http://www.w3.org/2000/svg" xmlns:xlink="http://www.w3.org/1999/xlink" xmlns:sketch="http://www.bohemiancoding.com/sketch/ns">
    <!-- Generator: Sketch 3.4.2 (15857) - http://www.bohemiancoding.com/sketch -->
    <title>cog</title>
    <desc>Created with Sketch.</desc>
    <defs></defs>
    <g id="Page-1" stroke="none" stroke-width="1" fill="none" fill-rule="evenodd" sketch:type="MSPage">
        <g id="cog" sketch:type="MSArtboardGroup" fill="#000000">
            <path d="M256,352 L256,352 L256,352 L256,352 C309.019336,352 352,309.019336 352,256 C352,202.980664 309.019336,160 256,160 C202.980664,160 160,202.980664 160,256 C160,309.019336 202.980664,352 256,352 L256,352 Z M128,256 C128,185.307552 185.307552,128 256,128 C326.692448,128 384,185.307552 384,256 C384,326.692448 326.692448,384 256,384 C185.307552,384 128,326.692448 128,256 Z" id="Shape" sketch:type="MSShapeGroup"></path>
            <path d="M354.728769,96.8970954 L373.462704,51.6693758 L378.852322,84.8817014 C375.419948,80.9241411 368.520388,74.1487249 359.643345,67.4256136 C352.642907,62.1237664 345.676697,57.9309008 339.16085,55.2319485 C336.39972,54.0882512 333.366832,53.0677539 330.100594,52.1790826 C317.146928,48.654676 302.766472,47.6326885 291.211808,48.0817984 C290.020629,48.1368336 317.424896,28.4577557 317.424896,28.4577557 L298.692879,73.6808447 L289.908977,94.8870598 L267.006089,93.364497 C263.356851,93.121899 259.686987,93 256,93 C252.313013,93 248.643149,93.121899 244.993911,93.364497 L222.091023,94.8870598 L213.307121,73.6808447 L194.575104,28.4577557 L221.870801,48.1313805 C209.233528,47.6326885 194.853072,48.654676 181.899406,52.1790826 C178.633168,53.0677539 175.60028,54.0882512 172.83915,55.2319485 C166.323303,57.9309008 159.357093,62.1237664 152.356655,67.4256136 C143.479612,74.1487249 136.580052,80.9241411 133.147678,84.8817014 L138.537296,51.6693758 L157.271231,96.8970954 L166.060496,118.116257 L148.769806,133.233666 C143.250636,138.059126 138.059126,143.250636 133.233666,148.769806 L118.116257,166.060496 L96.8970954,157.271231 L51.6693758,138.537296 L84.8817014,133.147678 C80.9241411,136.580052 74.1487249,143.479612 67.4256136,152.356655 C62.1237664,159.357093 57.9309008,166.323303 55.2319485,172.83915 C54.0882512,175.60028 53.0677539,178.633168 52.1790826,181.899406 C48.654676,194.853072 47.6326885,209.233528 48.0817984,220.788192 C48.1368336,221.979371 28.4577557,194.575104 28.4577557,194.575104 L73.6808447,213.307121 L94.8870598,222.091023 L93.364497,244.993911 C93.121899,248.643149 93,252.313013 93,256 C93,259.686987 93.121899,263.356851 93.364497,267.006089 L94.8870598,289.908977 L73.6808447,298.692879 L28.4577557,317.424896 L48.1313805,290.129199 C47.6326885,302.766472 48.654676,317.146928 52.1790826,330.100594 C53.0677539,333.366832 54.0882512,336.39972 55.2319485,339.16085 C57.9309008,345.676697 62.1237664,352.642907 67.4256136,359.643345 C74.1487249,368.520388 80.9241411,375.419948 84.8817014,378.852322 L51.6693758,373.462704 L96.8970954,354.728769 L118.116257,345.939504 L133.233666,363.230194 C138.059126,368.749364 143.250636,373.940874 148.769806,378.766334 L166.060496,393.883743 L157.271231,415.102905 L138.537296,460.330624 L133.147678,427.118299 C136.580052,431.075859 143.479612,437.851275 152.356655,444.574386 C159.357093,449.876234 166.323303,454.069099 172.83915,456.768051 C175.60028,457.911749 178.633168,458.932246 181.899406,459.820917 C194.853072,463.345324 209.233528,464.367312 220.788192,463.918202 C221.979371,463.863166 194.575104,483.542244 194.575104,483.542244 L213.307121,438.319155 L222.091023,417.11294 L244.993911,418.635503 C248.643149,418.878101 252.313013,419 256,419 C259.686987,419 263.356851,418.878101 267.006089,418.635503 L289.908977,417.11294 L298.692879,438.319155 L317.424896,483.542244 L290.129199,463.868619 C302.766472,464.367312 317.146928,463.345324 330.100594,459.820917 C333.366832,458.932246 336.39972,457.911749 339.16085,456.768051 C345.676697,454.069099 352.642907,449.876234 359.643345,444.574386 C368.520388,437.851275 375.419948,431.075859 378.852322,427.118299 L373.462704,460.330624 L354.728769,415.102905 L345.939504,393.883743 L363.230194,378.766334 C368.749364,373.940874 373.940874,368.749364 378.766334,363.230194 L393.883743,345.939504 L415.102905,354.728769 L460.330624,373.462704 L427.118299,378.852322 C431.075859,375.419948 437.851275,368.520388 444.574386,359.643345 C449.876234,352.642907 454.069099,345.676697 456.768051,339.16085 C457.911749,336.39972 458.932246,333.366832 459.820917,330.100594 C463.345324,317.146928 464.367312,302.766472 463.918202,291.211808 C463.863166,290.020629 483.542244,317.424896 483.542244,317.424896 L438.319155,298.692879 L417.11294,289.908977 L418.635503,267.006089 C418.878101,263.356851 419,259.686987 419,256 C419,252.313013 418.878101,248.643149 418.635503,244.993911 L417.11294,222.091023 L438.319155,213.307121 L483.542244,194.575104 L463.868619,221.870801 C464.367312,209.233528 463.345324,194.853072 459.820917,181.899406 C458.932246,178.633168 457.911749,175.60028 456.768051,172.83915 C454.069099,166.323303 449.876234,159.357093 444.574386,152.356655 C437.851275,143.479612 431.075859,136.580052 427.118299,133.147678 L460.330624,138.537296 L415.102905,157.271231 L393.883743,166.060496 L378.766334,148.769806 C373.940874,143.250636 368.749364,138.059126 363.230194,133.233666 L345.939504,118.116257 L354.728769,96.8970954 Z M384.292914,109.142965 L384.292914,109.142965 L384.292914,109.142965 C390.887887,114.909011 397.090989,121.112113 402.857035,127.707086 L448.084754,108.973151 C448.084754,108.973151 474.406357,131.801756 486.332197,160.59328 C498.258036,189.384805 495.788114,224.139249 495.788114,224.139249 L450.565025,242.871266 C450.853475,247.210221 451,251.587999 451,256 C451,260.412001 450.853475,264.789779 450.565025,269.128734 L495.788114,287.860751 C495.788114,287.860751 498.258036,322.615195 486.332197,351.40672 C474.406357,380.198244 448.084754,403.026849 448.084754,403.026849 L402.857035,384.292914 C397.090989,390.887887 390.887887,397.090989 384.292914,402.857035 L403.026849,448.084754 C403.026849,448.084754 380.198244,474.406357 351.40672,486.332197 C322.615195,498.258036 287.860751,495.788114 287.860751,495.788114 L269.128734,450.565025 C264.789779,450.853475 260.412001,451 256,451 C251.587999,451 247.210221,450.853475 242.871266,450.565025 L224.139249,495.788114 C224.139249,495.788114 189.384805,498.258036 160.59328,486.332197 C131.801756,474.406357 108.973151,448.084754 108.973151,448.084754 L127.707086,402.857035 C121.112113,397.090989 114.909011,390.887887 109.142965,384.292914 L63.9152457,403.026849 C63.9152457,403.026849 37.5936434,380.198244 25.6678035,351.40672 C13.7419635,322.615195 16.2118858,287.860751 16.2118858,287.860751 L61.4349749,269.128734 C61.1465252,264.789779 61,260.412001 61,256 C61,251.587999 61.1465252,247.210221 61.4349749,242.871266 L16.2118858,224.139249 C16.2118858,224.139249 13.7419635,189.384805 25.6678035,160.59328 C37.5936434,131.801756 63.9152457,108.973151 63.9152457,108.973151 L109.142965,127.707086 C114.909011,121.112113 121.112113,114.909011 127.707086,109.142965 L108.973151,63.9152457 C108.973151,63.9152457 131.801756,37.5936434 160.59328,25.6678035 C189.384805,13.7419635 224.139249,16.2118858 224.139249,16.2118858 L242.871266,61.4349749 C247.210221,61.1465252 251.587999,61 256,61 C260.412001,61 264.789779,61.1465252 269.128734,61.4349749 L287.860751,16.2118858 C287.860751,16.2118858 322.615195,13.7419635 351.40672,25.6678035 C380.198244,37.5936434 403.026849,63.9152457 403.026849,63.9152457 L384.292914,109.142965 Z" id="Shape" sketch:type="MSShapeGroup"></path>
        </g>
    </g>
</svg>