<?xml version="1.0" encoding="UTF-8" standalone="no"?>
<svg width="500px" height="500px" viewBox="0 0 500 500" version="1.1" xmlns="http://www.w3.org/2000/svg" xmlns:xlink="http://www.w3.org/1999/xlink" xmlns:sketch="http://www.bohemiancoding.com/sketch/ns">
    <!-- Generator: Sketch 3.4.2 (15857) - http://www.bohemiancoding.com/sketch -->
    <title>cog</title>
    <desc>Created with Sketch.</desc>
    <defs></defs>
    <g id="Page-1" stroke="none" stroke-width="1" fill="none" fill-rule="evenodd" sketch:type="MSPage">
        <g id="cog" sketch:type="MSArtboardGroup" fill="#000000">
            <path d="M133.485296,440.231735 C153.421014,452.468205 175.427683,461.658765 198.857352,467.155463 L218.136241,409.318797 L281.863759,409.318797 L301.142648,467.155463 C324.332377,461.715056 346.128102,452.656057 365.901575,440.606712 L336.258599,381.32076 L381.32076,336.258599 L440.606712,365.901575 C452.656057,346.128102 461.715056,324.332377 467.155463,301.142648 L409.318797,281.863759 L409.318797,218.136241 L467.155463,198.857352 C461.715056,175.667623 452.656057,153.871898 440.606712,134.098425 L381.32076,163.741401 L336.258599,118.67924 L365.901575,59.3932877 C346.128102,47.3439434 324.332377,38.2849442 301.142648,32.8445372 L281.863759,90.6812029 L218.136241,90.6812029 L198.857352,32.8445372 C175.187639,38.3975504 152.970234,47.7205024 132.873207,60.1453222 L162.140166,118.67924 L117.078006,163.741401 L59.0203883,134.712592 C47.1569457,154.32289 38.2286769,175.907462 32.8445372,198.857352 L90.6812029,218.136241 L90.6812029,281.863759 L32.8445372,301.142648 C38.3412352,324.572317 47.5317948,346.578986 59.7682652,366.514704 L117.078006,337.859834 L162.140166,382.921994 L133.485296,440.231735 L133.485296,440.231735 L133.485296,440.231735 Z M97.2401342,450.588422 L128.580755,388.659346 L111.236326,371.847492 L49.4115784,402.759866 L36.0864563,381.050511 C22.1574677,358.357335 11.9080556,333.558824 5.79203171,307.489278 L0,282.80075 L62.8941957,261.003655 L62.9522732,238.183341 L6.05583555e-12,217.19925 L5.79203171,192.510722 C8.92460637,179.158126 13.1416457,166.138429 18.3825362,153.563696 C23.1659473,142.086617 28.8022663,130.980211 35.2454073,120.329684 L48.5158995,98.3935293 L112.276082,129.246562 L127.945752,112.424049 L96.6648397,49.8622241 L118.261161,36.5104778 C141.13951,22.3661287 166.176079,11.9702485 192.510722,5.79203171 L217.19925,-2.84217094e-14 L238.996345,62.8941957 L261.641991,63.4762753 L282.80075,5.40201347e-13 L307.489278,5.79203171 C307.489278,5.79203171 357.854059,21.9497297 380.361003,35.6647667 L402.183635,48.9628047 L370.283008,113.406887 L387.250499,129.709713 L451.037195,97.8163646 L464.335233,119.638997 C464.335233,119.638997 488.154115,166.706177 494.207968,192.510722 L500,217.19925 L437.105804,238.996345 L437.20481,261.86902 L500,282.80075 L494.207968,307.489278 C494.207968,307.489278 478.05027,357.854059 464.335233,380.361003 L451.037195,402.183635 L388.978671,367.89745 L369.731508,386.13294 L402.183635,451.037195 L380.361003,464.335233 C380.361003,464.335233 333.293823,488.154115 307.489278,494.207968 L282.80075,500 L263.004319,437.105804 L238.49829,436.102882 L217.19925,500 L192.510722,494.207968 C166.441176,488.091944 141.642665,477.842532 118.949489,463.913544 L97.2401342,450.588422 Z M250,334.02791 L250,334.02791 L250,334.02791 L250,334.02791 C296.407333,334.02791 334.02791,296.407333 334.02791,250 C334.02791,203.592667 296.407333,165.97209 250,165.97209 C203.592667,165.97209 165.97209,203.592667 165.97209,250 C165.97209,296.407333 203.592667,334.02791 250,334.02791 L250,334.02791 Z M137.218108,250 C137.218108,187.712281 187.712281,137.218108 250,137.218108 C312.287719,137.218108 362.781892,187.712281 362.781892,250 C362.781892,312.287719 312.287719,362.781892 250,362.781892 C187.712281,362.781892 137.218108,312.287719 137.218108,250 Z" id="Shape" sketch:type="MSShapeGroup"></path>
        </g>
    </g>
</svg>