<svg viewBox="0 0 500 500" xmlns="http://www.w3.org/2000/svg"><g fill="none" fill-rule="evenodd"><path d="m191.76 345.08c9.965 6.116 20.964 10.71 32.675 13.457l9.636-28.909h31.853l9.636 28.909c11.591-2.719 22.485-7.247 32.369-13.27l-14.817-29.633 22.524-22.524 29.633 14.817c6.02-9.883 10.551-20.778 13.27-32.369l-28.909-9.636v-31.853l28.909-9.636c-2.719-11.591-7.247-22.485-13.27-32.369l-29.633 14.817-22.524-22.524 14.817-29.633c-9.883-6.02-20.778-10.551-32.369-13.27l-9.636 28.909h-31.853l-9.636-28.909c-11.831 2.776-22.936 7.436-32.981 13.646l14.629 29.26-22.524 22.524-29.02-14.51c-5.93 9.802-10.392 20.591-13.08 32.06l28.909 9.636v31.853l-28.909 9.636c2.747 11.711 7.341 22.711 13.457 32.675l28.645-14.323 22.524 22.524-14.323 28.645m58.24-39.529c-30.682 0-55.56-24.873-55.56-55.56 0-30.682 24.873-55.56 55.56-55.56 30.682 0 55.56 24.873 55.56 55.56 0 30.682-24.873 55.56-55.56 55.56" stroke="#25aaff" stroke-width="13.889"/></g></svg>