<svg xmlns="http://www.w3.org/2000/svg" width="24" height="24" viewBox="0 0 24 24">
    <path fill="#000" fill-rule="nonzero" d="M3.737 14H.985C.006 14 0 13.105 0 12s.006-2 .985-2h2.752a8.45 8.45 0 0 1 1.037-2.478L3.069 5.817c-.759-.759-.337-1.563.421-2.321.76-.76 1.568-1.186 2.327-.427l1.705 1.705A8.45 8.45 0 0 1 10 3.737v-2.68C10 .118 10.895 0 12 0s2 .118 2 1.057v2.68a8.45 8.45 0 0 1 2.478 1.037l1.705-1.705c.759-.759 1.516-.332 2.275.427.758.758 1.232 1.562.473 2.321l-1.705 1.705A8.45 8.45 0 0 1 20.263 10h2.79c.979 0 .947.895.947 2s.032 2-.947 2h-2.79a8.45 8.45 0 0 1-1.037 2.478l1.705 1.705c.759.759.285 1.607-.473 2.365-.76.76-1.516 1.142-2.275.383l-1.705-1.705A8.45 8.45 0 0 1 14 20.263v2.75c0 .939-.895.987-2 .987s-2-.048-2-.986v-2.75a8.45 8.45 0 0 1-2.478-1.038l-1.705 1.705c-.759.759-1.568.376-2.327-.383-.758-.758-1.18-1.606-.42-2.365l1.704-1.705A8.45 8.45 0 0 1 3.737 14zM12 16.5a4.5 4.5 0 1 0 0-9 4.5 4.5 0 0 0 0 9z"/>
</svg>
