<?xml version="1.0" encoding="UTF-8" standalone="no"?>
<svg width="576px" height="576px" viewBox="0 0 576 576" version="1.1" xmlns="http://www.w3.org/2000/svg" xmlns:xlink="http://www.w3.org/1999/xlink">
    <!-- Generator: Sketch 3.6.1 (26313) - http://www.bohemiancoding.com/sketch -->
    <title>contact</title>
    <desc>Created with Sketch.</desc>
    <defs></defs>
    <g id="Page-1" stroke="none" stroke-width="1" fill="none" fill-rule="evenodd">
        <g id="contact" fill="#000000">
            <g transform="translate(-1.000000, 48.000000)" id="Combined-Shape">
                <path d="M361.809092,382.264275 C329.492857,427.263332 266.569396,456.418963 193.340301,455.995174 C168.014946,456.71365 149.97933,455.501468 132.132549,450.986708 L141.537519,449.46469 C141.041522,449.781668 140.203187,450.292633 139.033928,450.969499 C137.172978,452.046775 135.004658,453.233217 132.540303,454.500637 C125.59615,458.072019 117.609189,461.6248 108.66935,464.931401 C83.2028506,474.350757 55.0618652,479.999998 25.0000007,480 L0.519697141,480.000001 L15.5146407,460.649629 C30.0464365,441.896929 40.9944745,423.736653 52.39473,400.455351 L55.9141017,415.289005 C20.7521176,388.583894 1,352.319061 1,312 C1,266.095142 29.2460343,225.601788 73.1851463,199.342313 C73.0679078,196.933224 73.005891,194.511518 73.000035,192.077894 C73.2598319,84.4928124 183.970409,0 323,0 C463.010851,0 577.000008,84.997662 577.000008,192.106904 C577.000008,240.916246 553.940046,286.173492 512.914064,320.696882 C515.000005,325 534.286447,357.071772 559.201921,388.537202 L574.613274,408 L549.796167,407.999998 C510.064783,407.999996 472.944998,401.539254 439.420287,390.76246 C427.64988,386.978766 417.149756,382.915095 408.040103,378.834842 C404.817363,377.391363 404.000005,377 400.819729,375.392542 C388.127052,378.45196 375.093833,380.749494 361.809092,382.264275 L361.809092,382.264275 Z M399.252419,351.038692 L403.890987,349.848773 C403.890987,349.848773 408.282082,352.295009 408.555082,352.440119 C409.05463,352.705647 409.662246,353.020508 410.375943,353.380651 C412.470361,354.437529 414.965729,355.627209 417.84612,356.917349 C426.173983,360.647435 435.855005,364.394103 446.761417,367.900059 C470.941075,375.672809 497.161414,381.044333 524.959834,383.079969 C515.999996,370.999996 483.056394,313.649482 483.056394,313.649482 C483.056394,313.649482 552.999996,263.999996 553.000008,192.106904 C553.000023,100.048027 451.031001,24.013363 323,24.013363 C196.013028,24.013363 97.223885,99.4078982 96.9999652,192.077981 C97.2238273,285.060547 195.954534,360.430912 323.120003,360.430912 C349.464034,360.430912 375.089371,357.237177 399.252419,351.038692 Z M76.7136879,225.56005 C44.747457,247.565288 25,278.410255 25,312 C25,344.452921 40.9961583,373.821823 70.4298987,396.176401 L78.2898131,402.145913 L73.9492704,411.010056 C66.0026108,427.238515 58.1857089,441.246592 49.3189676,454.671363 C66.9999993,453 77.4035871,450.906684 100.343662,442.421782 C108.346127,439.461891 115.453039,436.300575 121.563698,433.157859 C123.668527,432.075344 132.986862,426.446789 132.986862,426.446789 C162,430 193.068661,432.000196 193.068661,432.000196 C249.523352,432.32322 298.07913,413.682217 328.249881,384.406597 C326.542645,384.431702 324.832628,384.444275 323.120003,384.444275 C198.682362,384.444275 97.063503,316.948969 76.7136865,225.560041 L76.7136879,225.56005 Z"></path>
            </g>
        </g>
    </g>
</svg>