<?xml version="1.0" encoding="UTF-8" standalone="no"?>
<svg width="512px" height="512px" viewBox="0 0 512 512" version="1.1" xmlns="http://www.w3.org/2000/svg" xmlns:xlink="http://www.w3.org/1999/xlink">
    <!-- Generator: Sketch 3.6.1 (26313) - http://www.bohemiancoding.com/sketch -->
    <title>drag</title>
    <desc>Created with Sketch.</desc>
    <defs></defs>
    <g id="Page-1" stroke="none" stroke-width="1" fill="none" fill-rule="evenodd">
        <g id="drag" fill="#000000">
            <path d="M256,416 L256,288 L384,288 L384,329.135933 C384,350.153448 394.514827,358.067433 407.256432,347.011103 L470.405295,292.214654 C483.249468,281.069323 483.146899,262.910167 470.405295,251.853837 L407.256432,197.057389 C394.412259,185.912057 384,193.766126 384,214.932559 L384,256 L256,256 L256,128 L297.067441,128 C318.233874,128 326.087943,117.587741 314.942611,104.743568 L260.146163,41.5947049 C249.089833,28.8531005 230.930677,28.7505323 219.785346,41.5947049 L164.988897,104.743568 C153.932567,117.485173 161.846552,128 182.864067,128 L224,128 L224,256 L96,256 L96,214.932559 C96,193.766126 85.5877408,185.912057 72.7435683,197.057389 L9.5947049,251.853837 C-3.14689946,262.910167 -3.24946768,281.069323 9.5947049,292.214654 L72.7435683,347.011103 C85.4851726,358.067433 96,350.153448 96,329.135933 L96,288 L224,288 L224,416 L182.864067,416 C161.846552,416 153.932567,426.514827 164.988897,439.256432 L219.785346,502.405295 C230.930677,515.249468 249.089833,515.146899 260.146163,502.405295 L314.942611,439.256432 C326.087943,426.412259 318.233874,416 297.067441,416 L256,416 Z" id="Combined-Shape"></path>
        </g>
    </g>
</svg>