<?xml version="1.0" encoding="UTF-8" standalone="no"?>
<svg width="512px" height="512px" viewBox="0 0 512 512" version="1.1" xmlns="http://www.w3.org/2000/svg" xmlns:xlink="http://www.w3.org/1999/xlink">
    <!-- Generator: Sketch 3.6.1 (26313) - http://www.bohemiancoding.com/sketch -->
    <title>msg-error</title>
    <desc>Created with Sketch.</desc>
    <defs></defs>
    <g id="Page-1" stroke="none" stroke-width="1" fill="none" fill-rule="evenodd">
        <g id="msg-error" fill="#000000">
            <path d="M194.237762,256 C173.927,234.779188 155.243463,214.365834 138.517483,194.909091 C113.151733,165.796104 88.3333915,136.14805 64,105.622378 L105.622378,64 C135.987059,88.494382 165.894065,113.249695 194.909091,138.517483 C214.698681,155.58871 235.010044,174.174286 256,194.237762 C277.220812,173.927 297.634166,155.243463 317.090909,138.517483 C346.203896,113.151733 375.85195,88.3333915 406.377622,64 L448,105.622378 C423.505618,135.987059 398.750305,165.894065 373.482517,194.909091 C356.41129,214.698681 337.825714,235.010044 317.762238,256 C338.073,277.220812 356.756537,297.634166 373.482517,317.090909 C398.848267,346.203896 423.666608,375.85195 448,406.377622 L406.377622,448 C376.012941,423.505618 346.105935,398.750305 317.090909,373.482517 C297.301319,356.41129 276.989956,337.825714 256,317.762238 C234.779188,338.073 214.365834,356.756537 194.909091,373.482517 C165.796104,398.848267 136.14805,423.666608 105.622378,448 L64,406.377622 C88.494382,376.012941 113.249695,346.105935 138.517483,317.090909 C155.58871,297.301319 174.174286,276.989956 194.237762,256 L194.237762,256 L194.237762,256 L194.237762,256 Z M255.328671,256.671329 L256,256 L256.671329,256.671329 L256,257.342657 L255.328671,256.671329 L255.328671,256.671329 L255.328671,256.671329 L255.328671,256.671329 Z" id="!"></path>
        </g>
    </g>
</svg>