<svg xmlns="http://www.w3.org/2000/svg" width="24" height="21" viewBox="0 0 24 21">
    <path fill="#000" fill-rule="evenodd" d="M13.625.886l10.07 17.157a1.916 1.916 0 0 1-.585 2.654c-.31.198-.671.303-1.04.303H1.93C.864 21 0 20.14 0 19.079c0-.367.106-.727.304-1.036L10.374.886a1.935 1.935 0 0 1 3.251 0zm-2.85 14.227a1.744 1.744 0 0 0-.525 1.275c0 .496.177.925.526 1.274.348.349.778.526 1.274.526s.926-.177 1.274-.526c.349-.349.526-.778.526-1.274 0-.497-.177-.926-.526-1.275a1.744 1.744 0 0 0-1.274-.525c-.496 0-.926.177-1.274.525zm.017-9.871c-.367.339-.542.886-.542 1.63 0 .252.054.584.16 1.003.067.261.214.777.442 1.55.176.596.294 1.056.352 1.38.058.328.174 1.204.347 2.62l.027.22h.974l.024-.222c.125-1.126.216-1.875.272-2.244.055-.362.16-.82.312-1.373.258-.934.436-1.607.535-2.02.103-.426.155-.749.155-.976 0-.71-.18-1.24-.554-1.575a1.821 1.821 0 0 0-1.246-.485c-.48 0-.904.166-1.258.492z"/>
</svg>
