<?xml version="1.0" encoding="UTF-8" standalone="no"?>
<svg width="512px" height="512px" viewBox="0 0 512 512" version="1.1" xmlns="http://www.w3.org/2000/svg" xmlns:xlink="http://www.w3.org/1999/xlink">
    <!-- Generator: Sketch 3.6.1 (26313) - http://www.bohemiancoding.com/sketch -->
    <title>eye</title>
    <desc>Created with Sketch.</desc>
    <defs></defs>
    <g id="Page-1" stroke="none" stroke-width="1" fill="none" fill-rule="evenodd">
        <g id="eye" fill="#000000">
            <path d="M262.2824,160.050469 C368.708411,161.761 457.051621,206.698276 480,256 C456.666234,312.6858 365.287018,352 256,352 C146.712982,352 56.3337658,312.685797 33,256 C55.93985,206.716601 143.264743,161.794405 249.600076,160.052394 C199.552952,163.324723 159.972497,204.961944 159.972497,255.845265 C159.972497,308.864601 202.945773,351.845265 255.955995,351.845265 C308.966217,351.845265 351.939493,308.864601 351.939493,255.845265 C351.939493,246.006367 350.459625,236.51317 347.710371,227.57619 L347.710371,227.57619 C340.185941,244.244794 323.421327,255.845265 303.947744,255.845265 C277.442633,255.845265 255.955995,234.354933 255.955995,207.845265 C255.955995,188.368334 267.554471,171.600838 284.22021,164.075114 C277.215559,161.919554 269.869157,160.544201 262.2824,160.050469 Z M512,256 C512,256 479,128 256,128 C33,128 0,256 0,256 C0,256 32,384 256,384 C480,384 512,256 512,256 Z" id="Path"></path>
        </g>
    </g>
</svg>