<?xml version="1.0" encoding="UTF-8" standalone="no"?>
<svg width="512px" height="512px" viewBox="0 0 512 512" version="1.1" xmlns="http://www.w3.org/2000/svg" xmlns:xlink="http://www.w3.org/1999/xlink" xmlns:sketch="http://www.bohemiancoding.com/sketch/ns">
    <!-- Generator: Sketch 3.4.2 (15857) - http://www.bohemiancoding.com/sketch -->
    <title>eye</title>
    <desc>Created with Sketch.</desc>
    <defs></defs>
    <g id="Page-1" stroke="none" stroke-width="1" fill="none" fill-rule="evenodd" sketch:type="MSPage">
        <g id="eye" sketch:type="MSArtboardGroup" fill="#000000">
            <path d="M262.167329,160.043049 C368.644728,161.530711 457.04335,201.390124 480,250.709616 C456.666234,307.395415 365.287018,352 256,352 C146.712982,352 55.3337658,307.395413 32,250.709616 C54.9485374,201.407553 143.292805,161.558883 249.719798,160.04464 C199.616089,163.258338 159.972497,204.921377 159.972497,255.845265 C159.972497,308.864601 202.945773,351.845265 255.955995,351.845265 C308.966217,351.845265 351.939493,308.864601 351.939493,255.845265 C351.939493,246.006367 350.459625,236.51317 347.710371,227.57619 L347.710371,227.57619 C340.185941,244.244794 323.421327,255.845265 303.947744,255.845265 C277.442633,255.845265 255.955995,234.354933 255.955995,207.845265 C255.955995,188.368334 267.554471,171.600838 284.22021,164.075114 C277.180151,161.908658 269.794877,160.530317 262.167329,160.043049 Z M511.035882,259.350785 C511.378066,258.238025 511.699519,257.121049 512,256 L512,256 C492.560848,183.475442 385.347179,128 256,128 C126.652821,128 19.4391524,183.475442 0,256 C0.300480966,257.121049 0.621934313,258.238025 0.964117607,259.350785 C0.621934313,260.363397 0.300480966,261.379845 7.78593623e-13,262.4 L1.9571436,262.4 C25.8112572,331.762925 130.484893,384 256,384 C381.515107,384 486.188743,331.762925 510.042856,262.4 L512,262.4 C511.699519,261.379845 511.378066,260.363397 511.035882,259.350785 L511.035882,259.350785 Z" id="Path" sketch:type="MSShapeGroup"></path>
        </g>
    </g>
</svg>