<svg viewBox="0 0 500 500" xmlns="http://www.w3.org/2000/svg"><g fill="none" fill-rule="evenodd"><path d="m262.3 204.51c50.32 2.853 91.2 22.98 102.28 47.554-11.933 29.934-58.665 53.49-114.56 53.49-55.89 0-102.62-23.554-114.56-53.49 10.62-23.559 48.625-43.03 96.09-47.11-17.729 7.268-30.22 24.698-30.22 45.05 0 26.876 21.787 48.664 48.664 48.664 26.876 0 48.664-21.787 48.664-48.664 0-4.987-.75-9.8-2.144-14.33-3.815 8.45-12.315 14.33-22.19 14.33-13.438 0-24.332-10.894-24.332-24.332 0-9.06 4.954-16.968 12.302-21.16m117.02 47.3c.173-.604.336-1.21.489-1.818-9.856-39.35-64.21-69.44-129.79-69.44-65.58 0-119.94 30.1-129.79 69.44.152.608.315 1.214.489 1.818-.173.549-.336 1.101-.489 1.654h.992c12.09 37.632 65.16 65.972 128.8 65.972 63.64 0 116.71-28.34 128.8-65.972h.992c-.152-.553-.315-1.105-.489-1.654" fill="#25aaff"/></g></svg>