<svg xmlns="http://www.w3.org/2000/svg" width="29" height="19" viewBox="0 0 29 19">
    <g fill="#000" fill-rule="evenodd" transform="translate(3 3)">
        <path fill-rule="nonzero" d="M0 6.5C3.823 10.833 7.65 13 11.48 13S19.15 10.833 23 6.5C19.125 2.167 15.263 0 11.414 0S3.761 2.167 0 6.5zm-1.888-1.639C2.307.028 6.745-2.5 11.414-2.5c4.657 0 9.141 2.516 13.45 7.334a2.5 2.5 0 0 1 .005 3.326c-4.283 4.821-8.747 7.34-13.39 7.34-4.644 0-9.097-2.521-13.354-7.346a2.5 2.5 0 0 1-.013-3.293z"/>
        <circle cx="11.5" cy="6.5" r="4.5"/>
    </g>
</svg>
