<?xml version="1.0" encoding="UTF-8" standalone="no"?>
<svg width="500px" height="500px" viewBox="0 0 500 500" version="1.1" xmlns="http://www.w3.org/2000/svg" xmlns:xlink="http://www.w3.org/1999/xlink" xmlns:sketch="http://www.bohemiancoding.com/sketch/ns">
    <!-- Generator: Sketch 3.4.2 (15857) - http://www.bohemiancoding.com/sketch -->
    <title>eye</title>
    <desc>Created with Sketch.</desc>
    <defs></defs>
    <g id="Page-1" stroke="none" stroke-width="1" fill="none" fill-rule="evenodd" sketch:type="MSPage">
        <g id="eye" sketch:type="MSArtboardGroup" fill="#000000">
            <path d="M273.653534,162.228745 C370.583826,167.734438 449.314697,206.570791 470.652101,253.989316 C447.667081,311.749786 357.653617,357.2 250,357.2 C142.346383,357.2 52.3329189,311.749783 29.3478991,253.989316 C49.8034872,208.530467 123.006743,170.959092 214.424905,163.080384 C180.275872,177.10487 156.223141,210.738515 156.223141,250 C156.223141,301.86015 198.189231,343.901109 249.957026,343.901109 C301.724821,343.901109 343.690911,301.86015 343.690911,250 C343.690911,240.376214 342.245728,231.090571 339.560909,222.348985 L339.560909,222.348985 C332.212833,238.653156 315.841139,250 296.823968,250 C270.940071,250 249.957026,228.979521 249.957026,203.049446 C249.957026,185.562562 259.500045,170.308547 273.653536,162.228745 Z M499.058479,253.507853 C499.392642,252.342933 499.706562,251.173599 500,250 L500,250 C481.016453,174.075853 376.315604,116 250,116 C123.684396,116 18.9835473,174.075853 0,250 C0.293438444,251.173599 0.607357728,252.342933 0.9415211,253.507853 C0.607357728,254.567931 0.293438444,255.632025 7.60345335e-13,256.7 L1.91127305,256.7 C25.2063058,329.314312 127.426653,384 250,384 C372.573347,384 474.793694,329.314312 498.088727,256.7 L500,256.7 C499.706562,255.632025 499.392642,254.567931 499.058479,253.507853 L499.058479,253.507853 Z" id="Path" sketch:type="MSShapeGroup"></path>
        </g>
    </g>
</svg>