<?xml version="1.0" encoding="UTF-8" standalone="no"?>
<svg width="512px" height="512px" viewBox="0 0 512 512" version="1.1" xmlns="http://www.w3.org/2000/svg" xmlns:xlink="http://www.w3.org/1999/xlink" xmlns:sketch="http://www.bohemiancoding.com/sketch/ns">
    <!-- Generator: Sketch 3.5.2 (25235) - http://www.bohemiancoding.com/sketch -->
    <title>feedback</title>
    <desc>Created with Sketch.</desc>
    <defs></defs>
    <g id="Page-1" stroke="none" stroke-width="1" fill="none" fill-rule="evenodd" sketch:type="MSPage">
        <g id="feedback" sketch:type="MSArtboardGroup" fill="#000000">
            <path d="M48.6816839,238.601346 C32.2662949,256.983791 22.6601054,280.399325 22.6601054,308.115587 C22.6601054,337.416078 33.3958369,361.910141 51.5627549,380.732517 C41.7093647,397.001669 23.6175382,424.184979 0,448 C77.3593313,448 120.0578,431.977726 139.228193,421.930455 C149.566412,423.453497 160.308165,424.231173 171.330053,424.231173 C207.633897,424.231173 240.89853,415.315824 266.714333,399.274131 C242.274804,398.879155 218.993834,395.815746 197.360001,390.369894 C189.001693,391.595918 180.291359,392.231173 171.330053,392.231173 C161.895109,392.231173 152.709798,391.571191 143.892141,390.272161 L133.593577,388.754961 L124.373431,393.587272 C114.599202,398.70998 101.353336,403.592842 84.2217525,407.556524 C67.8826881,411.336844 76.134278,409.578125 70.4239819,410.829009 C73.3614029,406.339014 76.1986319,401.826487 78.9340821,397.309925 L91.6971671,376.236511 L74.5875198,358.509551 C61.5097393,344.959928 54.6601054,328.17885 54.6601054,308.115587 C54.6601054,298.702425 56.1775829,289.974371 59.1547697,281.956949 C53.6602154,268.384782 50.090967,253.887127 48.6816839,238.601346 L48.6816839,238.601346 Z" id="Shape" sketch:type="MSShapeGroup"></path>
            <path d="M468.227879,414.208481 C458.795119,401.592672 450.506678,387.853208 443.259685,373.218767 C434.000463,354.520869 426.981368,335.488563 421.84726,317.089875 L417.634189,301.991833 L427.033288,289.431915 C440.961659,270.819579 448.254633,248.836826 448.254633,223.658932 C448.254633,185.748096 431.60827,154.659095 400.453344,132.015869 C368.69078,108.931017 323.296277,95.9317863 272.137926,95.9317863 C221.606554,95.9317863 176.135311,109.432891 144.0102,133.139877 C112.806118,156.167182 96.0212194,187.263623 96.0212194,223.658932 C96.0212194,260.05424 112.806118,291.150681 144.0102,314.177987 C176.135311,337.884973 221.606554,351.386077 272.137926,351.386077 C294.468907,351.386077 315.862618,348.908152 335.604942,344.093819 L350.120311,340.554124 L362.164625,349.374202 C373.882711,357.955382 389.800983,365.688954 410.689996,371.754486 C431.79366,377.882345 456.717229,381.913058 485.766009,383.412696 C490.813923,391.203457 496.485153,398.891886 502.845347,406.215671 L498.863472,415.848851 C488.035005,415.596374 477.834358,415.033847 468.227879,414.208481 L468.227879,414.208481 Z M343.211327,375.111631 C321.033969,380.519767 297.099077,383.317863 272.137926,383.317863 C157.186524,383.317863 64,320.611974 64,223.658932 C64,126.70589 157.186524,64 272.137926,64 C387.089329,64 480.275852,123.341982 480.275852,223.658932 C480.275852,256.577677 470.241462,285.084208 452.696374,308.529525 C459.9897,334.666027 477.034116,381.371354 512,416 C418.04867,416 368.181601,393.397418 343.211327,375.111631 L343.211327,375.111631 L343.211327,375.111631 Z" id="Shape" sketch:type="MSShapeGroup"></path>
        </g>
    </g>
</svg>