<?xml version="1.0" encoding="UTF-8" standalone="no"?>
<svg width="512px" height="512px" viewBox="0 0 512 512" version="1.1" xmlns="http://www.w3.org/2000/svg" xmlns:xlink="http://www.w3.org/1999/xlink" xmlns:sketch="http://www.bohemiancoding.com/sketch/ns">
    <!-- Generator: Sketch 3.5.2 (25235) - http://www.bohemiancoding.com/sketch -->
    <title>help</title>
    <desc>Created with Sketch.</desc>
    <defs></defs>
    <g id="Page-1" stroke="none" stroke-width="1" fill="none" fill-rule="evenodd" sketch:type="MSPage">
        <g id="help" sketch:type="MSArtboardGroup" fill="#000000">
            <path d="M256,491 L256,491 C385.786916,491 491,385.786916 491,256 C491,126.213084 385.786916,21 256,21 C126.213084,21 21,126.213084 21,256 C21,385.786916 126.213084,491 256,491 L256,491 Z M256,512 L256,512 C114.615104,512 0,397.384896 0,256 C0,114.615104 114.615104,0 256,0 C397.384896,0 512,114.615104 512,256 C512,397.384896 397.384896,512 256,512 L256,512 Z" id="Shape" sketch:type="MSShapeGroup"></path>
            <path d="M249.235294,174.236842 C241.285908,174.236842 233.677324,175.206131 226.409314,177.144737 C219.141304,179.083343 211.532719,182.219277 203.583333,186.552632 L192,154.736842 C200.403637,149.947344 209.999538,146.127207 220.78799,143.276316 C231.576443,140.425424 242.648636,139 254.004902,139 C267.632421,139 278.874956,140.88156 287.732843,144.644737 C296.590731,148.407914 303.63151,153.140322 308.855392,158.842105 C314.079274,164.543888 317.713225,170.815755 319.757353,177.657895 C321.801481,184.500034 322.823529,191.114003 322.823529,197.5 C322.823529,205.254425 321.404017,212.210496 318.564951,218.368421 C315.725884,224.526347 312.148714,230.228044 307.833333,235.473684 C303.517952,240.719324 298.861953,245.679801 293.865196,250.355263 C288.868439,255.030725 284.21244,259.820151 279.897059,264.723684 C275.581678,269.627218 272.004508,274.815762 269.165441,280.289474 C266.326375,285.763185 264.906863,291.921018 264.906863,298.763158 L264.906863,302.697368 C264.906863,304.179832 265.020424,305.605256 265.247549,306.973684 L229.816176,306.973684 C229.361926,304.692971 229.021243,302.241241 228.794118,299.618421 C228.566992,296.995601 228.453431,294.543871 228.453431,292.263158 C228.453431,284.736804 229.702602,278.008802 232.20098,272.078947 C234.699359,266.149093 237.879066,260.675464 241.740196,255.657895 C245.601326,250.640326 249.746301,245.964934 254.175245,241.631579 C258.604189,237.298224 262.749164,232.964934 266.610294,228.631579 C270.471425,224.298224 273.651131,219.8509 276.14951,215.289474 C278.647888,210.728047 279.897059,205.710554 279.897059,200.236842 C279.897059,192.710489 277.341937,186.495639 272.231618,181.592105 C267.121298,176.688572 259.455933,174.236842 249.235294,174.236842 L249.235294,174.236842 Z M275.808824,358.973684 C275.808824,366.95618 273.196922,373.456115 267.973039,378.473684 C262.749157,383.491253 256.276182,386 248.553922,386 C241.058786,386 234.642592,383.491253 229.305147,378.473684 C223.967702,373.456115 221.29902,366.95618 221.29902,358.973684 C221.29902,350.991188 223.967702,344.434236 229.305147,339.302632 C234.642592,334.171027 241.058786,331.605263 248.553922,331.605263 C256.276182,331.605263 262.749157,334.171027 267.973039,339.302632 C273.196922,344.434236 275.808824,350.991188 275.808824,358.973684 L275.808824,358.973684 Z" id="?" sketch:type="MSShapeGroup"></path>
        </g>
    </g>
</svg>