<svg xmlns="http://www.w3.org/2000/svg" width="512" height="512">
  <g fill-rule="evenodd">
    <path d="M256 480c123.7 0 224-100.3 224-224S379.7 32 256 32 32 132.3 32 256s100.3 224 224 224zm0 32C114.62 512 0 397.38 0 256S114.62 0 256 0s256 114.62 256 256-114.62 256-256 256z"/>
    <path d="M172 198.68c0-10.7 3.44-21.56 10.3-32.55 6.9-11 16.92-20.1 30.1-27.3C225.6 131.6 241 128 258.58 128c16.35 0 30.78 3.02 43.3 9.05 12.5 6.03 22.17 14.23 29 24.6 6.8 10.37 10.22 21.64 10.22 33.82 0 9.58-1.96 17.98-5.85 25.2-3.88 7.2-8.5 13.43-13.86 18.67-5.4 5.25-15 14.07-28.9 26.47-3.9 3.5-6.9 6.6-9.2 9.3-2.3 2.7-4.1 5.1-5.2 7.3-1.17 2.2-2 4.4-2.66 6.6-.6 2.2-1.55 6.08-2.8 11.6-2.14 11.73-8.84 17.6-20.1 17.6-5.88 0-10.8-1.92-14.8-5.75s-6-9.5-6-17.06c0-9.48 1.45-17.68 4.4-24.6 2.93-6.95 6.82-13.03 11.7-18.28 4.8-5.24 11.4-11.47 19.6-18.7 7.2-6.3 12.4-11.06 15.62-14.3 3.2-3.2 5.9-6.8 8.1-10.7 2.2-3.96 3.3-8.24 3.3-12.87 0-9-3.35-16.6-10.06-22.8-6.7-6.2-15.36-9.3-25.96-9.3-12.4 0-21.5 3.1-27.4 9.35-5.83 6.25-10.8 15.46-14.85 27.64-3.85 12.74-11.1 19.1-21.8 19.1-6.34 0-11.67-2.23-16-6.7-4.35-4.44-6.5-9.26-6.5-14.44zM254.52 384c-6.88 0-12.88-2.23-18-6.68-5.14-4.45-7.7-10.68-7.7-18.68 0-7.1 2.47-13.08 7.43-17.93 4.96-4.8 11.05-7.2 18.27-7.2 7.1 0 13.07 2.5 17.92 7.3 4.85 4.9 7.27 10.87 7.27 17.98 0 7.9-2.5 14.1-7.6 18.6-5 4.5-10.9 6.76-17.5 6.76z"/>
  </g>
</svg>
