<?xml version="1.0" encoding="UTF-8" standalone="no"?>
<svg width="512px" height="512px" viewBox="0 0 512 512" version="1.1" xmlns="http://www.w3.org/2000/svg" xmlns:xlink="http://www.w3.org/1999/xlink" xmlns:sketch="http://www.bohemiancoding.com/sketch/ns">
    <!-- Generator: Sketch 3.5.2 (25235) - http://www.bohemiancoding.com/sketch -->
    <title>help</title>
    <desc>Created with Sketch.</desc>
    <defs></defs>
    <g id="Page-1" stroke="none" stroke-width="1" fill="none" fill-rule="evenodd" sketch:type="MSPage">
        <g id="help" sketch:type="MSArtboardGroup" fill="#000000">
            <path d="M256,480 L256,480 C379.711784,480 480,379.711784 480,256 C480,132.288216 379.711784,32 256,32 C132.288216,32 32,132.288216 32,256 C32,379.711784 132.288216,480 256,480 L256,480 Z M256,512 L256,512 C114.615104,512 0,397.384896 0,256 C0,114.615104 114.615104,0 256,0 C397.384896,0 512,114.615104 512,256 C512,397.384896 397.384896,512 256,512 L256,512 Z" id="Shape" sketch:type="MSShapeGroup"></path>
            <path d="M251.294118,164.520776 C243.058782,164.520776 235.176508,165.525382 227.647059,167.534626 C220.117609,169.54387 212.235335,172.794068 204,177.285319 L192,144.310249 C200.705926,139.346236 210.647003,135.386903 221.823529,132.432133 C233.000056,129.477363 244.470529,128 256.235294,128 C270.353012,128 281.999954,129.950119 291.176471,133.850416 C300.352987,137.750712 307.647032,142.655557 313.058824,148.565097 C318.470615,154.474637 322.235284,160.975034 324.352941,168.066482 C326.470599,175.15793 327.529412,182.012894 327.529412,188.631579 C327.529412,196.668554 326.058838,203.878084 323.117647,210.260388 C320.176456,216.642691 316.470611,222.552143 312,227.98892 C307.529389,233.425697 302.705908,238.566919 297.529412,243.412742 C292.352915,248.258565 287.529434,253.222505 283.058824,258.304709 C278.588213,263.386914 274.882368,268.764515 271.941176,274.437673 C268.999985,280.110832 267.529412,286.493039 267.529412,293.584488 L267.529412,297.66205 C267.529412,299.19853 267.647058,300.675893 267.882353,302.094183 L231.176471,302.094183 C230.70588,299.730367 230.352942,297.189303 230.117647,294.470914 C229.882352,291.752526 229.764706,289.211461 229.764706,286.847645 C229.764706,279.047052 231.058811,272.0739 233.647059,265.927978 C236.235307,259.782056 239.529392,254.108983 243.529412,248.908587 C247.529432,243.708192 251.823506,238.862442 256.411765,234.371191 C261.000023,229.879941 265.294098,225.388757 269.294118,220.897507 C273.294138,216.406256 276.588222,211.796884 279.176471,207.069252 C281.764719,202.34162 283.058824,197.141303 283.058824,191.468144 C283.058824,183.667551 280.411791,177.226249 275.117647,172.144044 C269.823503,167.06184 261.882406,164.520776 251.294118,164.520776 L251.294118,164.520776 Z M278.823529,355.98892 C278.823529,364.262276 276.117674,370.999051 270.705882,376.199446 C265.294091,381.399841 258.588275,384 250.588235,384 C242.823491,384 236.176498,381.399841 230.647059,376.199446 C225.117619,370.999051 222.352941,364.262276 222.352941,355.98892 C222.352941,347.715563 225.117619,340.919694 230.647059,335.601108 C236.176498,330.282522 242.823491,327.623269 250.588235,327.623269 C258.588275,327.623269 265.294091,330.282522 270.705882,335.601108 C276.117674,340.919694 278.823529,347.715563 278.823529,355.98892 L278.823529,355.98892 Z" id="?" sketch:type="MSShapeGroup"></path>
        </g>
    </g>
</svg>