<svg xmlns="http://www.w3.org/2000/svg" width="24" height="24" viewBox="0 0 24 24">
    <g fill="#000" fill-rule="evenodd">
        <path fill-rule="nonzero" d="M12 21.5a9.5 9.5 0 1 0 0-19 9.5 9.5 0 0 0 0 19zm0 2.5C5.373 24 0 18.627 0 12S5.373 0 12 0s12 5.373 12 12-5.373 12-12 12z"/>
        <path d="M10.619 15.844a1.784 1.784 0 0 0-.538 1.304c0 .508.181.948.538 1.304.356.357.796.538 1.304.538.501 0 .938-.18 1.298-.537.36-.357.543-.796.543-1.305 0-.508-.183-.948-.543-1.304a1.789 1.789 0 0 0-1.298-.537c-.508 0-.948.18-1.304.537zM10.566 7.087l-.049-.165c.007-.117.066-.216.17-.32.12-.12.337-.171.638-.171.493 0 .839.163 1.058.51.239.377.357.925.357 1.632 0 .896-.22 1.744-.664 2.548-.487.884-.725 1.607-.725 2.185l.018.812.006.244h1.043l.012-.237c.034-.668.107-1.14.214-1.339.106-.196.29-.372.547-.532.3-.186.498-.31.599-.376.097-.064.28-.181.544-.35.732-.487 1.227-1.057 1.492-1.712.146-.36.22-.768.22-1.225 0-.974-.364-1.783-1.084-2.41-.71-.62-1.69-.931-2.938-.931-1.255 0-2.194.307-2.824.917-.633.613-.95 1.29-.95 2.02 0 .542.152.963.452 1.259.298.294.659.444 1.068.444.386 0 .725-.127 1.004-.376.286-.256.433-.602.433-1.024 0-.25-.036-.457-.107-.629a2.16 2.16 0 0 0-.336-.532l-.129-.156a1.858 1.858 0 0 1-.069-.086z"/>
    </g>
</svg>
