<?xml version="1.0" encoding="UTF-8" standalone="no"?>
<svg width="500px" height="500px" viewBox="0 0 500 500" version="1.1" xmlns="http://www.w3.org/2000/svg" xmlns:xlink="http://www.w3.org/1999/xlink" xmlns:sketch="http://www.bohemiancoding.com/sketch/ns">
    <!-- Generator: Sketch 3.4.2 (15857) - http://www.bohemiancoding.com/sketch -->
    <title>history</title>
    <desc>Created with Sketch.</desc>
    <defs></defs>
    <g id="Page-1" stroke="none" stroke-width="1" fill="none" fill-rule="evenodd" sketch:type="MSPage">
        <g id="history" sketch:type="MSArtboardGroup" fill="#000000">
            <path d="M250,500 C388.071187,500 500,388.071187 500,250 C500,111.928813 388.071187,0 250,0 C111.928813,0 0,111.928813 0,250 C0,388.071187 111.928813,500 250,500 Z M250,437.5 C353.553391,437.5 437.5,353.553391 437.5,250 C437.5,146.446609 353.553391,62.5 250,62.5 C146.446609,62.5 62.5,146.446609 62.5,250 C62.5,353.553391 146.446609,437.5 250,437.5 Z M281.25,218.75 L281.25,156.25 L281.25,125 L218.75,125 L218.75,156.25 L218.75,250 L218.75,281.25 L265.625,281.25 L312.5,281.25 L343.75,281.25 L343.75,218.75 L312.5,218.75 L281.25,218.75 Z" id="Oval-6-Copy" sketch:type="MSShapeGroup"></path>
        </g>
    </g>
</svg>