<svg viewBox="0 0 500 500" xmlns="http://www.w3.org/2000/svg"><g fill="none" fill-rule="evenodd"><path d="m250 361.11c61.36 0 111.11-49.746 111.11-111.11 0-61.36-49.746-111.11-111.11-111.11-61.36 0-111.11 49.746-111.11 111.11 0 61.36 49.746 111.11 111.11 111.11m0-27.778c46.02 0 83.33-37.31 83.33-83.33 0-46.02-37.31-83.33-83.33-83.33-46.02 0-83.33 37.31-83.33 83.33 0 46.02 37.31 83.33 83.33 83.33m13.889-97.22v-27.778-13.889h-27.778v13.889 41.667 13.889h20.833 20.833 13.889v-27.778h-13.889-13.889" fill="#4a4a4a"/></g></svg>