<?xml version="1.0" encoding="UTF-8" standalone="no"?>
<svg width="512px" height="512px" viewBox="0 0 512 512" version="1.1" xmlns="http://www.w3.org/2000/svg" xmlns:xlink="http://www.w3.org/1999/xlink">
    <!-- Generator: Sketch 3.6.1 (26313) - http://www.bohemiancoding.com/sketch -->
    <title>history</title>
    <desc>Created with Sketch.</desc>
    <defs></defs>
    <g id="Page-1" stroke="none" stroke-width="1" fill="none" fill-rule="evenodd">
        <g id="history" fill="#000000">
            <path d="M0,256 C0,114.615104 114.615104,0 256,0 C397.384896,0 512,114.615104 512,256 C512,397.384896 397.384896,512 256,512 C114.615104,512 0,397.384896 0,256 Z M256,448 C362.038672,448 448,362.038672 448,256 C448,149.961328 362.038672,64 256,64 C149.961328,64 64,149.961328 64,256 C64,362.038672 149.961328,448 256,448 Z M288,224 L288,160 L288,128 L224,128 L224,160 L224,256 L224,288 L272,288 L320,288 L352,288 L352,224 L320,224 L288,224 Z" id="Oval-6-Copy"></path>
        </g>
    </g>
</svg>