<svg xmlns="http://www.w3.org/2000/svg" width="24" height="24" viewBox="0 0 24 24">
    <path fill="#000" fill-rule="nonzero" d="M12 24C5.373 24 0 18.627 0 12S5.373 0 12 0s12 5.373 12 12-5.373 12-12 12zm.005-21c-.551 0-1.03.197-1.418.585A1.935 1.935 0 0 0 10 5c0 .55.198 1.027.587 1.415.388.388.867.585 1.418.585.545 0 1.02-.197 1.408-.585C13.803 6.027 14 5.55 14 5s-.198-1.027-.587-1.415A1.933 1.933 0 0 0 12.005 3zm-2.757 7.145c.369.065.637.157.751.28.11.116.152.374.152.727v6.64c0 .41-.069.701-.233.848-.108.098-.346.172-.667.226L9 18.907V20h6v-1.085l-.241-.048c-.33-.065-.573-.15-.682-.254-.086-.095-.128-.339-.128-.732V9H9v1.101l.248.044z"/>
</svg>
