<?xml version="1.0" encoding="UTF-8" standalone="no"?>
<svg width="512px" height="512px" viewBox="0 0 512 512" version="1.1" xmlns="http://www.w3.org/2000/svg" xmlns:xlink="http://www.w3.org/1999/xlink">
    <!-- Generator: Sketch 3.6.1 (26313) - http://www.bohemiancoding.com/sketch -->
    <title>info-large</title>
    <desc>Created with Sketch.</desc>
    <defs></defs>
    <g id="Page-1" stroke="none" stroke-width="1" fill="none" fill-rule="evenodd">
        <g id="info-large" fill="#000000">
            <path d="M288,160 L288,448 L304,448 L304,512 L176,512 L176,448 L192,448 L192.125475,224 L176,224 L176,160 L288,160 Z M176,63.5974843 C176,44.8133233 182.133272,29.5178787 194.4,17.7106918 C206.666728,5.90350491 221.866576,-1.63709046e-14 240,0 C257.600088,0 272.666604,5.90350491 285.2,17.7106918 C297.733396,29.5178787 304,44.8133233 304,63.5974843 C304,82.3816453 297.733396,97.8112604 285.2,109.886792 C272.666604,121.962325 257.600088,128 240,128 C221.866576,128 206.666728,121.962325 194.4,109.886792 C182.133272,97.8112604 176,82.3816453 176,63.5974843 L176,63.5974843 Z" id="!-copy"></path>
        </g>
    </g>
</svg>