<svg xmlns="http://www.w3.org/2000/svg" width="24" height="24" viewBox="0 0 24 24">
    <g fill="none" fill-rule="evenodd">
        <path fill="#000" fill-rule="nonzero" d="M12 24C5.373 24 0 18.627 0 12S5.373 0 12 0s12 5.373 12 12-5.373 12-12 12z"/>
        <path fill="#FFF" d="M11.447 4.493A1.625 1.625 0 0 1 12.64 4c.459 0 .853.164 1.182.493.328.329.492.726.492 1.193 0 .466-.164.863-.492 1.192a1.612 1.612 0 0 1-1.182.493c-.467 0-.864-.164-1.193-.493a1.625 1.625 0 0 1-.493-1.192c0-.467.164-.864.493-1.193zM10 18.48c.382-.064.643-.16.784-.287.212-.19.318-.533.318-1.028v-6.382c0-.438-.074-.736-.222-.895-.149-.16-.442-.278-.88-.355v-.53h4.166v8.247c0 .473.07.777.212.912.141.134.406.24.795.318V19H10v-.52z"/>
    </g>
</svg>
