<?xml version="1.0" encoding="UTF-8"?>
<svg width="512px" height="356px" viewBox="0 0 512 356" version="1.1" xmlns="http://www.w3.org/2000/svg" xmlns:xlink="http://www.w3.org/1999/xlink">
    <!-- Generator: Sketch 44 (41411) - http://www.bohemiancoding.com/sketch -->
    <title>line-chart</title>
    <desc>Created with Sketch.</desc>
    <defs></defs>
    <g id="Page-1" stroke="none" stroke-width="1" fill="none" fill-rule="evenodd">
        <g id="line-chart" fill-rule="nonzero" fill="#000000">
            <path d="M448.209836,0 C413.51694,0 384.979235,28.4131455 384.979235,62.9546166 C384.979235,83.0109546 394.491803,100.838811 409.040437,112.538341 L351.405464,186.078247 C346.369399,184.964006 340.77377,183.849765 335.737705,183.849765 C327.903825,183.849765 320.629508,185.521127 313.914754,187.749609 L240.612022,140.394366 C246.20765,130.923318 249.565027,120.338028 249.565027,108.638498 C249.565027,74.0970266 221.027322,45.6838811 186.334426,45.6838811 C151.64153,45.6838811 123.103825,74.0970266 123.103825,108.638498 C123.103825,127.023474 130.937705,143.737089 143.80765,155.43662 L86.7322404,234.547731 C79.4579235,231.762128 71.6240437,230.090767 63.2306011,230.090767 C28.5377049,230.090767 0,258.503912 0,293.045383 C0,327.586854 28.5377049,356 63.2306011,356 C97.9234973,356 126.461202,327.586854 126.461202,293.045383 C126.461202,279.117371 121.425137,265.746479 113.591257,255.161189 L175.143169,170.478873 C179.060109,171.035994 182.977049,171.593114 186.893989,171.593114 C197.525683,171.593114 207.038251,168.807512 215.991257,164.350548 L285.377049,209.477308 C277.543169,220.062598 272.507104,232.876369 272.507104,246.804382 C272.507104,281.345853 301.044809,309.758998 335.737705,309.758998 C370.430601,309.758998 398.968306,281.345853 398.968306,246.804382 C398.968306,230.090767 392.253552,214.491393 381.062295,203.348983 L442.614208,125.352113 C444.852459,125.352113 446.531148,125.909233 448.769399,125.909233 C483.462295,125.909233 512,97.4960876 512,62.9546166 C512,28.4131455 483.462295,0 448.209836,0 Z M63.723741,321.501031 C47.3983983,321.501031 33.8877698,308.205563 33.8877698,292.140206 C33.8877698,276.074849 47.3983983,262.779381 63.723741,262.779381 C69.3531695,262.779381 74.9825981,264.441315 79.4861409,267.211204 C80.0490838,268.31916 81.1749695,268.873138 82.3008552,269.981093 C82.863798,270.535071 83.9896837,271.089049 84.5526266,271.643027 C90.1820551,277.182805 93.5597122,284.384517 93.5597122,292.140206 C92.9967694,308.759541 80.0490838,321.501031 63.723741,321.501031 Z M156.915108,108.635052 C156.915108,92.5696946 170.425736,79.2742268 186.751079,79.2742268 C203.076422,79.2742268 216.58705,92.5696946 216.58705,108.635052 C216.58705,124.700408 203.076422,137.995876 186.751079,137.995876 C170.425736,137.995876 156.915108,124.700408 156.915108,108.635052 Z M335.56259,275.991753 C319.237247,275.991753 305.726619,262.696285 305.726619,246.630928 C305.726619,230.565571 319.237247,217.270103 335.56259,217.270103 C351.887933,217.270103 365.398561,230.565571 365.398561,246.630928 C365.398561,262.696285 351.887933,275.991753 335.56259,275.991753 Z M448.276259,91.7525773 C431.950916,91.7525773 418.440288,78.4571095 418.440288,62.3917526 C418.440288,46.3263956 431.950916,33.0309278 448.276259,33.0309278 C464.601602,33.0309278 478.11223,46.3263956 478.11223,62.3917526 C478.11223,78.4571095 464.601602,91.7525773 448.276259,91.7525773 Z" id="Shape"></path>
        </g>
    </g>
</svg>