<?xml version="1.0" encoding="UTF-8"?>
<svg width="512px" height="512px" viewBox="0 0 512 512" version="1.1" xmlns="http://www.w3.org/2000/svg" xmlns:xlink="http://www.w3.org/1999/xlink">
    <!-- Generator: Sketch 46.2 (44496) - http://www.bohemiancoding.com/sketch -->
    <title>link copy</title>
    <desc>Created with Sketch.</desc>
    <defs></defs>
    <g id="Page-1" stroke="none" stroke-width="1" fill="none" fill-rule="evenodd">
        <g id="link-copy" fill="#000000">
            <g id="Group" transform="translate(256.000000, 256.000000) rotate(-45.000000) translate(-256.000000, -256.000000) translate(-24.000000, 151.000000)">
                <path d="M263.703929,65 L202.749381,65 C192.899271,55.700766 179.615378,50 165,50 L165,50 L105,50 L105,50 C74.6243388,50 50,74.6243388 50,105 C50,135.375661 74.6243388,160 105,160 L165,160 C179.615378,160 192.899271,154.299234 202.749381,145 L263.703929,145 C249.516561,182.966679 212.915266,210 170,210 L100,210 C44.771525,210 6.76353751e-15,165.228475 0,110 L0,100 C-6.76353751e-15,44.771525 44.771525,-4.06554845e-15 100,-1.42108547e-14 L100,0 L170,0 L170,-1.42108547e-14 C212.915266,-2.20942612e-14 249.516561,27.0333209 263.703923,64.9999992 Z M296.296071,145 L357.250619,145 C367.100729,154.299234 380.384622,160 395,160 L455,160 C485.375661,160 510,135.375661 510,105 L510,105 C510,74.6243388 485.375661,50 455,50 L455,50 L395,50 L395,50 C380.384622,50 367.100729,55.700766 357.250619,65 L296.296071,65 C310.483439,27.0333209 347.084734,-6.32744826e-15 390,-1.42108547e-14 L390,0 L460,0 L460,-1.42108547e-14 C515.228475,-2.4356161e-14 560,44.771525 560,100 L560,110 C560,165.228475 515.228475,210 460,210 L390,210 C347.084734,210 310.483439,182.966679 296.296077,145.000001 Z M165,85 L395,85 L395,85 C406.045695,85 415,93.954305 415,105 C415,116.045695 406.045695,125 395,125 L165,125 C153.954305,125 145,116.045695 145,105 C145,93.954305 153.954305,85 165,85 Z" id="Combined-Shape"></path>
            </g>
        </g>
    </g>
</svg>