<svg viewBox="0 0 500 500" xmlns="http://www.w3.org/2000/svg"><g fill="none" fill-rule="evenodd"><path d="m194.44 236.11h111.11v-13.889c0-30.682-24.873-55.56-55.56-55.56-30.682 0-55.56 24.873-55.56 55.56v13.889m13.889 0h83.33v-13.889c0-23.01-18.655-41.667-41.667-41.667-23.01 0-41.667 18.655-41.667 41.667v13.889m-27.778 13.891c0-7.672 6.215-13.891 13.889-13.891h111.11c7.671 0 13.889 6.211 13.889 13.891v69.44c0 7.672-6.215 13.891-13.889 13.891h-111.11c-7.671 0-13.889-6.211-13.889-13.891v-69.44" fill="#4a4a4a"/></g></svg>