<?xml version="1.0" encoding="UTF-8" standalone="no"?>
<svg width="512px" height="512px" viewBox="0 0 512 512" version="1.1" xmlns="http://www.w3.org/2000/svg" xmlns:xlink="http://www.w3.org/1999/xlink" xmlns:sketch="http://www.bohemiancoding.com/sketch/ns">
    <!-- Generator: Sketch 3.4.2 (15857) - http://www.bohemiancoding.com/sketch -->
    <title>lock</title>
    <desc>Created with Sketch.</desc>
    <defs></defs>
    <g id="Page-1" stroke="none" stroke-width="1" fill="none" fill-rule="evenodd" sketch:type="MSPage">
        <g id="lock" sketch:type="MSArtboardGroup" fill="#000000">
            <path d="M352,224 L74.6645251,224 C51.1066857,224 32,243.103893 32,266.669739 L32,469.330261 C32,492.89445 51.1015585,512 74.6645251,512 L437.335475,512 C460.893314,512 480,492.896107 480,469.330261 L480,266.669739 C480,243.10555 460.898441,224 437.335475,224 L352,224 C352,223.9977 352,173.059304 352,161.391153 C352,107.603504 309.019336,64 256,64 C202.980664,64 160,107.603504 160,161.391153 C160,173.410411 160,224 160,224 L352,224 L96,224 L96,170 C96,76.2965329 167.63444,0 256,0 C344.36556,0 416,76.2965329 416,170 C416,184.491788 416,224 416,224 L352,224 Z" id="Rectangle-11" sketch:type="MSShapeGroup"></path>
        </g>
    </g>
</svg>