<?xml version="1.0" encoding="UTF-8" standalone="no"?>
<svg width="500px" height="500px" viewBox="0 0 500 500" version="1.1" xmlns="http://www.w3.org/2000/svg" xmlns:xlink="http://www.w3.org/1999/xlink" xmlns:sketch="http://www.bohemiancoding.com/sketch/ns">
    <!-- Generator: Sketch 3.4.2 (15857) - http://www.bohemiancoding.com/sketch -->
    <title>lock</title>
    <desc>Created with Sketch.</desc>
    <defs></defs>
    <g id="Page-1" stroke="none" stroke-width="1" fill="none" fill-rule="evenodd" sketch:type="MSPage">
        <g id="lock" sketch:type="MSArtboardGroup" fill="#000000">
            <path d="M83.7,208.333333 L417.3,208.333333 L417.3,166.666667 C417.3,74.6192084 342.621096,0 250.5,0 C158.378904,0 83.7,74.6192084 83.7,166.666667 L83.7,208.333333 Z M125.4,208.333333 L375.6,208.333333 L375.6,166.666667 C375.6,97.6310729 319.590822,41.6666667 250.5,41.6666667 C181.409178,41.6666667 125.4,97.6310729 125.4,166.666667 L125.4,208.333333 Z M42,250.005797 C42,226.990731 60.6596361,208.333333 83.6762229,208.333333 L417.323777,208.333333 C440.340919,208.333333 459,226.994219 459,250.005797 L459,458.327536 C459,481.342603 440.340364,500 417.323777,500 L83.6762229,500 C60.6590805,500 42,481.339114 42,458.327536 L42,250.005797 Z" id="Rectangle-11" sketch:type="MSShapeGroup"></path>
        </g>
    </g>
</svg>