<svg viewBox="0 0 500 500" xmlns="http://www.w3.org/2000/svg"><g fill="none" fill-rule="evenodd"><path d="m152.78 277.78c15.341 0 27.778-12.437 27.778-27.778 0-15.341-12.437-27.778-27.778-27.778-15.341 0-27.778 12.437-27.778 27.778 0 15.341 12.437 27.778 27.778 27.778m222.22-27.778c0-15.341-12.437-27.778-27.778-27.778-15.341 0-27.778 12.437-27.778 27.778 0 15.341 12.437 27.778 27.778 27.778 15.341 0 27.778-12.437 27.778-27.778m-125 27.778c15.341 0 27.778-12.437 27.778-27.778 0-15.341-12.437-27.778-27.778-27.778-15.341 0-27.778 12.437-27.778 27.778 0 15.341 12.437 27.778 27.778 27.778" fill="#25aaff"/></g></svg>