<?xml version="1.0" encoding="UTF-8" standalone="no"?>
<svg width="500px" height="500px" viewBox="0 0 500 500" version="1.1" xmlns="http://www.w3.org/2000/svg" xmlns:xlink="http://www.w3.org/1999/xlink" xmlns:sketch="http://www.bohemiancoding.com/sketch/ns">
    <!-- Generator: Sketch 3.4.2 (15857) - http://www.bohemiancoding.com/sketch -->
    <title>more</title>
    <desc>Created with Sketch.</desc>
    <defs></defs>
    <g id="Page-1" stroke="none" stroke-width="1" fill="none" fill-rule="evenodd" sketch:type="MSPage">
        <g id="more" sketch:type="MSArtboardGroup" fill="#000000">
            <path d="M55.5555556,305 C86.2380417,305 111.111111,280.151804 111.111111,249.5 C111.111111,218.848196 86.2380417,194 55.5555556,194 C24.8730695,194 0,218.848196 0,249.5 C0,280.151804 24.8730695,305 55.5555556,305 L55.5555556,305 L55.5555556,305 Z M500,249.5 C500,218.848196 475.126931,194 444.444444,194 C413.761958,194 388.888889,218.848196 388.888889,249.5 C388.888889,280.151804 413.761958,305 444.444444,305 C475.126931,305 500,280.151804 500,249.5 L500,249.5 Z M250,305 C280.682486,305 305.555556,280.151804 305.555556,249.5 C305.555556,218.848196 280.682486,194 250,194 C219.317514,194 194.444444,218.848196 194.444444,249.5 C194.444444,280.151804 219.317514,305 250,305 L250,305 L250,305 Z" id="i-more" sketch:type="MSShapeGroup"></path>
        </g>
    </g>
</svg>