<?xml version="1.0" encoding="UTF-8" standalone="no"?>
<svg width="500px" height="500px" viewBox="0 0 500 500" version="1.1" xmlns="http://www.w3.org/2000/svg" xmlns:xlink="http://www.w3.org/1999/xlink" xmlns:sketch="http://www.bohemiancoding.com/sketch/ns">
    <!-- Generator: Sketch 3.4.2 (15857) - http://www.bohemiancoding.com/sketch -->
    <title>alert-warning</title>
    <desc>Created with Sketch.</desc>
    <defs></defs>
    <g id="Page-1" stroke="none" stroke-width="1" fill="none" fill-rule="evenodd" sketch:type="MSPage">
        <g id="alert-warning" sketch:type="MSArtboardGroup" fill="#000000">
            <path d="M287.5,129.979036 C287.5,168.646827 286.352725,204.052949 284.05814,236.198463 C281.763554,268.343976 278.895366,300.721943 275.453488,333.333333 L226.120155,333.333333 C222.295847,300.721943 219.236446,268.227509 216.94186,235.849057 C214.647275,203.470604 213.5,168.18095 213.5,129.979036 L213.5,0 L287.5,0 L287.5,129.979036 Z M306,444.79385 C306,461.099546 300.681303,474.376841 290.04375,484.626136 C279.406197,494.87543 266.225079,500 250.5,500 C235.237424,500 222.171929,494.87543 211.303125,484.626136 C200.434321,474.376841 195,461.099546 195,444.79385 C195,428.488155 200.434321,415.094392 211.303125,404.612159 C222.171929,394.129927 235.237424,388.888889 250.5,388.888889 C266.225079,388.888889 279.406197,394.129927 290.04375,404.612159 C300.681303,415.094392 306,428.488155 306,444.79385 L306,444.79385 Z" id="!" sketch:type="MSShapeGroup"></path>
        </g>
    </g>
</svg>