<?xml version="1.0" encoding="UTF-8" standalone="no"?>
<svg width="500px" height="500px" viewBox="0 0 500 500" version="1.1" xmlns="http://www.w3.org/2000/svg" xmlns:xlink="http://www.w3.org/1999/xlink" xmlns:sketch="http://www.bohemiancoding.com/sketch/ns">
    <!-- Generator: Sketch 3.4.2 (15857) - http://www.bohemiancoding.com/sketch -->
    <title>alert-error</title>
    <desc>Created with Sketch.</desc>
    <defs></defs>
    <g id="Page-1" stroke="none" stroke-width="1" fill="none" fill-rule="evenodd" sketch:type="MSPage">
        <g id="alert-error" sketch:type="MSArtboardGroup" fill="#000000">
            <path d="M250.007863,330.244766 C222.397238,356.755644 195.84477,381.05807 170.350088,403.152392 C132.668173,435.808471 94.1037598,468.090684 54.6556905,500 L0.628226327,445.972536 C32.1187223,406.105647 64.3189507,367.204405 97.2298775,329.267642 C119.391006,303.722282 143.566011,277.302478 169.755234,250.007863 C143.244356,222.397238 118.94193,195.84477 96.8476077,170.350088 C64.1915287,132.668173 31.9093156,94.1037598 -1.70530257e-12,54.6556905 L54.0274642,0.628226327 C93.8943531,32.1187223 132.795595,64.3189507 170.732358,97.2298775 C196.277718,119.391006 222.697522,143.566011 249.992137,169.755234 C277.602762,143.244356 304.15523,118.94193 329.649912,96.8476077 C367.331827,64.1915287 405.89624,31.9093156 445.34431,0 L499.371774,54.0274642 C467.881278,93.8943531 435.681049,132.795595 402.770123,170.732358 C380.608994,196.277718 356.433989,222.697522 330.244766,249.992137 C356.755644,277.602762 381.05807,304.15523 403.152392,329.649912 C435.808471,367.331827 468.090684,405.89624 500,445.34431 L445.972536,499.371774 C406.105647,467.881278 367.204405,435.681049 329.267642,402.770123 C303.722282,380.608994 277.302478,356.433989 250.007863,330.244766 L250.007863,330.244766 Z M250,250.38227 L249.61773,250 L250,249.61773 L250.38227,250 L250,250.38227 L250,250.38227 Z" id="!" sketch:type="MSShapeGroup"></path>
        </g>
    </g>
</svg>