<?xml version="1.0" encoding="UTF-8" standalone="no"?>
<svg width="512px" height="512px" viewBox="0 0 512 512" version="1.1" xmlns="http://www.w3.org/2000/svg" xmlns:xlink="http://www.w3.org/1999/xlink" xmlns:sketch="http://www.bohemiancoding.com/sketch/ns">
    <!-- Generator: Sketch 3.4.2 (15857) - http://www.bohemiancoding.com/sketch -->
    <title>msg-info</title>
    <desc>Created with Sketch.</desc>
    <defs></defs>
    <g id="Page-1" stroke="none" stroke-width="1" fill="none" fill-rule="evenodd" sketch:type="MSPage">
        <g id="msg-info" sketch:type="MSArtboardGroup" fill="#000000">
            <path d="M288,160 L288,448 L304,448 L304,512 L176,512 L176,448 L192,448 L192.125475,224 L176,224 L176,160 L288,160 Z M184,79.6477987 C184,63.2116579 189.366613,49.8281439 200.1,39.4968553 C210.833387,29.1655668 224.133254,24 240,24 C255.400077,24 268.583279,29.1655668 279.55,39.4968553 C290.516722,49.8281439 296,63.2116579 296,79.6477987 C296,96.0839396 290.516722,109.584853 279.55,120.150943 C268.583279,130.717034 255.400077,136 240,136 C224.133254,136 210.833387,130.717034 200.1,120.150943 C189.366613,109.584853 184,96.0839396 184,79.6477987 L184,79.6477987 Z" id="!-copy" sketch:type="MSShapeGroup"></path>
        </g>
    </g>
</svg>