<svg xmlns="http://www.w3.org/2000/svg" width="27" height="26" viewBox="0 0 27 26">
    <path fill="#000" fill-rule="nonzero" d="M25.25 24.33c.118 1.202-1.133 2.055-2.19 1.493l-5.728-3.04c-1.234.313-2.52.474-3.832.474-7.402 0-13.5-5.14-13.5-11.629C0 5.138 6.098 0 13.5 0S27 5.139 27 11.628c0 2.39-.837 4.664-2.355 6.573l.604 6.129zm-3.654-6.47c-.042-.426.096-.85.38-1.168C23.29 15.223 24 13.466 24 11.628c0-4.68-4.647-8.595-10.5-8.595S3 6.95 3 11.628c0 4.68 4.647 8.595 10.5 8.595 1.238 0 2.445-.176 3.582-.515a1.485 1.485 0 0 1 1.122.112l3.784 2.008-.392-3.968z"/>
</svg>
