<?xml version="1.0" standalone="no"?><!-- Generator: Gravit.io -->
<svg xmlns="http://www.w3.org/2000/svg" xmlns:xlink="http://www.w3.org/1999/xlink" style="isolation:isolate"
     viewBox="0 0 512 512" width="512" height="512">
    <path
        d=" M 436.988 75.02 C 390.649 28.681 326.649 0.004 256.004 0.004 L 256.004 0.004 C 114.714 0.004 0.004 114.714 0.004 256.004 C 0.004 397.294 114.714 512.004 256.004 512.004 C 396.627 512.004 510.92 398.375 511.996 258.004 L 465.994 258.004 C 464.919 372.987 371.239 466.004 256.004 466.004 C 140.102 466.004 46.004 371.906 46.004 256.004 C 46.004 140.102 140.102 46.004 256.004 46.004 L 256.004 46.004 C 313.955 46.004 366.455 69.528 404.467 107.541 L 436.988 75.02 Z "
        fill="rgb(0,0,0)"/>
</svg>
