<?xml version="1.0" encoding="UTF-8"?>
<svg width="512px" height="512px" viewBox="0 0 512 512" version="1.1" xmlns="http://www.w3.org/2000/svg" xmlns:xlink="http://www.w3.org/1999/xlink">
    <!-- Generator: Sketch 44 (41411) - http://www.bohemiancoding.com/sketch -->
    <title>pointer</title>
    <desc>Created with Sketch.</desc>
    <defs></defs>
    <g id="Page-1" stroke="none" stroke-width="1" fill="none" fill-rule="evenodd">
        <g id="pointer" fill-rule="nonzero" fill="#010202">
            <path d="M105.10348,240.791278 C92.2696019,235.945385 80.4892513,227.852905 70.3370792,217.633349 C30.1913044,177.234919 30.1913044,111.519499 70.3370792,71.1050758 C110.466892,30.7066454 175.753659,30.7066454 215.883471,71.1050758 C225.014041,80.2371042 231.973706,90.4726526 236.762466,101.267958 L283.867906,116.893162 C278.520457,89.4171117 265.654654,63.0125953 244.248895,42.0137278 C188.603499,-13.9939139 97.6170511,-13.9939139 41.971655,42.0137278 C-13.6897036,98.0213696 -13.6897036,189.597542 41.971655,245.63717 C63.8882152,267.691579 91.7428383,281.173715 120.108262,286.003614 L105.10348,240.791278 Z" id="Shape"></path>
            <path d="M497.414696,231.627263 L147.404197,114.174345 C138.305552,110.975736 128.664181,113.646574 122.247242,120.123757 C115.814341,126.60094 113.148597,136.820496 116.357067,145.440747 L233.027233,497.73553 C238.901446,515.519796 263.004873,516.607323 271.018066,499.894591 L342.210971,350.663493 C344.34995,346.345371 347.55842,343.130769 351.852342,341.003694 L500.080439,269.370848 C516.138749,261.790145 514.526533,237.54469 497.414696,231.627263 Z" id="Shape"></path>
        </g>
    </g>
</svg>