<?xml version="1.0" encoding="UTF-8" standalone="no"?>
<svg width="512px" height="512px" viewBox="0 0 512 512" version="1.1" xmlns="http://www.w3.org/2000/svg" xmlns:xlink="http://www.w3.org/1999/xlink" xmlns:sketch="http://www.bohemiancoding.com/sketch/ns">
    <!-- Generator: Sketch 3.4.2 (15857) - http://www.bohemiancoding.com/sketch -->
    <title>search</title>
    <desc>Created with Sketch.</desc>
    <defs></defs>
    <g id="Page-1" stroke="none" stroke-width="1" fill="none" fill-rule="evenodd" sketch:type="MSPage">
        <g id="search" sketch:type="MSArtboardGroup" fill="#000000">
            <path d="M365.869128,344.820059 L507.640595,486.591526 C513.453135,492.404066 513.453135,501.828055 507.640595,507.640595 C501.828055,513.453135 492.404066,513.453135 486.591526,507.640595 L344.820059,365.869128 C308.263288,397.567655 260.559394,416.750305 208.375152,416.750305 C93.2927335,416.750305 0,323.457571 0,208.375152 C0,93.2927335 93.2927335,-2.84217094e-14 208.375152,-2.84217094e-14 C323.457571,-2.84217094e-14 416.750305,93.2927335 416.750305,208.375152 C416.750305,260.559394 397.567655,308.263288 365.869128,344.820059 L365.869128,344.820059 Z M208.375152,386.982426 C307.017226,386.982426 386.982426,307.017226 386.982426,208.375152 C386.982426,109.733079 307.017226,29.7678789 208.375152,29.7678789 C109.733079,29.7678789 29.7678789,109.733079 29.7678789,208.375152 C29.7678789,307.017226 109.733079,386.982426 208.375152,386.982426 Z" id="Shape" sketch:type="MSShapeGroup"></path>
        </g>
    </g>
</svg>