<?xml version="1.0" encoding="UTF-8" standalone="no"?>
<svg width="500px" height="500px" viewBox="0 0 500 500" version="1.1" xmlns="http://www.w3.org/2000/svg" xmlns:xlink="http://www.w3.org/1999/xlink" xmlns:sketch="http://www.bohemiancoding.com/sketch/ns">
    <!-- Generator: Sketch 3.4.2 (15857) - http://www.bohemiancoding.com/sketch -->
    <title>search</title>
    <desc>Created with Sketch.</desc>
    <defs></defs>
    <g id="Page-1" stroke="none" stroke-width="1" fill="none" fill-rule="evenodd" sketch:type="MSPage">
        <g id="search" sketch:type="MSArtboardGroup" fill="#000000">
            <path d="M357.294071,336.738339 L495.742769,475.187037 C501.419077,480.863346 501.419077,490.06646 495.742769,495.742769 C490.06646,501.419077 480.863346,501.419077 475.187037,495.742769 L336.738339,357.294071 C301.038367,388.249663 254.452533,406.98272 203.49136,406.98272 C91.1061851,406.98272 0,315.876534 0,203.49136 C0,91.1061851 91.1061851,-2.84217094e-14 203.49136,-2.84217094e-14 C315.876534,-2.84217094e-14 406.98272,91.1061851 406.98272,203.49136 C406.98272,254.452533 388.249663,301.038367 357.294071,336.738339 L357.294071,336.738339 Z M203.49136,377.912525 C299.82151,377.912525 377.912525,299.82151 377.912525,203.49136 C377.912525,107.16121 299.82151,29.0701943 203.49136,29.0701943 C107.16121,29.0701943 29.0701943,107.16121 29.0701943,203.49136 C29.0701943,299.82151 107.16121,377.912525 203.49136,377.912525 Z" id="Shape" sketch:type="MSShapeGroup"></path>
        </g>
    </g>
</svg>