<?xml version="1.0" encoding="UTF-8"?>
<svg width="512px" height="512px" viewBox="0 0 512 512" version="1.1" xmlns="http://www.w3.org/2000/svg" xmlns:xlink="http://www.w3.org/1999/xlink">
    <!-- Generator: Sketch 41.2 (35397) - http://www.bohemiancoding.com/sketch -->
    <title>search</title>
    <desc>Created with Sketch.</desc>
    <defs></defs>
    <g id="Page-1" stroke="none" stroke-width="1" fill="none" fill-rule="evenodd">
        <g id="search" fill="#000000">
            <path d="M366.600267,343.972299 L507.739672,485.111704 C513.991521,491.363554 513.995701,501.495625 507.745939,507.745388 C501.49755,513.993776 491.36401,513.990876 485.112255,507.739121 L343.972892,366.599758 C307.527753,397.862181 260.157231,416.750305 208.375152,416.750305 C93.2927335,416.750305 0,323.457571 0,208.375152 C0,93.2927335 93.2927335,0 208.375152,0 C323.457571,0 416.750305,93.2927335 416.750305,208.375152 C416.750305,260.156951 397.862386,307.527239 366.600267,343.972299 Z M208,384 C305.202116,384 384,305.202116 384,208 C384,110.797884 305.202116,32 208,32 C110.797884,32 32,110.797884 32,208 C32,305.202116 110.797884,384 208,384 Z" id="Combined-Shape"></path>
        </g>
    </g>
</svg>