<?xml version="1.0" encoding="UTF-8" standalone="no"?>
<svg width="500px" height="500px" viewBox="0 0 500 500" version="1.1" xmlns="http://www.w3.org/2000/svg" xmlns:xlink="http://www.w3.org/1999/xlink" xmlns:sketch="http://www.bohemiancoding.com/sketch/ns">
    <!-- Generator: Sketch 3.4.2 (15857) - http://www.bohemiancoding.com/sketch -->
    <title>i-search</title>
    <desc>Created with Sketch.</desc>
    <defs></defs>
    <g id="Page-1" stroke="none" stroke-width="1" fill="none" fill-rule="evenodd" sketch:type="MSPage">
        <g id="i-search" sketch:type="MSArtboardGroup" fill="#000000">
            <path d="M283.283981,293.104908 C280.572006,290.392934 280.572006,285.995955 283.283981,283.283981 C285.995955,280.572006 290.392934,280.572006 293.104908,283.283981 L361.851401,352.030473 C364.563375,354.742448 364.563375,359.139427 361.851401,361.851401 C359.139427,364.563375 354.742448,364.563375 352.030473,361.851401 M222.222222,305.555556 C268.245951,305.555556 305.555556,268.245951 305.555556,222.222222 C305.555556,176.198493 268.245951,138.888889 222.222222,138.888889 C176.198493,138.888889 138.888889,176.198493 138.888889,222.222222 C138.888889,268.245951 176.198493,305.555556 222.222222,305.555556 L222.222222,305.555556 Z M125,222.222222 C125,168.527872 168.527872,125 222.222222,125 C275.916573,125 319.444444,168.527872 319.444444,222.222222 C319.444444,275.916573 275.916573,319.444444 222.222222,319.444444 C168.527872,319.444444 125,275.916573 125,222.222222 Z" id="Shape" sketch:type="MSShapeGroup"></path>
        </g>
    </g>
</svg>