<?xml version="1.0" standalone="no"?><!-- Generator: Gravit.io -->
<svg xmlns="http://www.w3.org/2000/svg" xmlns:xlink="http://www.w3.org/1999/xlink" style="isolation:isolate"
     viewBox="0 0 512 512" width="512" height="512">
    <path
        d=" M 449.5 256.692 C 449.5 249.793 455.101 244.192 462 244.192 C 468.899 244.192 474.5 249.793 474.5 256.692 C 474.5 263.591 468.899 269.192 462 269.192 C 455.101 269.192 449.5 263.591 449.5 256.692 Z  M 418.904 359.002 C 418.904 350.172 426.074 343.002 434.904 343.002 C 443.735 343.002 450.904 350.172 450.904 359.002 C 450.904 367.833 443.735 375.002 434.904 375.002 C 426.074 375.002 418.904 367.833 418.904 359.002 Z  M 340.099 434.308 C 340.099 423.546 348.837 414.808 359.599 414.808 C 370.361 414.808 379.099 423.546 379.099 434.308 C 379.099 445.07 370.361 453.808 359.599 453.808 C 348.837 453.808 340.099 445.07 340.099 434.308 Z  M 231 462 C 231 448.202 242.202 437 256 437 C 269.798 437 281 448.202 281 462 C 281 475.798 269.798 487 256 487 C 242.202 487 231 475.798 231 462 Z  M 12.5 256 C 12.5 235.303 29.303 218.5 50 218.5 C 70.697 218.5 87.5 235.303 87.5 256 C 87.5 276.697 70.697 293.5 50 293.5 C 29.303 293.5 12.5 276.697 12.5 256 Z  M 36.5 152 C 36.5 129.096 55.096 110.5 78 110.5 C 100.904 110.5 119.5 129.096 119.5 152 C 119.5 174.904 100.904 193.5 78 193.5 C 55.096 193.5 36.5 174.904 36.5 152 Z  M 108.5 77 C 108.5 51.888 128.888 31.5 154 31.5 C 179.112 31.5 199.5 51.888 199.5 77 C 199.5 102.112 179.112 122.5 154 122.5 C 128.888 122.5 108.5 102.112 108.5 77 Z  M 123.401 433.616 C 123.401 417.61 136.396 404.616 152.401 404.616 C 168.407 404.616 181.401 417.61 181.401 433.616 C 181.401 449.621 168.407 462.616 152.401 462.616 C 136.396 462.616 123.401 449.621 123.401 433.616 Z  M 43.596 358.31 C 43.596 339.821 58.606 324.81 77.096 324.81 C 95.585 324.81 110.596 339.821 110.596 358.31 C 110.596 376.799 95.585 391.81 77.096 391.81 C 58.606 391.81 43.596 376.799 43.596 358.31 Z  M 206 50 C 206 22.404 228.404 0 256 0 C 283.596 0 306 22.404 306 50 C 306 77.596 283.596 100 256 100 C 228.404 100 206 77.596 206 50 Z "
        fill-rule="evenodd" fill="rgb(0,0,0)"/>
</svg>
