<svg xmlns="http://www.w3.org/2000/svg" width="20" height="20" viewBox="0 0 20 20">
    <path fill="#000" fill-rule="nonzero" d="M6.796 1.667H1.23c-.334 0-.622.082-.866.247C.122 2.08 0 2.274 0 2.5v8.333c0 .226.122.421.365.586.244.165.532.248.866.248h5.438c.03.006.062.01.094.013.2.017.516.273.95.768.433.495.854 1.02 1.262 1.575.567.756.988 1.276 1.262 1.563.15.156.28.365.388.625.108.26.181.47.219.631.037.161.094.424.169.788.058.339.11.604.156.794.046.191.127.417.243.678.117.26.259.477.426.65A.754.754 0 0 0 12.4 20a3.59 3.59 0 0 0 1.031-.137c.304-.09.554-.204.75-.338.196-.135.363-.31.5-.528.138-.217.238-.412.3-.586.063-.173.113-.39.15-.65.038-.261.059-.456.063-.587.004-.13.006-.299.006-.507 0-.33-.042-.662-.125-.996a5.22 5.22 0 0 0-.237-.762 30.12 30.12 0 0 0-.338-.742 4.653 4.653 0 0 0-.125-.235 2.234 2.234 0 0 1-.237-.599H17.6c.65 0 1.21-.247 1.681-.742.471-.495.71-1.08.719-1.758 0-.764-.23-1.41-.688-1.94.125-.382.188-.712.188-.99a2.78 2.78 0 0 0-.537-1.783 2.782 2.782 0 0 0 0-1.524 2.561 2.561 0 0 0-.676-1.224c.075-.972-.129-1.757-.612-2.356C17.142.356 16.321.017 15.213 0H13.6c-.55 0-1.15.067-1.8.202-.65.134-1.156.26-1.519.377-.362.118-.864.29-1.506.515-1.025.373-1.683.564-1.975.573h-.004z"/>
</svg>
