<?xml version="1.0" encoding="UTF-8" standalone="no"?>
<svg width="500px" height="500px" viewBox="0 0 500 500" version="1.1" xmlns="http://www.w3.org/2000/svg" xmlns:xlink="http://www.w3.org/1999/xlink" xmlns:sketch="http://www.bohemiancoding.com/sketch/ns">
    <!-- Generator: Sketch 3.4.2 (15857) - http://www.bohemiancoding.com/sketch -->
    <title>trash</title>
    <desc>Created with Sketch.</desc>
    <defs></defs>
    <g id="Page-1" stroke="none" stroke-width="1" fill="none" fill-rule="evenodd" sketch:type="MSPage">
        <g id="trash" sketch:type="MSArtboardGroup" fill="#000000">
            <path d="M141.066667,62.5 L16,62.5 L16,93.75 L49.5,93.75 L78.5333333,500 L94.1666667,500 L406.833333,500 L422.466667,500 L451.5,93.75 L485,93.75 L485,62.5 L359.933333,62.5 L359.933333,31.25 L391.2,31.25 L391.2,0 L109.8,0 L109.8,31.25 L141.066667,31.25 L141.066667,62.5 Z M172.333333,62.5 L328.666667,62.5 L328.666667,31.25 L172.333333,31.25 L172.333333,62.5 Z M420.233333,93.75 L80.7666667,93.75 L107.566667,468.75 L393.433333,468.75 L420.233333,93.75 Z M172.333333,156.25 L203.6,156.25 L203.6,406.25 L172.333333,406.25 L172.333333,156.25 Z M234.866667,156.25 L266.133333,156.25 L266.133333,406.562507 L234.866667,406.562507 L234.866667,156.25 Z M297.4,156.25 L328.666667,156.25 L328.666667,406.562507 L297.4,406.562507 L297.4,156.25 Z" id="Rectangle-28" sketch:type="MSShapeGroup"></path>
        </g>
    </g>
</svg>