<?xml version="1.0" encoding="UTF-8" standalone="no"?>
<svg width="512px" height="512px" viewBox="0 0 512 512" version="1.1" xmlns="http://www.w3.org/2000/svg" xmlns:xlink="http://www.w3.org/1999/xlink" xmlns:sketch="http://www.bohemiancoding.com/sketch/ns">
    <!-- Generator: Sketch 3.4.2 (15857) - http://www.bohemiancoding.com/sketch -->
    <title>trash</title>
    <desc>Created with Sketch.</desc>
    <defs></defs>
    <g id="Page-1" stroke="none" stroke-width="1" fill="none" fill-rule="evenodd" sketch:type="MSPage">
        <g id="trash" sketch:type="MSArtboardGroup" fill="#000000">
            <path d="M128,64 L0,64 L0,96 L33.688,96 L63.4181333,512 L87.9266667,512 L394.0888,512 L419.605867,512 L449.336,96 L480,96 L480,64 L352.017067,64 L352.017067,32 L384.1536,32 L384.1536,0 L96,0 L96,32 L128,32 L128,64 Z M160.017067,64 L320,64 L320,32 L160.017067,32 L160.017067,64 Z M417.318933,96 L65.7050667,96 L93.1482667,480 L389.875733,480 L417.318933,96 Z M160,160 L192.017067,160 L192.017067,416 L160,416 L160,160 Z M224,160 L256.017067,160 L256.017067,416.320007 L224,416.320007 L224,160 Z M288,160 L320.017067,160 L320.017067,416.320007 L288,416.320007 L288,160 Z" id="Rectangle-28" sketch:type="MSShapeGroup"></path>
        </g>
    </g>
</svg>