<?xml version="1.0" encoding="UTF-8" standalone="no"?>
<svg width="512px" height="512px" viewBox="0 0 512 512" version="1.1" xmlns="http://www.w3.org/2000/svg" xmlns:xlink="http://www.w3.org/1999/xlink" xmlns:sketch="http://www.bohemiancoding.com/sketch/ns">
    <!-- Generator: Sketch 3.5.2 (25235) - http://www.bohemiancoding.com/sketch -->
    <title>user</title>
    <desc>Created with Sketch.</desc>
    <defs></defs>
    <g id="Page-1" stroke="none" stroke-width="1" fill="none" fill-rule="evenodd" sketch:type="MSPage">
        <g id="user" sketch:type="MSArtboardGroup" fill="#000000">
            <g id="Oval-275-+-Triangle-2" sketch:type="MSLayerGroup" transform="translate(50.000000, 0.000000)">
                <path d="M206,277.166667 C282.491438,277.166667 344.5,215.158105 344.5,138.666667 C344.5,62.1752288 282.491438,0.166666667 206,0.166666667 C129.508562,0.166666667 67.5,62.1752288 67.5,138.666667 C67.5,215.158105 129.508562,277.166667 206,277.166667 L206,277.166667 Z M206,256.166667 C141.106542,256.166667 88.5,203.560125 88.5,138.666667 C88.5,73.7732086 141.106542,21.1666667 206,21.1666667 C270.893458,21.1666667 323.5,73.7732086 323.5,138.666667 C323.5,203.560125 270.893458,256.166667 206,256.166667 L206,256.166667 Z" id="Shape" sketch:type="MSShapeGroup"></path>
                <path d="M332.701095,290.65043 L387.840019,502.016305 L398,488.865875 L14,488.865875 L24.1599814,502.016305 L79.2989054,290.65043 L62.2269506,295.904089 C101.762365,330.477046 152.392286,349.865875 206,349.865875 C259.607717,349.865875 310.237637,330.477045 349.773061,295.904079 L332.701095,290.65043 L332.701095,290.65043 Z M353.021057,285.34957 L348.733982,268.915781 L335.949103,280.095911 C300.205568,311.352943 254.474166,328.865875 206,328.865875 C157.525836,328.865875 111.794433,311.352944 76.0508975,280.095911 L63.2660182,268.915781 L58.9789427,285.34957 L3.84001864,496.715446 L0.409471704,509.865875 L14,509.865875 L398,509.865875 L411.590528,509.865875 L408.159981,496.715446 L353.021057,285.34957 L353.021057,285.34957 Z" id="Shape" sketch:type="MSShapeGroup"></path>
            </g>
        </g>
    </g>
</svg>