<svg xmlns="http://www.w3.org/2000/svg" width="864" height="512">
  <path fill-rule="evenodd" d="M119.94 295C66.48 330.1 32 385.36 32 447.53v64h32v-64c0-53.56 32.07-101.7 81.63-130.87-9.2-6.46-17.78-13.72-25.7-21.66zM256 288c70.7 0 128-57.3 128-128S326.7 32 256 32 128 89.3 128 160s57.3 128 128 128zm0 32c-88.37 0-160-71.63-160-160S167.63 0 256 0s160 71.63 160 160-71.63 160-160 160zm575.63 127.53v64h-32v-64c0-53.56-32.07-101.7-81.63-130.87 9.2-6.46 17.8-13.72 25.7-21.66 53.46 35.1 87.93 90.36 87.93 152.53zM468.1 338.1c8.92-7.94 18.82-15.13 29.53-21.44-9.2-6.46-17.78-13.72-25.7-21.66-8.37 5.5-16.3 11.5-23.68 17.94 7.35 7.9 14 16.32 19.84 25.17zM480 447.53v64h-32v-64c0-53.56-32.07-101.7-81.63-130.87 9.2-6.46 17.8-13.72 25.7-21.66C445.53 330.1 480 385.36 480 447.53zM608 288c70.7 0 128-57.3 128-128S678.7 32 608 32 480 89.3 480 160s57.3 128 128 128zm0 32c-88.37 0-160-71.63-160-160S519.63 0 608 0s160 71.63 160 160-71.63 160-160 160z"/>
</svg>
