<svg xmlns="http://www.w3.org/2000/svg" width="512" height="512">
  <path fill-rule="evenodd" d="M480 447.53v64h-32v-64c0-53.56-32.07-101.7-81.63-130.87 9.2-6.46 17.8-13.72 25.7-21.66C445.53 330.1 480 385.36 480 447.53zM119.94 295C66.48 330.1 32 385.36 32 447.53v64h32v-64c0-53.56 32.07-101.7 81.63-130.87-9.2-6.46-17.78-13.72-25.7-21.66zM256 288c70.7 0 128-57.3 128-128S326.7 32 256 32 128 89.3 128 160s57.3 128 128 128zm0 32c-88.37 0-160-71.63-160-160S167.63 0 256 0s160 71.63 160 160-71.63 160-160 160z"/>
</svg>
