<?xml version="1.0" encoding="UTF-8" standalone="no"?>
<svg width="552px" height="576px" viewBox="0 0 552 576" version="1.1" xmlns="http://www.w3.org/2000/svg" xmlns:xlink="http://www.w3.org/1999/xlink">
    <!-- Generator: Sketch 3.6.1 (26313) - http://www.bohemiancoding.com/sketch -->
    <title>user</title>
    <desc>Created with Sketch.</desc>
    <defs></defs>
    <g id="Page-1" stroke="none" stroke-width="1" fill="none" fill-rule="evenodd">
        <g id="user" fill="#000000">
            <path d="M80,552 L473.676437,552.360972 L421.196811,359.878897 C421.196811,359.878897 365,407.999998 277,408 C189,408.000002 132.65373,359.766291 132.65373,359.766291 L80,552 Z M119.843458,316.182563 C159.228559,357.937583 215.070678,384 277,384 C338.922881,384 394.759824,357.943004 434.144252,316.195591 L505,576 L47.9999999,576 L119.843458,316.182563 Z" id="Shape"></path>
            <path d="M276,312 C362.156421,312 432,242.156421 432,156 C432,69.843579 362.156421,0 276,0 C189.843579,0 120,69.843579 120,156 C120,242.156421 189.843579,312 276,312 L276,312 Z M276,288.34657 C202.907007,288.34657 143.65343,229.092993 143.65343,156 C143.65343,82.9070075 202.907007,23.6534296 276,23.6534296 C349.092993,23.6534296 408.34657,82.9070075 408.34657,156 C408.34657,229.092993 349.092993,288.34657 276,288.34657 L276,288.34657 Z" id="Shape"></path>
        </g>
    </g>
</svg>