<?xml version="1.0" encoding="UTF-8" standalone="no"?>
<svg width="512px" height="512px" viewBox="0 0 512 512" version="1.1" xmlns="http://www.w3.org/2000/svg" xmlns:xlink="http://www.w3.org/1999/xlink">
    <!-- Generator: Sketch 3.6.1 (26313) - http://www.bohemiancoding.com/sketch -->
    <title>warning</title>
    <desc>Created with Sketch.</desc>
    <defs></defs>
    <g id="Page-1" stroke="none" stroke-width="1" fill="none" fill-rule="evenodd">
        <g id="warning" fill="#000000">
            <path d="M288,149.735849 C288,194.281145 286.511643,235.068997 283.534884,272.100629 C280.558125,309.132261 276.837232,346.431678 272.372093,384 L208.372093,384 C203.410828,346.431678 199.441875,308.99809 196.465116,271.698113 C193.488357,234.398136 192,193.744455 192,149.735849 L192,0 L288,0 L288,149.735849 Z M296,456.352201 C296,472.788342 290.633387,486.171856 279.9,496.503145 C269.166613,506.834433 255.866746,512 240,512 C224.599923,512 211.416722,506.834433 200.45,496.503145 C189.483278,486.171856 184,472.788342 184,456.352201 C184,439.91606 189.483278,426.415147 200.45,415.849057 C211.416722,405.282966 224.599923,400 240,400 C255.866746,400 269.166613,405.282966 279.9,415.849057 C290.633387,426.415147 296,439.91606 296,456.352201 L296,456.352201 Z" id="!"></path>
        </g>
    </g>
</svg>