<svg width="40" height="40" viewBox="0 0 40 40" xmlns="http://www.w3.org/2000/svg"><title>Error</title><g fill="none" fill-rule="evenodd"><path d="M0 0h40v40H0z"/><path d="M19.99 22.79c-.963.926-1.89 1.775-2.78 2.546-1.314 1.14-2.66 2.266-4.037 3.38l-1.886-1.886c1.1-1.39 2.223-2.75 3.372-4.073.772-.89 1.616-1.814 2.53-2.766-.925-.963-1.774-1.89-2.545-2.78-1.14-1.314-2.266-2.66-3.38-4.037l1.886-1.886c1.392 1.1 2.75 2.223 4.074 3.372.892.772 1.814 1.616 2.766 2.53.964-.925 1.89-1.774 2.78-2.545 1.316-1.14 2.662-2.266 4.038-3.38l1.886 1.886c-1.1 1.392-2.223 2.75-3.372 4.074-.773.892-1.617 1.814-2.53 2.766.924.964 1.773 1.89 2.544 2.78 1.14 1.316 2.266 2.662 3.38 4.038l-1.886 1.886c-1.39-1.1-2.75-2.223-4.073-3.372-.89-.773-1.814-1.617-2.766-2.53zm0-2.786l-.013-.013.014-.013.014.014-.013.014z" fill="#FF4A25"/></g></svg>