<svg width="40" height="40" viewBox="0 0 40 40" xmlns="http://www.w3.org/2000/svg"><title>Close</title><g fill="none" fill-rule="evenodd"><path d="M0 0h40v40H0z"/><path d="M19.99 21.77c-.613.59-1.202 1.13-1.768 1.62-.836.724-1.692 1.44-2.568 2.15l-1.2-1.2c.7-.885 1.414-1.748 2.145-2.59.49-.568 1.027-1.154 1.61-1.76-.59-.613-1.13-1.202-1.62-1.768-.724-.836-1.44-1.692-2.15-2.568l1.2-1.2c.885.7 1.748 1.414 2.59 2.145.568.49 1.154 1.027 1.76 1.61.613-.59 1.202-1.13 1.768-1.62.836-.724 1.692-1.44 2.568-2.15l1.2 1.2c-.7.885-1.414 1.748-2.145 2.59-.49.568-1.027 1.154-1.61 1.76.59.613 1.13 1.202 1.62 1.768.724.836 1.44 1.692 2.15 2.568l-1.2 1.2c-.885-.7-1.748-1.414-2.59-2.145-.568-.49-1.154-1.027-1.76-1.61zm0-1.772l-.008-.008.008-.008.008.008-.008.008z" fill="#4A4A4A"/></g></svg>