<svg width="40" height="40" viewBox="0 0 40 40" xmlns="http://www.w3.org/2000/svg"><title>Close</title><g fill="none" fill-rule="evenodd"><path d="M0 0h40v40H0z"/><path d="M19.99 21.77a47.124 47.124 0 0 1-1.768 1.62 98.72 98.72 0 0 1-2.568 2.15l-1.2-1.2c.7-.885 1.414-1.748 2.145-2.59a47.656 47.656 0 0 1 1.61-1.76 47.124 47.124 0 0 1-1.62-1.768 98.72 98.72 0 0 1-2.15-2.568l1.2-1.2c.885.7 1.748 1.414 2.59 2.145.568.49 1.154 1.027 1.76 1.61a47.124 47.124 0 0 1 1.768-1.62 98.72 98.72 0 0 1 2.568-2.15l1.2 1.2c-.7.885-1.414 1.748-2.145 2.59a47.656 47.656 0 0 1-1.61 1.76 47.124 47.124 0 0 1 1.62 1.768 98.72 98.72 0 0 1 2.15 2.568l-1.2 1.2a73.053 73.053 0 0 1-2.59-2.145 47.656 47.656 0 0 1-1.76-1.61zm0-1.772l-.008-.008.008-.008.008.008-.008.008z" fill="#4A4A4A"/></g></svg>