<svg width="14" height="14" viewBox="0 0 14 14" xmlns="http://www.w3.org/2000/svg"><title>Logo</title><defs><linearGradient x1="84.286%" y1="108.994%" x2="15.698%" y2="-9.002%" id="a"><stop stop-color="#F47026" offset="0%"/><stop stop-color="#F47026" offset="37.534%"/><stop stop-color="#FBC195" offset="94.923%"/><stop stop-color="#FBC195" offset="94.923%"/><stop stop-color="#FBC195" offset="100%"/></linearGradient><linearGradient x1="0%" y1=".001%" y2=".001%" id="b"><stop stop-color="#F57D34" offset="0%"/><stop stop-color="#F47026" offset="53.38%"/><stop stop-color="#F47026" offset="53.38%"/><stop stop-color="#F47026" offset="100%"/></linearGradient></defs><g fill="none" fill-rule="evenodd"><path d="M2.119.093C.673.093-.071 3.984.007 7.637H0c.077 3.206.797 6.28 2.223 6.28 5.475 0 11.712-5.087 11.712-6.91 0-.457-.472-1.334-1.104-2.027h-.003c-.043-.05-.089-.098-.134-.148C10.744 2.688 6.698.093 2.119.093z" fill="url(#a)"/><path d="M.001 7.636c.077 3.206.797 6.28 2.224 6.28 5.474 0 11.71-5.085 11.71-6.908 0-.456-.473-1.336-1.105-2.028C8.554 7.507 4.137 8.594.001 7.636" fill="url(#b)"/></g></svg>