<svg xmlns="http://www.w3.org/2000/svg" xmlns:xlink="http://www.w3.org/1999/xlink" width="1024" height="197" viewBox="-4.8656625 -4.8656625 895.557925 171.920075"><defs><linearGradient x2="1" id="b" gradientUnits="userSpaceOnUse" gradientTransform="scale(-182.95837 182.95837) rotate(-60 .518 1.008)"><stop offset="0" stop-color="#f47026"/><stop offset=".375" stop-color="#f47026"/><stop offset=".949" stop-color="#fbc195"/><stop offset=".949" stop-color="#fbc195"/><stop offset="1" stop-color="#fbc195"/></linearGradient><linearGradient x2="1" id="d" gradientUnits="userSpaceOnUse" gradientTransform="matrix(133.37162 0 0 -133.37162 .012 75.374)"><stop offset="0" stop-color="#f57d34"/><stop offset=".534" stop-color="#f47026"/><stop offset=".534" stop-color="#f47026"/><stop offset="1" stop-color="#f47026"/></linearGradient><linearGradient x2="1" id="a" gradientUnits="userSpaceOnUse" gradientTransform="scale(-182.95837 182.95837) rotate(-60 .518 1.008)"><stop offset="0" stop-color="#f47026"/><stop offset=".375" stop-color="#f47026"/><stop offset=".949" stop-color="#fbc195"/><stop offset=".949" stop-color="#fbc195"/><stop offset="1" stop-color="#fbc195"/></linearGradient><linearGradient x2="1" id="c" xlink:href="#a" gradientUnits="userSpaceOnUse" gradientTransform="scale(-182.95837 182.95837) rotate(-60 .518 1.008)"/></defs><path d="M366.915 43.101c-6.713-3.692-16.695-5.488-30.516-5.493-18.911.007-36.466 3.93-43.11 6.406-1.5.481-3.105 1.776-3.131 3.992l.004.489 1.861 9.405.046.175c.583 1.915 2.178 2.774 3.63 2.774h.007c.468-.02.832-.11 1.17-.196l3.148-.735c8.237-2.063 20.689-5.178 34.592-5.178 8.434 0 14.104.735 17.905 2.34 6.167 2.335 6.205 6.321 6.268 12.92v9.87a214.51 214.51 0 0 0-3.735-.025c-6.81 0-20.2.316-33.369 2.428-20.095 3.086-36.722 7.896-36.617 35.583.007 35.148 32.607 35.214 48.273 35.246h.002c10.635-.002 20.448-1.572 26.857-2.897 14.625-3.396 18.358-8.04 18.162-22.573V69.187c.021-8.913.048-20.007-11.447-26.086m-8.03 90.285c-7.783 2.526-16.3 3.805-25.32 3.805v.821l-.01-.82c-14.413-.11-28.488-1.76-28.505-20.143.092-14.622 7.893-16.362 17.768-18.567l.685-.152c8.785-1.878 30.837-2.23 35.385-2.283l-.002 37.34zm182.442-64.199v58.445c.196 14.533-3.539 19.177-18.162 22.573-6.41 1.325-16.222 2.895-26.858 2.897-15.667-.032-48.267-.098-48.276-35.246-.104-27.687 16.524-32.497 36.619-35.584 13.169-2.11 26.559-2.427 33.367-2.427 1.838 0 3.03.012 3.737.025V70c-.063-6.599-.102-10.585-6.268-12.92-3.801-1.605-9.471-2.34-17.905-2.34-13.905 0-26.355 3.115-34.592 5.177l-3.148.735a5.398 5.398 0 0 1-1.171.197h-.006c-1.453 0-3.048-.859-3.63-2.774l-.046-.175-1.862-9.405-.004-.489c.027-2.216 1.632-3.511 3.132-3.992 6.642-2.477 24.198-6.399 43.11-6.407 13.82.005 23.802 1.802 30.516 5.494 11.494 6.079 11.469 17.173 11.447 26.086m-19.473 26.86c-4.55.053-26.602.405-35.387 2.283l-.683.152c-9.875 2.205-17.677 3.945-17.77 18.567.018 18.383 14.093 20.032 28.506 20.142l.011.821v-.82c9.02 0 17.536-1.28 25.32-3.806l.002-37.339zm314.673-58.44c-45.4.062-49.25 29.892-49.292 57.852.042 27.857 3.892 57.582 49.292 57.643h.003c45.365-.06 49.233-29.706 49.297-57.647-.048-29.238-3.897-57.786-49.3-57.848m.002 99.177c-27.536-.122-28.92-14.257-29.108-41.32.188-27.213 1.57-41.419 29.105-41.539 27.543.12 28.923 14.326 29.11 41.526-.187 27.076-1.57 41.211-29.107 41.333m-81.478 12.205l-1.186.3c-6.349 1.61-15.047 3.813-30.292 3.813h-.034c-42.017-.06-50.264-21.256-50.31-57.847.051-41.969 13.355-57.591 49.086-57.648 12.605 0 21.29 1.63 27.522 3.135l-.038-33.803c-.052-1.483.619-3.424 4.128-4.093L765.087 0h.608c2.564.064 3.472 2.349 3.477 4.285v127.014c.172 8.02-.772 14.901-14.12 17.69m-5.243-91.979c-3.726-.948-14.127-3.289-25.84-3.289-21.512.198-30.535 6.041-30.76 41.741.253 39.2 11.925 41.32 30.953 41.525l.011.822v-.822c11.842 0 22.002-2.468 25.626-3.467l.01-76.51zm-100.292 93.445h-9.982c-2.673-.004-4.69-2.024-4.696-4.696V70.408c-.181-12.747-3.99-16.292-17.715-16.483-15.529 0-31.246 3.896-36.43 5.309v86.522c-.005 2.72-1.894 4.695-4.491 4.699h-10.184c-2.675-.004-4.694-2.024-4.697-4.696V61.244c-.15-7.823.586-13.23 11.713-16.832 10.653-3.678 31.042-6.797 44.508-6.805 25.667.033 36.631 9.293 36.666 30.967v77.182c-.004 2.675-2.022 4.695-4.692 4.699m-226.074 2.036h.009c5.736-.112 9.979-1.246 11.64-3.111.59-.661.862-1.425.789-2.179-.039-.62-.039-.62-1.613-7.991l-.037-.176c-.342-1.928-1.717-2.804-2.85-2.804-.107 0-.21.006-.154.014 0 0-1.441-.07-2.864-.07h-.014c-4.088-.13-7.477-.725-7.547-6.709V4.286C420.798 2.2 419.539.058 417.122 0l-.712.006-11.178 2.865c-1.905.195-3.888 1.549-3.803 4.065v122.938c.021 14.558 7.835 22.59 22.005 22.617h.01zm-157.888-2.036h-80.092c-2.674-.004-4.693-2.024-4.698-4.696v-9.778c-.055-2.396.713-3.464 2.19-5.292l63.75-74.115h-62.463c-2.675-.006-4.694-2.025-4.698-4.696v-6.925c.004-2.673 2.023-4.692 4.696-4.697h80.908c2.672.005 4.691 2.024 4.696 4.695v9.98c.039 1.804-.586 3.334-2.026 4.939l-63.911 74.265h61.647c2.674.008 4.693 2.025 4.698 4.697v6.924c-.005 2.675-2.024 4.695-4.697 4.699" fill="#231f20"/><path d="M20.281 27.906C6.44 27.906-.679 65.703.063 101.187c-.02-.004-.043.006-.063 0 .74 31.147 7.628 61 21.281 61 52.397 0 112.094-49.412 112.094-67.125 0-4.43-4.514-12.957-10.563-19.687-.007.005-.023-.005-.03 0-.412-.478-.848-.954-1.282-1.438-18.665-20.825-57.388-46.03-101.219-46.03z" fill="url(#b)"/><path d="M.053 101.186c39.367 9.245 81.396-1.162 122.113-25.43l.615-.368a96.043 96.043 0 0 0-1.266-1.443C102.85 53.12 64.104 27.909 20.273 27.909 6.43 27.909-.69 65.7.053 101.186M122.78 75.388c.01-.004.016-.01.024-.014l-.024.014z" fill="url(#c)"/><path d="M.011 101.177c.74 31.147 7.63 61.012 21.284 61.012 52.396 0 112.089-49.399 112.089-67.111 0-4.432-4.53-12.974-10.579-19.704C81.876 99.923 39.6 110.488.011 101.177" fill="url(#d)"/></svg>