<svg viewBox="0 0 32 32" xmlns="http://www.w3.org/2000/svg"><g fill="none" fill-rule="evenodd"><path d="m7.229 31.5c-1.141 0-1.774-.268-2.112-.464-.47-.272-1.334-.964-2.108-3.01-1.242-3.287-1.976-7.298-2.01-12.01v-.017c.033-4.715.767-8.727 2.01-12.01.774-2.05 1.638-2.743 2.108-3.01.338-.197.97-.465 2.11-.465.434 0 .944.041 1.539.136 3.449.562 7.269 1.928 11.343 4.258l.015.007c4.04 2.386 7.128 5.03 9.336 7.756 1.377 1.701 1.541 2.798 1.541 3.344 0 .543-.164 1.644-1.541 3.343-2.208 2.726-5.294 5.371-9.336 7.757l-.015.008c-4.074 2.329-7.894 3.695-11.343 4.257-.595.098-1.103.135-1.537.135" fill="#ff6900"/></g></svg>