<svg width="40" height="40" viewBox="0 0 40 40" xmlns="http://www.w3.org/2000/svg"><title>Error</title><g fill="none" fill-rule="evenodd"><path d="M0 0h40v40H0z"/><path d="M19.99 22.79a74.095 74.095 0 0 1-2.78 2.546 155.22 155.22 0 0 1-4.037 3.38l-1.886-1.886c1.1-1.39 2.223-2.75 3.372-4.073a74.93 74.93 0 0 1 2.53-2.766 74.095 74.095 0 0 1-2.545-2.78 155.22 155.22 0 0 1-3.38-4.037l1.886-1.886c1.392 1.1 2.75 2.223 4.074 3.372a74.93 74.93 0 0 1 2.766 2.53 74.095 74.095 0 0 1 2.78-2.545 155.22 155.22 0 0 1 4.038-3.38l1.886 1.886c-1.1 1.392-2.223 2.75-3.372 4.074a74.93 74.93 0 0 1-2.53 2.766c.924.964 1.773 1.89 2.544 2.78a155.22 155.22 0 0 1 3.38 4.038l-1.886 1.886c-1.39-1.1-2.75-2.223-4.073-3.372a74.93 74.93 0 0 1-2.766-2.53zm0-2.786l-.013-.013.014-.013.014.014-.013.014z" fill="#FF4A25"/></g></svg>