<?xml version="1.0" encoding="UTF-8" standalone="no"?>
<svg width="40px" height="40px" viewBox="0 0 40 40" version="1.1" xmlns="http://www.w3.org/2000/svg" xmlns:xlink="http://www.w3.org/1999/xlink" xmlns:sketch="http://www.bohemiancoding.com/sketch/ns">
    <!-- Generator: Sketch 3.3.2 (12043) - http://www.bohemiancoding.com/sketch -->
    <title>Error</title>
    <desc>Created with Sketch.</desc>
    <defs></defs>
    <g id="Alerts" stroke="none" stroke-width="1" fill="none" fill-rule="evenodd" sketch:type="MSPage">
        <g id="Error" sketch:type="MSArtboardGroup">
            <rect id="Rectangle-1" sketch:type="MSShapeGroup" x="0" y="0" width="40" height="40"></rect>
            <path d="M21.9711051,21.970717 C21.9439647,23.3063711 21.8884364,24.5614092 21.8045195,25.7358491 C21.6804879,27.4717068 21.5254507,29.220117 21.3394032,30.9811321 L18.6727366,30.9811321 C18.4660172,29.220117 18.3006442,27.4654175 18.1766125,25.7169811 C18.0930938,24.5396419 18.0376948,23.2910224 18.0104151,21.9711051 L18.0104151,21.9711051 C16.6747609,21.9439647 15.4197229,21.8884364 14.245283,21.8045195 C12.5094253,21.6804879 10.7610151,21.5254507 9,21.3394032 L9,18.6727366 C10.7610151,18.4660172 12.5157145,18.3006442 14.2641509,18.1766125 C15.4414901,18.0930938 16.6901097,18.0376948 18.0100269,18.0104151 C18.0371674,16.6747609 18.0926957,15.4197229 18.1766125,14.245283 C18.3006442,12.5094253 18.4556814,10.7610151 18.6417288,9 L21.3083955,9 C21.5151149,10.7610151 21.6804879,12.5157145 21.8045195,14.2641509 C21.8880383,15.4414901 21.9434373,16.6901097 21.970717,18.0100269 C23.3063711,18.0371674 24.5614092,18.0926957 25.7358491,18.1766125 C27.4717068,18.3006442 29.220117,18.4556814 30.9811321,18.6417288 L30.9811321,21.3083955 C29.220117,21.5151149 27.4654175,21.6804879 25.7169811,21.8045195 C24.5396419,21.8880383 23.2910224,21.9434373 21.9711051,21.970717 Z M20,20 L19.9811321,20 L19.9811321,19.9811321 L20,19.9811321 L20,20 Z" id="!" fill="#FF4A25" sketch:type="MSShapeGroup" transform="translate(19.990566, 19.990566) rotate(-315.000000) translate(-19.990566, -19.990566) "></path>
        </g>
    </g>
</svg>