<?xml version="1.0" encoding="UTF-8" standalone="no"?>
<svg width="36px" height="36px" viewBox="0 0 36 36" version="1.1" xmlns="http://www.w3.org/2000/svg" xmlns:xlink="http://www.w3.org/1999/xlink" xmlns:sketch="http://www.bohemiancoding.com/sketch/ns">
    <!-- Generator: Sketch 3.3.3 (12072) - http://www.bohemiancoding.com/sketch -->
    <title>Menu</title>
    <desc>Created with Sketch.</desc>
    <defs></defs>
    <g id="Portal" stroke="none" stroke-width="1" fill="none" fill-rule="evenodd" sketch:type="MSPage">
        <g id="Menu" sketch:type="MSArtboardGroup" fill="#979797">
            <path d="M10.5,11 L25.5,11 L26,11 L26,10 L25.5,10 L10.5,10 L10,10 L10,11 L10.5,11 L10.5,11 Z" id="Shape" sketch:type="MSShapeGroup"></path>
            <path d="M10.5,18 L25.5,18 L26,18 L26,17 L25.5,17 L10.5,17 L10,17 L10,18 L10.5,18 L10.5,18 Z" id="Shape" sketch:type="MSShapeGroup"></path>
            <path d="M10.5,25 L25.5,25 L26,25 L26,24 L25.5,24 L10.5,24 L10,24 L10,25 L10.5,25 L10.5,25 Z" id="Shape" sketch:type="MSShapeGroup"></path>
        </g>
    </g>
</svg>