<?xml version="1.0" encoding="UTF-8" standalone="no"?>
<svg width="36px" height="36px" viewBox="0 0 36 36" version="1.1" xmlns="http://www.w3.org/2000/svg" xmlns:xlink="http://www.w3.org/1999/xlink" xmlns:sketch="http://www.bohemiancoding.com/sketch/ns">
    <!-- Generator: Sketch 3.3.3 (12072) - http://www.bohemiancoding.com/sketch -->
    <title>History</title>
    <desc>Created with Sketch.</desc>
    <defs></defs>
    <g id="CMS" stroke="none" stroke-width="1" fill="none" fill-rule="evenodd" sketch:type="MSPage">
        <g id="History" sketch:type="MSArtboardGroup">
            <rect id="Rectangle-18" fill-opacity="0" fill="#FFFFFF" sketch:type="MSShapeGroup" x="0" y="0" width="36" height="36"></rect>
            <g id="Oval-6-Copy-+-Line-+-Line-2" sketch:type="MSLayerGroup" transform="translate(10.000000, 10.000000)">
                <path d="M8,16 C12.418278,16 16,12.418278 16,8 C16,3.581722 12.418278,0 8,0 C3.581722,0 0,3.581722 0,8 C0,12.418278 3.581722,16 8,16 Z M8,13.7142857 C11.1559129,13.7142857 13.7142857,11.1559129 13.7142857,8 C13.7142857,4.84408714 11.1559129,2.28571429 8,2.28571429 C4.84408714,2.28571429 2.28571429,4.84408714 2.28571429,8 C2.28571429,11.1559129 4.84408714,13.7142857 8,13.7142857 Z" id="Oval-6-Copy" fill="#4A4A4A" sketch:type="MSShapeGroup"></path>
                <path d="M8,8 L8,5" id="Line" stroke="#4A4A4A" stroke-width="2" stroke-linecap="square" sketch:type="MSShapeGroup"></path>
                <path d="M8,8 L10,8" id="Line-2" stroke="#4A4A4A" stroke-width="2" stroke-linecap="square" sketch:type="MSShapeGroup"></path>
            </g>
        </g>
    </g>
</svg>