<?xml version="1.0" encoding="utf-8"?>
<!-- Generator: Adobe Illustrator 16.0.1, SVG Export Plug-In . SVG Version: 6.00 Build 0)  -->
<!DOCTYPE svg PUBLIC "-//W3C//DTD SVG 1.1//EN" "http://www.w3.org/Graphics/SVG/1.1/DTD/svg11.dtd">
<svg version="1.1" id="Layer_1" xmlns="http://www.w3.org/2000/svg" xmlns:xlink="http://www.w3.org/1999/xlink" x="0px" y="0px"
	 width="14px" height="14px" viewBox="0 0 14 14" enable-background="new 0 0 14 14" xml:space="preserve">
<path fill="#010101" d="M12.667,8.344C11.946,7.072,12.38,5.441,13.638,4.7l-1.354-2.383C11.899,2.547,11.45,2.68,10.97,2.68
	c-1.445,0-2.617-1.2-2.617-2.68H5.649C5.652,0.457,5.54,0.92,5.3,1.343C4.578,2.616,2.973,3.048,1.714,2.311L0.362,4.693
	c0.389,0.225,0.727,0.555,0.965,0.978c0.721,1.271,0.29,2.897-0.963,3.64l1.352,2.383c0.385-0.228,0.833-0.358,1.309-0.358
	c1.441,0,2.61,1.192,2.617,2.665h2.705c0-0.452,0.111-0.909,0.35-1.329c0.721-1.27,2.32-1.704,3.578-0.971l1.354-2.383
	C13.241,9.092,12.905,8.764,12.667,8.344L12.667,8.344z M7,9.835C5.46,9.835,4.213,8.566,4.213,7C4.213,5.435,5.46,4.166,7,4.166
	c1.54,0,2.784,1.269,2.784,2.834C9.784,8.566,8.54,9.835,7,9.835z"/>
<g id="user" display="none">
	<path display="inline" fill-rule="evenodd" clip-rule="evenodd" fill="#010101" d="M7-0.005c1.93,0,3.496,1.569,3.496,3.503
		C10.496,5.431,8.93,7,7,7C5.069,7,3.503,5.431,3.503,3.498C3.503,1.564,5.069-0.005,7-0.005z"/>
	<path display="inline" fill-rule="evenodd" clip-rule="evenodd" fill="#010101" d="M6,8c0,0,0.236,0.219,1.002,0.219
		S8.016,8,8.016,8c5.031,0,5.031,6,5.031,6H1.016C1.016,14,1.016,8,6,8z"/>
</g>
</svg>
