<?xml version="1.0" encoding="UTF-8" standalone="no"?>
<svg width="36px" height="36px" viewBox="0 0 36 36" version="1.1" xmlns="http://www.w3.org/2000/svg" xmlns:xlink="http://www.w3.org/1999/xlink" xmlns:sketch="http://www.bohemiancoding.com/sketch/ns">
    <!-- Generator: Sketch 3.3.1 (12002) - http://www.bohemiancoding.com/sketch -->
    <title>Eye</title>
    <desc>Created with Sketch.</desc>
    <defs></defs>
    <g id="Page-1" stroke="none" stroke-width="1" fill="none" fill-rule="evenodd" sketch:type="MSPage">
        <g id="Eye" sketch:type="MSArtboardGroup">
            <rect id="Rectangle-18" fill-opacity="0" fill="#FFFFFF" sketch:type="MSShapeGroup" x="0" y="0" width="36" height="36"></rect>
            <path d="M27.3466066,18.25 C26.6370016,15.6719785 22.7232838,13.6999998 18.0016064,13.6999998 C13.2799289,13.6999998 9.36621112,15.6719785 8.6566061,18.25" id="Oval-24-Copy-2" stroke="#25AAFF" sketch:type="MSShapeGroup"></path>
            <path d="M21.3493932,16.9682457 C21.4497518,17.2944243 21.5037727,17.6409035 21.5037727,18 C21.5037727,19.9350802 19.9350802,21.5037727 18,21.5037727 C16.0649198,21.5037727 14.4962273,19.9350802 14.4962273,18 C14.4962273,16.0649198 16.0649198,14.4962273 18,14.4962273 C18.3590965,14.4962273 18.7055757,14.5502482 19.0317543,14.6506068 C18.4233897,14.9252779 18,15.5372518 18,16.2481136 C18,17.2156538 18.7843462,18 19.7518864,18 C20.4627482,18 21.0747221,17.5766103 21.3493932,16.9682457 L21.3493932,16.9682457 Z" id="Oval-25" fill="#25AAFF" sketch:type="MSShapeGroup"></path>
            <path d="M27.3466066,18 C26.6370016,15.1670094 22.7232838,13 18.0016064,13 C13.2799289,13 9.36621112,15.1670094 8.6566061,18 C9.36621112,20.8329906 13.2799289,23 18.0016064,23 C22.7232838,23 26.6370016,20.8329906 27.3466066,18 L27.3466066,18 Z" id="Oval-24" stroke="#25AAFF" sketch:type="MSShapeGroup"></path>
        </g>
    </g>
</svg>