<?xml version="1.0" encoding="utf-8"?>
<!-- Generator: Adobe Illustrator 16.0.1, SVG Export Plug-In . SVG Version: 6.00 Build 0)  -->
<!DOCTYPE svg PUBLIC "-//W3C//DTD SVG 1.1//EN" "http://www.w3.org/Graphics/SVG/1.1/DTD/svg11.dtd">
<svg version="1.1" xmlns="http://www.w3.org/2000/svg" xmlns:xlink="http://www.w3.org/1999/xlink" x="0px" y="0px" width="14px"
	 height="14px" viewBox="0 0 14 14" enable-background="new 0 0 14 14" xml:space="preserve">
<g id="Layer_1" display="none">
	<path fill="#010101" d="M12.667,8.344C11.946,7.072,12.38,5.441,13.638,4.7l-1.354-2.383C11.899,2.547,11.45,2.68,10.97,2.68
		c-1.445,0-2.617-1.2-2.617-2.68H5.649C5.652,0.457,5.54,0.92,5.3,1.343C4.578,2.616,2.973,3.048,1.714,2.311L0.362,4.693
		c0.389,0.225,0.727,0.555,0.965,0.978c0.721,1.271,0.29,2.897-0.963,3.64l1.352,2.383c0.385-0.228,0.833-0.358,1.309-0.358
		c1.441,0,2.61,1.192,2.617,2.665h2.705c0-0.452,0.111-0.909,0.35-1.329c0.721-1.27,2.32-1.704,3.578-0.971l1.354-2.383
		C13.241,9.092,12.905,8.764,12.667,8.344L12.667,8.344z M7,9.835C5.46,9.835,4.213,8.566,4.213,7C4.213,5.435,5.46,4.166,7,4.166
		c1.54,0,2.784,1.269,2.784,2.834C9.784,8.566,8.54,9.835,7,9.835z"/>
	<g id="user" display="inline">
		<path fill-rule="evenodd" clip-rule="evenodd" fill="#010101" d="M7-0.005c1.93,0,3.496,1.569,3.496,3.503
			C10.496,5.431,8.93,7,7,7C5.069,7,3.503,5.431,3.503,3.498C3.503,1.564,5.069-0.005,7-0.005z"/>
		<path fill-rule="evenodd" clip-rule="evenodd" fill="#010101" d="M6,8c0,0,0.236,0.219,1.002,0.219S8.016,8,8.016,8
			c5.031,0,5.031,6,5.031,6H1.016C1.016,14,1.016,8,6,8z"/>
	</g>
</g>
<g id="Layer_3" display="none">
	<path display="inline" fill="#010101" d="M11.27,2.994H2.73c-0.434,0-0.722,0.366-0.722,0.833l0.605,9.441
		C2.637,13.749,2.831,14,3.375,14h7.326c0.377,0,0.674-0.251,0.686-0.731L12,3.725C12,3.28,11.771,2.994,11.27,2.994z M5.173,12
		H4.441l0.023-7h0.731L5.173,12z M7.5,12.009H6.53V5H7.5V12.009z M9.559,12h-0.73l0.023-7h0.73L9.559,12z"/>
	<path display="inline" fill="#010101" d="M12.516,2H1.5c-0.672,0-0.672-1,0-1h4.038V0.148C5.538,0.011,5.675,0,5.675,0h2.639
		c0.16,0.011,0.148,0.183,0.148,0.183V1h4.054C13.234,1,13.188,2,12.516,2z"/>
	<g id="Layer_4" display="inline">
	</g>
</g>
<g id="Layer_5" display="none">
	<polygon display="inline" points="0,14 0,2 9,2 9,3 1,3 1,13 11,13 11,5 12,5 12,14 	"/>
	<polygon display="inline" points="14,0 10.465,0 11.879,1.415 6.293,7 7,7.708 12.586,2.122 14,3.536 	"/>
</g>
<g id="edit">
	<path fill="#010101" d="M9.756,0L1.414,8.344L0,14l5.657-1.415L14,4.243L9.756,0z M1.375,12.625l0.803-3.233l2.42,2.42
		L1.375,12.625z M5.515,11.314L2.686,8.485l7.071-7.071l2.829,2.829L5.515,11.314z"/>
</g>
</svg>
