<?xml version="1.0" encoding="UTF-8" standalone="no"?>
<svg width="36px" height="36px" viewBox="0 0 36 36" version="1.1" xmlns="http://www.w3.org/2000/svg" xmlns:xlink="http://www.w3.org/1999/xlink" xmlns:sketch="http://www.bohemiancoding.com/sketch/ns">
    <!-- Generator: Sketch 3.3.1 (12002) - http://www.bohemiancoding.com/sketch -->
    <title>Trash</title>
    <desc>Created with Sketch.</desc>
    <defs></defs>
    <g id="Page-1" stroke="none" stroke-width="1" fill="none" fill-rule="evenodd" sketch:type="MSPage">
        <g id="Trash" sketch:type="MSArtboardGroup">
            <rect id="Rectangle-18" fill-opacity="0" fill="#FFFFFF" sketch:type="MSShapeGroup" x="0" y="0" width="36" height="36"></rect>
            <path d="M11,12 L12,12 L13,26 L12,26 L11,12 Z" id="Rectangle-28" fill="#25AAFF" sketch:type="MSShapeGroup"></path>
            <rect id="Rectangle-1889" fill="#25AAFF" sketch:type="MSShapeGroup" x="15" y="15" width="1" height="8"></rect>
            <rect id="Rectangle-1889-Copy-3" fill="#25AAFF" sketch:type="MSShapeGroup" transform="translate(17.500000, 12.500000) rotate(-90.000000) translate(-17.500000, -12.500000) " x="17" y="5" width="1" height="15"></rect>
            <rect id="Rectangle-1894" fill="#25AAFF" sketch:type="MSShapeGroup" x="14" y="10" width="7" height="1"></rect>
            <rect id="Rectangle-26" fill="#25AAFF" sketch:type="MSShapeGroup" x="12" y="25" width="11" height="1"></rect>
            <rect id="Rectangle-1889-Copy" fill="#25AAFF" sketch:type="MSShapeGroup" x="17" y="15" width="1" height="8.01000023"></rect>
            <rect id="Rectangle-1889-Copy-2" fill="#25AAFF" sketch:type="MSShapeGroup" x="19" y="15" width="1" height="8.01000023"></rect>
            <path d="M23,12 L24,12 L23,26 L22,26 L23,12 Z" id="Rectangle-27" fill="#25AAFF" sketch:type="MSShapeGroup"></path>
            <rect id="Rectangle-28" fill="#25AAFF" sketch:type="MSShapeGroup" x="20" y="10" width="1" height="3"></rect>
            <rect id="Rectangle-28-Copy" fill="#25AAFF" sketch:type="MSShapeGroup" x="14" y="10" width="1" height="3"></rect>
        </g>
    </g>
</svg>