<svg width="36" height="36" viewBox="0 0 36 36" xmlns="http://www.w3.org/2000/svg">
    <title>
        Help
    </title>
    <g fill="none" fill-rule="evenodd">
        <circle stroke="#9B9B9B" cx="18" cy="18" r="12"/>
        <path d="M17.69 14.15c-.375 0-.732.044-1.074.135-.34.09-.698.237-1.072.44L15 13.235c.395-.223.846-.402 1.352-.535.507-.133 1.027-.2 1.56-.2.64 0 1.17.088 1.585.264.417.176.747.398.993.664.245.267.416.56.512.88.096.32.144.63.144.93 0 .362-.067.687-.2.975-.134.288-.302.555-.504.8-.203.246-.422.478-.657.697-.234.218-.453.442-.656.672-.203.23-.372.472-.505.728s-.2.544-.2.864v.184c0 .07.005.136.016.2h-1.663c-.022-.106-.038-.22-.048-.344-.012-.122-.017-.237-.017-.344 0-.352.058-.667.176-.944.116-.278.265-.534.447-.768.18-.235.376-.454.584-.657.21-.2.404-.404.585-.607.18-.202.33-.41.448-.624.118-.214.176-.45.176-.705 0-.352-.12-.643-.36-.872-.24-.23-.6-.344-1.08-.344zm1.247 8.64c0 .375-.122.68-.368.913-.246.235-.55.353-.913.353-.352 0-.654-.118-.904-.353-.25-.234-.377-.538-.377-.912 0-.372.126-.68.377-.92.25-.24.552-.36.904-.36.363 0 .667.12.912.36s.367.548.367.92z" fill="#9B9B9B"/>
    </g>
</svg>
