<svg width="40" height="40" viewBox="0 0 40 40" xmlns="http://www.w3.org/2000/svg">
    <title>
        Error
    </title>
    <g fill="none" fill-rule="evenodd">
        <path d="M0 0h40v40H0z"/>
        <path d="M19.99 22.79c-.962.926-1.89 1.774-2.778 2.545-1.315 1.14-2.66 2.266-4.038 3.38L11.29 26.83c1.098-1.392 2.222-2.75 3.37-4.073.773-.892 1.617-1.814 2.53-2.766-.924-.963-1.772-1.89-2.543-2.78-1.14-1.314-2.266-2.66-3.38-4.036l1.885-1.885c1.392 1.098 2.75 2.22 4.073 3.37.89.773 1.813 1.617 2.766 2.53.964-.925 1.89-1.773 2.78-2.544 1.315-1.14 2.66-2.266 4.038-3.38l1.885 1.886c-1.1 1.39-2.223 2.75-3.37 4.073-.774.89-1.618 1.813-2.532 2.765.926.964 1.774 1.89 2.545 2.78 1.14 1.315 2.266 2.66 3.38 4.037l-1.885 1.886c-1.392-1.1-2.75-2.223-4.073-3.37-.89-.775-1.813-1.618-2.766-2.532zm0-2.786l-.012-.013.013-.013.014.014-.013.014z" fill="#FF4A25"/>
    </g>
</svg>
