<?xml version="1.0" encoding="UTF-8" standalone="no"?>
<svg width="40px" height="40px" viewBox="0 0 40 40" version="1.1" xmlns="http://www.w3.org/2000/svg" xmlns:xlink="http://www.w3.org/1999/xlink" xmlns:sketch="http://www.bohemiancoding.com/sketch/ns">
    <!-- Generator: Sketch 3.3.2 (12043) - http://www.bohemiancoding.com/sketch -->
    <title>Warning</title>
    <desc>Created with Sketch.</desc>
    <defs></defs>
    <g id="Alerts" stroke="none" stroke-width="1" fill="none" fill-rule="evenodd" sketch:type="MSPage">
        <g id="Warning" sketch:type="MSArtboardGroup">
            <rect id="Rectangle-1" sketch:type="MSShapeGroup" x="0" y="0" width="40" height="40"></rect>
            <path d="M22,14.0188679 C22,16.1069287 21.9379851,18.0188592 21.8139535,19.754717 C21.6899219,21.4905747 21.5348847,23.2389849 21.3488372,25 L18.6821705,25 C18.4754512,23.2389849 18.3100781,21.4842855 18.1860465,19.7358491 C18.0620149,17.9874126 18,16.0817713 18,14.0188679 L18,7 L22,7 L22,14.0188679 Z M23,31.0188679 C23,31.8993755 22.7125029,32.6163494 22.1375,33.1698113 C21.5624971,33.7232732 20.8500042,34 20,34 C19.1749959,34 18.4687529,33.7232732 17.88125,33.1698113 C17.2937471,32.6163494 17,31.8993755 17,31.0188679 C17,30.1383604 17.2937471,29.4150972 17.88125,28.8490566 C18.4687529,28.283016 19.1749959,28 20,28 C20.8500042,28 21.5624971,28.283016 22.1375,28.8490566 C22.7125029,29.4150972 23,30.1383604 23,31.0188679 L23,31.0188679 Z" id="!" fill="#CCB60F" sketch:type="MSShapeGroup"></path>
        </g>
    </g>
</svg>