<?xml version="1.0" encoding="UTF-8" standalone="no"?>
<svg width="40px" height="40px" viewBox="0 0 40 40" version="1.1" xmlns="http://www.w3.org/2000/svg" xmlns:xlink="http://www.w3.org/1999/xlink" xmlns:sketch="http://www.bohemiancoding.com/sketch/ns">
    <!-- Generator: Sketch 3.3.2 (12043) - http://www.bohemiancoding.com/sketch -->
    <title>Close</title>
    <desc>Created with Sketch.</desc>
    <defs></defs>
    <g id="Alerts" stroke="none" stroke-width="1" fill="none" fill-rule="evenodd" sketch:type="MSPage">
        <g id="Close" sketch:type="MSArtboardGroup">
            <rect id="Rectangle-1" sketch:type="MSShapeGroup" x="0" y="0" width="40" height="40"></rect>
            <path d="M21.2496226,21.2493758 C21.2323613,22.0988517 21.1970453,22.8970559 21.1436742,23.6439997 C21.06479,24.7480051 20.9661864,25.859994 20.8478602,26.9799995 L19.1518603,26.9799995 C19.0203867,25.859994 18.9152095,24.7440052 18.8363254,23.6319997 C18.7832074,22.8832119 18.7479737,22.08909 18.7306238,21.2496226 L18.7306238,21.2496226 C17.8811478,21.2323613 17.0829436,21.1970453 16.3359999,21.1436742 C15.2319944,21.06479 14.1200056,20.9661864 13,20.8478602 L13,19.1518603 C14.1200056,19.0203867 15.2359944,18.9152095 16.3479999,18.8363254 C17.0967876,18.7832074 17.8909096,18.7479737 18.7303769,18.7306238 C18.7476383,17.8811478 18.7829543,17.0829436 18.8363254,16.3359999 C18.9152095,15.2319944 19.0138132,14.1200056 19.1321393,13 L20.8281393,13 C20.9596128,14.1200056 21.06479,15.2359944 21.1436742,16.3479999 C21.1967921,17.0967876 21.2320258,17.8909096 21.2493758,18.7303769 C22.0988517,18.7476383 22.8970559,18.7829543 23.6439997,18.8363254 C24.7480051,18.9152095 25.859994,19.0138132 26.9799995,19.1321393 L26.9799995,20.8281393 C25.859994,20.9596128 24.7440052,21.06479 23.6319997,21.1436742 C22.8832119,21.1967921 22.08909,21.2320258 21.2496226,21.2493758 Z M19.9959998,19.9959998 L19.9839998,19.9959998 L19.9839998,19.9839998 L19.9959998,19.9839998 L19.9959998,19.9959998 Z" id="!" fill="#4A4A4A" sketch:type="MSShapeGroup" transform="translate(19.990000, 19.990000) rotate(-315.000000) translate(-19.990000, -19.990000) "></path>
        </g>
    </g>
</svg>