<?xml version="1.0" encoding="UTF-8" standalone="no"?>
<svg width="36px" height="36px" viewBox="0 0 36 36" version="1.1" xmlns="http://www.w3.org/2000/svg" xmlns:xlink="http://www.w3.org/1999/xlink" xmlns:sketch="http://www.bohemiancoding.com/sketch/ns">
    <!-- Generator: Sketch 3.3.1 (12002) - http://www.bohemiancoding.com/sketch -->
    <title>Cog</title>
    <desc>Created with Sketch.</desc>
    <defs></defs>
    <g id="CMS" stroke="none" stroke-width="1" fill="none" fill-rule="evenodd" sketch:type="MSPage">
        <g id="Cog" sketch:type="MSArtboardGroup">
            <rect id="Rectangle-18" fill-opacity="0" fill="#FFFFFF" sketch:type="MSShapeGroup" x="0" y="0" width="36" height="36"></rect>
            <path d="M13.8068639,24.8460678 C14.5243113,25.2864344 15.3162883,25.6171847 16.1594762,25.8150001 L16.8532857,23.7335717 L19.1467143,23.7335717 L19.8405238,25.8150001 L19.8405238,25.8150001 C20.6750767,25.6192105 21.4594622,25.2931948 22.1710708,24.8595625 L22.1710708,24.8595625 L21.1042781,22.7259771 L22.7259771,21.1042781 L24.8595625,22.1710708 C25.2931948,21.4594622 25.6192105,20.6750767 25.8150001,19.8405238 L23.7335717,19.1467143 L23.7335717,16.8532857 L25.8150001,16.1594762 L25.8150001,16.1594762 C25.6192105,15.3249233 25.2931948,14.5405378 24.8595625,13.8289292 L24.8595625,13.8289292 L22.7259771,14.8957219 L21.1042781,13.2740229 L22.1710708,11.1404375 C21.4594622,10.7068052 20.6750767,10.3807895 19.8405238,10.1849999 L19.8405238,10.1849999 L19.1467143,12.2664283 L16.8532857,12.2664283 L16.1594762,10.1849999 C15.3076496,10.384842 14.5080886,10.7203568 13.784836,11.1675018 L14.8380966,13.2740229 L13.2163976,14.8957219 L11.1270176,13.8510319 L11.1270176,13.8510319 C10.7000755,14.5567681 10.3787646,15.3335546 10.1849999,16.1594762 L10.1849999,16.1594762 L12.2664283,16.8532857 L12.2664283,19.1467143 L10.1849999,19.8405238 C10.3828153,20.6837117 10.7135656,21.4756887 11.1539322,22.1931361 L13.2163976,21.1619034 L14.8380966,22.7836024 L13.8068639,24.8460678 Z" id="Oval-9" stroke="#25AAFF" sketch:type="MSShapeGroup"></path>
            <circle id="Oval-11" stroke="#25AAFF" sketch:type="MSShapeGroup" cx="18" cy="18" r="3"></circle>
        </g>
    </g>
</svg>