<?xml version="1.0" encoding="utf-8"?>
<!-- Generator: Adobe Illustrator 16.0.1, SVG Export Plug-In . SVG Version: 6.00 Build 0)  -->
<!DOCTYPE svg PUBLIC "-//W3C//DTD SVG 1.1//EN" "http://www.w3.org/Graphics/SVG/1.1/DTD/svg11.dtd">
<svg version="1.1" xmlns="http://www.w3.org/2000/svg" xmlns:xlink="http://www.w3.org/1999/xlink" x="0px" y="0px" width="14px"
	 height="14px" viewBox="0 0 14 14" enable-background="new 0 0 14 14" xml:space="preserve">
<g id="Layer_1" display="none">
	<path fill="#010101" d="M12.667,8.344C11.946,7.072,12.38,5.441,13.638,4.7l-1.354-2.383C11.899,2.547,11.45,2.68,10.97,2.68
		c-1.445,0-2.617-1.2-2.617-2.68H5.649C5.652,0.457,5.54,0.92,5.3,1.343C4.578,2.616,2.973,3.048,1.714,2.311L0.362,4.693
		c0.389,0.225,0.727,0.555,0.965,0.978c0.721,1.271,0.29,2.897-0.963,3.64l1.352,2.383c0.385-0.228,0.833-0.358,1.309-0.358
		c1.441,0,2.61,1.192,2.617,2.665h2.705c0-0.452,0.111-0.909,0.35-1.329c0.721-1.27,2.32-1.704,3.578-0.971l1.354-2.383
		C13.241,9.092,12.905,8.764,12.667,8.344L12.667,8.344z M7,9.835C5.46,9.835,4.213,8.566,4.213,7C4.213,5.435,5.46,4.166,7,4.166
		c1.54,0,2.784,1.269,2.784,2.834C9.784,8.566,8.54,9.835,7,9.835z"/>
	<g id="user" display="inline">
		<path fill-rule="evenodd" clip-rule="evenodd" fill="#010101" d="M7-0.005c1.93,0,3.496,1.569,3.496,3.503
			C10.496,5.431,8.93,7,7,7C5.069,7,3.503,5.431,3.503,3.498C3.503,1.564,5.069-0.005,7-0.005z"/>
		<path fill-rule="evenodd" clip-rule="evenodd" fill="#010101" d="M6,8c0,0,0.236,0.219,1.002,0.219S8.016,8,8.016,8
			c5.031,0,5.031,6,5.031,6H1.016C1.016,14,1.016,8,6,8z"/>
	</g>
</g>
<g id="Layer_3" display="none">
	<path display="inline" fill="#010101" d="M11.27,2.994H2.73c-0.434,0-0.722,0.366-0.722,0.833l0.605,9.441
		C2.637,13.749,2.831,14,3.375,14h7.326c0.377,0,0.674-0.251,0.686-0.731L12,3.725C12,3.28,11.771,2.994,11.27,2.994z M5.173,12
		H4.441l0.023-7h0.731L5.173,12z M7.5,12.009H6.53V5H7.5V12.009z M9.559,12h-0.73l0.023-7h0.73L9.559,12z"/>
	<path display="inline" fill="#010101" d="M12.516,2H1.5c-0.672,0-0.672-1,0-1h4.038V0.148C5.538,0.011,5.675,0,5.675,0h2.639
		c0.16,0.011,0.148,0.183,0.148,0.183V1h4.054C13.234,1,13.188,2,12.516,2z"/>
	<g id="Layer_4" display="inline">
	</g>
</g>
<g id="Layer_5" display="none">
	<polygon display="inline" points="0,14 0,2 9,2 9,3 1,3 1,13 11,13 11,5 12,5 12,14 	"/>
	<polygon display="inline" points="14,0 10.465,0 11.879,1.415 6.293,7 7,7.708 12.586,2.122 14,3.536 	"/>
</g>
<g id="edit" display="none">
	<path display="inline" fill="#010101" d="M9.756,0L1.414,8.344L0,14l5.657-1.415L14,4.243L9.756,0z M1.375,12.625l0.803-3.233
		l2.42,2.42L1.375,12.625z M5.515,11.314L2.686,8.485l7.071-7.071l2.829,2.829L5.515,11.314z"/>
</g>
<g id="information" display="none">
	<path display="inline" fill="#010101" d="M11,0H3C1.896,0,1,0.896,1,2v10c0,1.104,0.896,2,2,2h8c1.104,0,2-0.896,2-2V2
		C13,0.896,12.104,0,11,0z M8,12H6V6h2V12z M8,4H6V2h2V4z"/>
</g>
<g id="Layer_8" display="none">
	<path display="inline" fill="#010101" d="M7,0C3.133,0,0,3.14,0,7.012c0,3.873,3.133,7.013,7,7.013c3.866,0,7-3.14,7-7.013
		C14,3.14,10.866,0,7,0z M8,12H6V6h2V12z M7,4.654c-0.644,0-1.167-0.523-1.167-1.167c0-0.644,0.522-1.167,1.167-1.167
		c0.645,0,1.167,0.523,1.167,1.167C8.167,4.131,7.645,4.654,7,4.654z"/>
</g>
<g id="preview">
	<path d="M7,4c1.654,0,3,1.346,3,3s-1.346,3-3,3S4,8.654,4,7S5.346,4,7,4 M7,3C3,3,0,6.979,0,6.979S3,11,7,11s7-4.021,7-4.021
		S11,3,7,3L7,3z"/>
	<path display="none" d="M7,2.484c-3.866,0-7,4.508-7,4.508S3.133,11.5,7,11.5c3.866,0,7-4.508,7-4.508S10.865,2.484,7,2.484z
		 M10.265,9.3C9.54,10.325,8.351,11,7,11s-2.539-0.674-3.264-1.699c-1.096-0.765-1.98-1.717-2.475-2.314
		C1.828,6.3,2.713,5.394,3.757,4.674C4.483,3.664,5.661,3,7,3c1.335,0,2.51,0.661,3.236,1.666c1.104,0.766,1.998,1.724,2.497,2.326
		C12.238,7.59,11.356,8.537,10.265,9.3z"/>
	<path display="none" d="M7,2.75C3.134,2.75,0,7,0,7s3.134,5,7,5c3.865,0,7-5,7-5S10.865,2.75,7,2.75z M7,10.75
		c-2.581,0-4.914-2.265-5.788-3.756C2.278,5.159,4.611,4,7,4c2.58,0,4.913,1.514,5.788,3.006C11.722,8.842,9.389,10.75,7,10.75z"/>
	<path d="M8.453,6.641c-0.553,0-1-0.448-1-1c0-0.199,0.073-0.375,0.174-0.531C7.429,5.044,7.22,5,7,5C5.895,5,5,5.895,5,7
		c0,1.104,0.895,2,2,2c1.104,0,2-0.896,2-2c0-0.173-0.028-0.337-0.069-0.497C8.786,6.583,8.629,6.641,8.453,6.641z"/>
</g>
<g id="clone" display="none">
	<polygon display="inline" points="13,1 5,1 5,2 6,2 6,2 12,2 12,10 10,10 10,11 13,11 	"/>
	<path display="inline" d="M8,4v8H2V4H8 M9,3H1v10h8V3L9,3z"/>
	<g>
		<rect x="3" y="5" display="inline" width="4" height="1"/>
		<rect x="3" y="9" display="inline" width="4" height="1"/>
		<rect x="3" y="7" display="inline" width="3" height="1"/>
	</g>
	<g display="inline">
		<rect x="10" y="3" width="1" height="1"/>
		<rect x="10" y="7" width="1" height="1"/>
		<rect x="10" y="5" width="0" height="1"/>
	</g>
</g>
</svg>
