<?xml version="1.0" encoding="UTF-8" standalone="no"?>
<svg width="36px" height="36px" viewBox="0 0 36 36" version="1.1" xmlns="http://www.w3.org/2000/svg" xmlns:xlink="http://www.w3.org/1999/xlink" xmlns:sketch="http://www.bohemiancoding.com/sketch/ns">
    <!-- Generator: Sketch 3.3.3 (12072) - http://www.bohemiancoding.com/sketch -->
    <title>Help</title>
    <desc>Created with Sketch.</desc>
    <defs></defs>
    <g id="Portal" stroke="none" stroke-width="1" fill="none" fill-rule="evenodd" sketch:type="MSPage">
        <g id="Help" sketch:type="MSArtboardGroup">
            <circle id="Oval-36" stroke="#9B9B9B" sketch:type="MSShapeGroup" cx="18" cy="18" r="12"></circle>
            <path d="M17.6888236,14.148505 C17.315374,14.148505 16.9579348,14.1938517 16.6164951,14.2845466 C16.2750555,14.3752415 15.9176163,14.5219517 15.5441667,14.7246814 L15,13.2362255 C15.3947896,13.0121558 15.8455898,12.8334361 16.3524143,12.7000613 C16.8592387,12.5666864 17.3793928,12.5 17.9128923,12.5 C18.5530916,12.5 19.0812481,12.5880261 19.4973776,12.7640809 C19.9135071,12.9401357 20.2442718,13.1615346 20.4896815,13.4282843 C20.7350913,13.6950341 20.9058085,13.9884543 21.0018384,14.308554 C21.0978683,14.6286536 21.1458826,14.9380786 21.1458826,15.2368383 C21.1458826,15.5996179 21.0791961,15.9250477 20.9458213,16.2131374 C20.8124464,16.5012271 20.6443966,16.7679728 20.4416668,17.0133825 C20.2389371,17.2587922 20.0202056,17.490861 19.7854658,17.7095958 C19.5507261,17.9283305 19.3319946,18.1523969 19.1292648,18.3818017 C18.9265351,18.6112064 18.7584853,18.853945 18.6251104,19.1100247 C18.4917356,19.3661044 18.4250491,19.6541898 18.4250491,19.9742895 L18.4250491,20.1583458 C18.4250491,20.2277008 18.430384,20.2943872 18.441054,20.3584071 L16.7765442,20.3584071 C16.7552042,20.2517072 16.7391995,20.1370066 16.7285295,20.0143017 C16.7178595,19.8915968 16.7125246,19.7768962 16.7125246,19.6701963 C16.7125246,19.3180867 16.7712086,19.0033268 16.8885785,18.7259071 C17.0059484,18.4484874 17.155326,18.1924115 17.3367158,17.9576717 C17.5181056,17.722932 17.7128299,17.5042005 17.9208947,17.3014707 C18.1289595,17.098741 18.3236838,16.8960142 18.5050736,16.6932844 C18.6864634,16.4905547 18.835841,16.282493 18.9532109,16.0690933 C19.0705808,15.8556935 19.1292648,15.6209573 19.1292648,15.3648775 C19.1292648,15.0127679 19.0092293,14.7220151 18.7691545,14.4926104 C18.5290798,14.2632056 18.1689731,14.148505 17.6888236,14.148505 L17.6888236,14.148505 Z M18.937206,22.7911523 C18.937206,23.1646019 18.814503,23.468692 18.5690933,23.7034317 C18.3236835,23.9381715 18.0195934,24.0555396 17.6568138,24.0555396 C17.3047042,24.0555396 17.0032815,23.9381715 16.7525368,23.7034317 C16.5017921,23.468692 16.3764216,23.1646019 16.3764216,22.7911523 C16.3764216,22.4177027 16.5017921,22.1109451 16.7525368,21.8708704 C17.0032815,21.6307957 17.3047042,21.5107601 17.6568138,21.5107601 C18.0195934,21.5107601 18.3236835,21.6307957 18.5690933,21.8708704 C18.814503,22.1109451 18.937206,22.4177027 18.937206,22.7911523 L18.937206,22.7911523 Z" id="?" fill="#9B9B9B" sketch:type="MSShapeGroup"></path>
        </g>
    </g>
</svg>