<?xml version="1.0" encoding="UTF-8" standalone="no"?>
<svg width="36px" height="36px" viewBox="0 0 36 36" version="1.1" xmlns="http://www.w3.org/2000/svg" xmlns:xlink="http://www.w3.org/1999/xlink" xmlns:sketch="http://www.bohemiancoding.com/sketch/ns">
    <!-- Generator: Sketch 3.3.1 (12002) - http://www.bohemiancoding.com/sketch -->
    <title>More</title>
    <desc>Created with Sketch.</desc>
    <defs></defs>
    <g id="Page-1" stroke="none" stroke-width="1" fill="none" fill-rule="evenodd" sketch:type="MSPage">
        <g id="More" sketch:type="MSArtboardGroup">
            <rect id="Rectangle-18" fill-opacity="0" fill="#FFFFFF" sketch:type="MSShapeGroup" x="0" y="0" width="36" height="36"></rect>
            <path d="M11,20 C12.1045695,20 13,19.1045695 13,18 C13,16.8954305 12.1045695,16 11,16 C9.8954305,16 9,16.8954305 9,18 C9,19.1045695 9.8954305,20 11,20 L11,20 Z M27,18 C27,16.8954305 26.1045695,16 25,16 C23.8954305,16 23,16.8954305 23,18 C23,19.1045695 23.8954305,20 25,20 C26.1045695,20 27,19.1045695 27,18 Z M18,20 C19.1045695,20 20,19.1045695 20,18 C20,16.8954305 19.1045695,16 18,16 C16.8954305,16 16,16.8954305 16,18 C16,19.1045695 16.8954305,20 18,20 L18,20 Z" id="i-more" fill="#25AAFF" sketch:type="MSShapeGroup"></path>
        </g>
    </g>
</svg>