<?xml version="1.0" encoding="UTF-8"?>
<svg width="24px" height="24px" viewBox="0 0 24 24" version="1.1" xmlns="http://www.w3.org/2000/svg" xmlns:xlink="http://www.w3.org/1999/xlink">
    <!-- Generator: Sketch 44.1 (41455) - http://www.bohemiancoding.com/sketch -->
    <title>clear</title>
    <desc>Created with Sketch.</desc>
    <defs></defs>
    <g id="Symbols" stroke="none" stroke-width="1" fill="none" fill-rule="evenodd">
        <g id="icons" transform="translate(-17.000000, -200.000000)" fill="#000000">
            <path d="M29,224 C22.372583,224 17,218.627417 17,212 C17,205.372583 22.372583,200 29,200 C35.627417,200 41,205.372583 41,212 C41,218.627417 35.627417,224 29,224 Z M30.602051,212 L34.2066659,208.395385 C34.6490601,207.952991 34.6490601,207.235728 34.2066659,206.793334 C33.7642717,206.35094 33.047009,206.35094 32.6046149,206.793334 L29,210.397949 L25.3953851,206.793334 C24.952991,206.35094 24.2357283,206.35094 23.7933341,206.793334 C23.3509399,207.235728 23.3509399,207.952991 23.7933341,208.395385 L27.397949,212 L23.7933341,215.604615 C23.3509399,216.047009 23.3509399,216.764272 23.7933341,217.206666 C24.2357283,217.64906 24.952991,217.64906 25.3953851,217.206666 L29,213.602051 L32.6046149,217.206666 C33.047009,217.64906 33.7642717,217.64906 34.2066659,217.206666 C34.6490601,216.764272 34.6490601,216.047009 34.2066659,215.604615 L30.602051,212 L30.602051,212 Z" id="clear"></path>
        </g>
    </g>
</svg>