<?xml version="1.0" encoding="UTF-8"?>
<svg width="24px" height="24px" viewBox="0 0 24 24" version="1.1" xmlns="http://www.w3.org/2000/svg" xmlns:xlink="http://www.w3.org/1999/xlink">
    <!-- Generator: Sketch 44.1 (41455) - http://www.bohemiancoding.com/sketch -->
    <title>close</title>
    <desc>Created with Sketch.</desc>
    <defs></defs>
    <g id="Symbols" stroke="none" stroke-width="1" fill="none" fill-rule="evenodd">
        <g id="icons" transform="translate(-17.000000, -152.000000)" fill="#000000">
            <path d="M40.4009245,155.491668 C41.1996918,154.6929 41.1996918,153.397843 40.4009245,152.599075 C39.6021573,151.800308 38.3070996,151.800308 37.5083324,152.599075 L29,161.107408 L20.4916676,152.599075 C19.6929004,151.800308 18.3978427,151.800308 17.5990755,152.599075 C16.8003082,153.397843 16.8003082,154.6929 17.5990755,155.491668 L26.1074078,164 L17.5990755,172.508332 C16.8003082,173.3071 16.8003082,174.602157 17.5990755,175.400925 C18.3978427,176.199692 19.6929004,176.199692 20.4916676,175.400925 L29,166.892592 L37.5083324,175.400925 C38.3070996,176.199692 39.6021573,176.199692 40.4009245,175.400925 C41.1996918,174.602157 41.1996918,173.3071 40.4009245,172.508332 L31.8925922,164 L40.4009245,155.491668 Z" id="close"></path>
        </g>
    </g>
</svg>