<?xml version="1.0" encoding="UTF-8"?>
<svg width="24px" height="24px" viewBox="0 0 24 24" version="1.1" xmlns="http://www.w3.org/2000/svg" xmlns:xlink="http://www.w3.org/1999/xlink">
    <!-- Generator: Sketch 44.1 (41455) - http://www.bohemiancoding.com/sketch -->
    <title>cog</title>
    <desc>Created with Sketch.</desc>
    <defs></defs>
    <g id="Symbols" stroke="none" stroke-width="1" fill="none" fill-rule="evenodd">
        <g id="icons" transform="translate(-158.000000, -17.000000)" fill-rule="nonzero" fill="#000000">
            <path d="M161.736611,31 L158.985103,31 C158.006289,31 158,30.1045695 158,29 C158,27.8954305 158.006289,27 158.985103,27 L161.736611,27 C161.950923,26.1113531 162.304856,25.2771421 162.773895,24.5218812 L161.069106,22.8170842 C160.310281,22.0582553 160.731514,21.2544344 161.490339,20.4956055 C162.249164,19.7367766 163.05823,19.3102928 163.817055,20.0691217 L165.521844,21.7739186 C166.277101,21.3048774 167.111308,20.9509431 167.99995,20.7366298 L167.99995,18.0565186 C167.99995,17.1184841 168.895376,17 169.99994,17 C171.104504,17 171.99993,17.1184841 171.99993,18.0565186 L171.99993,20.7366298 C172.888573,20.9509431 173.72278,21.3048774 174.478037,21.7739186 L176.182825,20.0691217 C176.94165,19.3102928 177.698714,19.7367766 178.45754,20.4956055 C179.216365,21.2544344 179.689599,22.0582553 178.930774,22.8170842 L177.225986,24.5218812 C177.695024,25.2771421 178.048957,26.1113531 178.263269,27 L181.052986,27 C182.031799,27 181.99988,27.8954305 181.99988,29 C181.99988,30.1045695 182.031799,31 181.052986,31 L178.263269,31 C178.048957,31.8886469 177.695024,32.7228579 177.225986,33.4781188 L178.930774,35.1829158 C179.689599,35.9417447 179.216365,36.789633 178.45754,37.5484619 C177.698714,38.3072908 176.94165,38.6897072 176.182825,37.9308783 L174.478037,36.2260814 C173.72278,36.6951226 172.888573,37.0490569 171.99993,37.2633702 L171.99993,40.0135498 C171.99993,40.9515842 171.104504,41 169.99994,41 C168.895376,41 167.99995,40.9515842 167.99995,40.0135498 L167.99995,37.2633702 C167.111308,37.0490569 166.277101,36.6951226 165.521844,36.2260814 L163.817055,37.9308783 C163.05823,38.6897072 162.249164,38.3072908 161.490339,37.5484619 C160.731514,36.789633 160.310281,35.9417447 161.069106,35.1829158 L162.773895,33.4781188 C162.304856,32.7228579 161.950923,31.8886469 161.736611,31 Z M169.99994,33.5 C172.485209,33.5 174.499918,31.4852814 174.499918,29 C174.499918,26.5147186 172.485209,24.5 169.99994,24.5 C167.514671,24.5 165.499963,26.5147186 165.499963,29 C165.499963,31.4852814 167.514671,33.5 169.99994,33.5 Z" id="cog"></path>
        </g>
    </g>
</svg>