<?xml version="1.0" encoding="UTF-8"?>
<svg width="33px" height="26px" viewBox="0 0 33 26" version="1.1" xmlns="http://www.w3.org/2000/svg" xmlns:xlink="http://www.w3.org/1999/xlink">
    <!-- Generator: Sketch 44.1 (41455) - http://www.bohemiancoding.com/sketch -->
    <title>contact</title>
    <desc>Created with Sketch.</desc>
    <defs></defs>
    <g id="Symbols" stroke="none" stroke-width="1" fill="none" fill-rule="evenodd">
        <g id="icons" transform="translate(-114.000000, -61.000000)" fill-rule="nonzero" fill="#000000">
            <g id="contact" transform="translate(114.000000, 61.000000)">
                <path d="M16.3087967,7.55861662 C14.4665056,9.55307024 12.2326747,12.7538329 11.499808,17.2930218 C11.1542663,17.3245901 10.8054077,17.340507 10.4543042,17.340507 C9.54012733,17.340507 8.64203353,17.232575 7.77962891,17.0222678 L3.80914872,19.1067497 C2.92774199,19.5694837 1.88543089,18.866436 1.98428966,17.8758667 L2.40265953,13.6837816 C1.33701374,12.332945 0.75,10.7296053 0.75,9.04525351 C0.75,4.40836475 5.1400377,0.75 10.4543042,0.75 C14.0196675,0.75 17.2486586,2.40637285 18.9401522,5.01087812 C19.2729477,4.94173749 18.3698317,5.50800444 17.0775956,6.76879414 C17.1167202,6.84200239 17.1540608,6.91602394 17.1895705,6.99082602 C17.2437859,7.10503219 16.8699088,7.28017895 16.3087967,7.55861662 Z M16.3087967,7.55861662 C16.5751539,7.27025986 16.8333267,7.00711879 17.0775956,6.76879414 C15.9599911,4.67757811 13.386753,3.25 10.4543042,3.25 C6.43020415,3.25 3.25,5.90017013 3.25,9.04525351 C3.25,10.2762783 3.73172334,11.4549275 4.62597066,12.4435198 C4.86275757,12.7052882 4.97783452,13.0549657 4.94278185,13.406195 L4.70246509,15.8141798 L7.05047526,14.5814864 C7.33825411,14.430404 7.6735647,14.3973549 7.98530164,14.4893476 C8.76886882,14.7205759 9.6005956,14.840507 10.4543042,14.840507 C11.0066008,14.840507 11.5501211,14.7903243 12.0781002,14.6919527 C12.3579939,14.6398036 11.9196901,11.6670265 13.0388184,10.0354004 C13.896525,8.78491221 15.3666146,8.02615062 16.3087967,7.55861662 Z" id="Combined-Shape"></path>
                <path d="M30.8629657,23.8753841 C30.9615065,24.8659853 29.9189694,25.5686984 29.0377113,25.1056811 L24.5246455,22.7344943 C23.5505414,22.9771816 22.534639,23.1018204 21.5,23.1018204 C15.6079622,23.1018204 10.75,19.0487918 10.75,13.9259102 C10.75,8.80302862 15.6079622,4.75 21.5,4.75 C27.3920378,4.75 32.25,8.80302862 32.25,13.9259102 C32.25,15.8047883 31.5885238,17.5930884 30.3875458,19.0961293 L30.8629657,23.8753841 Z M27.8473156,18.8157455 C27.8124167,18.4649172 27.9272938,18.1156646 28.1636379,17.8540543 C29.1936121,16.7139713 29.75,15.3509364 29.75,13.9259102 C29.75,10.2940731 26.1013724,7.25 21.5,7.25 C16.8986276,7.25 13.25,10.2940731 13.25,13.9259102 C13.25,17.5577473 16.8986276,20.6018204 21.5,20.6018204 C22.4737367,20.6018204 23.4227275,20.4648539 24.3171371,20.2006756 C24.6290873,20.1085361 24.9646678,20.1416243 25.2526159,20.2929136 L28.1454522,21.8128239 L27.8473156,18.8157455 Z" id="Combined-Shape"></path>
            </g>
        </g>
    </g>
</svg>