<svg width="36" height="36" viewBox="0 0 36 36" xmlns="http://www.w3.org/2000/svg"><title>Contact Optimized</title><defs><filter x="-50%" y="-50%" width="200%" height="200%" filterUnits="objectBoundingBox" id="a"><feMorphology radius="1" in="SourceAlpha" operator="dilate" result="shadowSpreadOuter1"/><feOffset in="shadowSpreadOuter1" result="shadowOffsetOuter1"/><feGaussianBlur in="shadowOffsetOuter1" result="shadowBlurOuter1"/><feColorMatrix values="0 0 0 0 1 0 0 0 0 1 0 0 0 0 1 0 0 0 0.7 0" in="shadowBlurOuter1" result="shadowMatrixOuter1"/><feMerge><feMergeNode in="shadowMatrixOuter1"/><feMergeNode in="SourceGraphic"/></feMerge></filter></defs><g stroke="#9B9B9B" fill="none" fill-rule="evenodd"><path d="M22.15 24.715c-1.38 2.024-4.286 3.418-7.65 3.418-.97 0-1.9-.116-2.77-.33C10.408 28.552 8.706 29 6.85 29c-.13 0-.26-.002-.388-.007a11.796 11.796 0 0 0 1.914-2.72C6.906 25.184 6 23.7 6 22.068c0-1.86 1.174-3.526 3.02-4.64.355 4.152 5.135 7.44 10.98 7.44.736 0 1.454-.052 2.15-.152z"/><path d="M17.583 15.436c-1.123.28-2.328.43-3.583.43-6.075 0-11-3.55-11-7.933C3 3.553 7.925 0 14 0s11 3.552 11 7.933c0 2.137-1.17 4.076-3.075 5.502.626 1.26 1.46 2.45 2.477 3.556-.166.007-.334.01-.502.01-2.4 0-4.603-.587-6.317-1.564z" filter="url(#a)" transform="translate(6 9)"/></g></svg>