<?xml version="1.0" encoding="UTF-8"?>
<svg width="23px" height="24px" viewBox="0 0 23 24" version="1.1" xmlns="http://www.w3.org/2000/svg" xmlns:xlink="http://www.w3.org/1999/xlink">
    <!-- Generator: Sketch 44.1 (41455) - http://www.bohemiancoding.com/sketch -->
    <title>drag</title>
    <desc>Created with Sketch.</desc>
    <defs></defs>
    <g id="Symbols" stroke="none" stroke-width="1" fill="none" fill-rule="evenodd">
        <g id="icons" transform="translate(-304.000000, -17.000000)" fill-rule="nonzero" fill="#000000">
            <path d="M322.58449,30.7000008 L322.58449,33.0316547 C322.58449,33.1554691 322.628849,33.2742124 322.70781,33.3617624 C322.872236,33.5440758 323.138823,33.5440758 323.303249,33.3617624 L326.752565,29.5372055 C326.916991,29.3548921 326.916991,29.0593037 326.752565,28.8769902 L323.303249,25.0524334 C323.224289,24.9648834 323.117196,24.9156983 323.005529,24.9156983 C322.772996,24.9156983 322.58449,25.1247109 322.58449,25.382541 L322.58449,27.7000008 L316.899994,27.7000008 L316.899994,27.7000008 L316.899994,22.060556 L319.262505,22.060556 C319.520335,22.060556 319.729348,21.8720503 319.729348,21.6395168 C319.729348,21.5278502 319.680163,21.4207573 319.592613,21.3417971 L315.768056,17.8924806 C315.585742,17.7280546 315.290154,17.7280546 315.10784,17.8924806 L311.283284,21.3417971 C311.10097,21.5062232 311.10097,21.7728104 311.283284,21.9372365 C311.370834,22.0161966 311.489577,22.060556 311.613391,22.060556 L313.899994,22.060556 L313.899994,27.7000008 L308.291395,27.7000008 L308.291395,25.3825524 C308.291395,25.258738 308.247035,25.1399947 308.168075,25.0524447 C308.003649,24.8701313 307.737062,24.8701313 307.572636,25.0524447 L304.12332,28.8770016 C303.958893,29.059315 303.958893,29.3549035 304.12332,29.5372169 L307.572636,33.3617737 C307.651596,33.4493237 307.758689,33.4985088 307.870356,33.4985088 C308.102889,33.4985088 308.291395,33.2894962 308.291395,33.0316661 L308.291395,30.7000008 L313.899994,30.7000008 L313.899994,36.3536512 L311.61338,36.3536512 C311.35555,36.3536512 311.146537,36.5421568 311.146537,36.7746903 C311.146537,36.8863569 311.195722,36.9934498 311.283272,37.07241 L315.107829,40.5217265 C315.290143,40.6861525 315.585731,40.6861525 315.768044,40.5217265 L319.592601,37.07241 C319.774915,36.907984 319.774915,36.6413967 319.592601,36.4769707 C319.505051,36.3980105 319.386308,36.3536512 319.262494,36.3536512 L316.899994,36.3536512 L316.899994,30.7000008 L322.58449,30.7000008 Z" id="drag"></path>
        </g>
    </g>
</svg>