<svg width="36" height="36" viewBox="0 0 36 36" xmlns="http://www.w3.org/2000/svg"><title>drag</title><g fill="none" fill-rule="evenodd"><path d="M0 0h36v36H0V0z"/><path d="M18.833 18.833H25.5v2.143c0 1.094.548 1.507 1.211.93l3.29-2.853c.668-.58.663-1.526 0-2.102l-3.29-2.854c-.669-.58-1.211-.172-1.211.93v2.14h-6.667V10.5h2.14c1.102 0 1.51-.542.93-1.211l-2.854-3.29c-.576-.663-1.521-.668-2.102 0l-2.854 3.29c-.576.663-.163 1.211.931 1.211h2.143v6.667H10.5v-2.14c0-1.102-.542-1.51-1.211-.93l-3.29 2.854c-.663.576-.668 1.521 0 2.102l3.29 2.854c.663.576 1.211.163 1.211-.931v-2.143h6.667V25.5h-2.143c-1.094 0-1.507.548-.93 1.211l2.853 3.29c.58.668 1.526.663 2.102 0l2.854-3.29c.58-.669.172-1.211-.93-1.211h-2.14v-6.667z" fill="#26AAFE"/></g></svg>