<?xml version="1.0" encoding="UTF-8"?>
<svg width="24px" height="21px" viewBox="0 0 24 21" version="1.1" xmlns="http://www.w3.org/2000/svg" xmlns:xlink="http://www.w3.org/1999/xlink">
    <!-- Generator: Sketch 44.1 (41455) - http://www.bohemiancoding.com/sketch -->
    <title>error</title>
    <desc>Created with Sketch.</desc>
    <defs></defs>
    <g id="Symbols" stroke="none" stroke-width="1" fill="none" fill-rule="evenodd">
        <g id="icons" transform="translate(-16.000000, -107.000000)" fill="#000000">
            <path d="M29.6254057,107.885851 L39.695356,125.043025 C40.2699178,125.936761 40.0079197,127.124966 39.110167,127.696957 C38.7995894,127.894837 38.4385691,128 38.0698309,128 L17.9299303,128 C16.8640592,128 16,127.139807 16,126.078706 C16,125.711618 16.1056355,125.352213 16.3044052,125.043025 L26.3743555,107.885851 C26.9489173,106.992116 28.142464,106.73129 29.0402167,107.303281 C29.2752998,107.453061 29.4749525,107.65182 29.6254057,107.885851 Z M26.7756799,122.113252 C26.4270492,122.461883 26.25,122.891358 26.25,123.387572 C26.25,123.883785 26.4270492,124.313261 26.7756799,124.661892 C27.1243107,125.010523 27.5537865,125.187572 28.05,125.187572 C28.5462134,125.187572 28.9756892,125.010523 29.32432,124.661892 C29.6729507,124.313261 29.8499999,123.883785 29.8499999,123.387572 C29.8499999,122.891358 29.6729507,122.461883 29.32432,122.113252 C28.9756892,121.764621 28.5462134,121.587572 28.05,121.587572 C27.5537865,121.587572 27.1243107,121.764621 26.7756799,122.113252 Z M26.7919203,112.241809 C26.4246791,112.580526 26.25,113.128306 26.25,113.872543 C26.25,114.123986 26.3037922,114.456232 26.4099908,114.874779 C26.4768094,115.135981 26.6236901,115.651562 26.8515177,116.424977 C27.0284393,117.020616 27.1458173,117.481324 27.2036041,117.80493 C27.262176,118.132933 27.3784135,119.009185 27.5509684,120.425325 L27.577746,120.645086 L28.5515063,120.645086 L28.5762165,120.422694 C28.7012805,119.297119 28.7921001,118.54823 28.8481726,118.179331 C28.9032383,117.817057 29.0071667,117.358893 29.1600279,116.806242 C29.4176,115.871794 29.5958642,115.199184 29.695216,114.786724 C29.7980114,114.359967 29.8499999,114.037008 29.8499999,113.809827 C29.8499999,113.099897 29.6704126,112.569687 29.2963748,112.234834 C28.9373867,111.913455 28.5183171,111.75 28.05,111.75 C27.5690583,111.75 27.1456936,111.915513 26.7919203,112.241809 Z" id="error"></path>
        </g>
    </g>
</svg>