<svg width="36" height="36" viewBox="0 0 36 36" xmlns="http://www.w3.org/2000/svg"><title>Preview</title><g fill="none" fill-rule="evenodd"><path d="M0 0h36v36H0z"/><path d="M27.347 18.25c-.71-2.578-4.624-4.55-9.345-4.55-4.722 0-8.636 1.972-9.345 4.55" stroke="#25AAFF"/><path d="M21.35 16.968A3.505 3.505 0 1 1 14.496 18a3.505 3.505 0 0 1 4.536-3.349 1.751 1.751 0 1 0 2.317 2.318z" fill="#25AAFF"/><path d="M27.347 18c-.71-2.833-4.624-5-9.345-5-4.722 0-8.636 2.167-9.345 5 .71 2.833 4.623 5 9.345 5 4.72 0 8.635-2.167 9.345-5z" stroke="#25AAFF"/></g></svg>