<?xml version="1.0" encoding="UTF-8"?>
<svg width="29px" height="19px" viewBox="0 0 29 19" version="1.1" xmlns="http://www.w3.org/2000/svg" xmlns:xlink="http://www.w3.org/1999/xlink">
    <!-- Generator: Sketch 44.1 (41455) - http://www.bohemiancoding.com/sketch -->
    <title>eye</title>
    <desc>Created with Sketch.</desc>
    <defs></defs>
    <g id="Symbols" stroke="none" stroke-width="1" fill="none" fill-rule="evenodd">
        <g id="icons" transform="translate(-110.000000, -20.000000)" fill="#000000">
            <g id="eye" transform="translate(113.000000, 23.000000)">
                <path d="M0,6.5 C3.82296615,10.8333333 7.64957648,13 11.479831,13 C15.3100855,13 19.1501418,10.8333333 23,6.5 C19.1251188,2.16666667 15.2632127,0 11.4142817,0 C7.56535077,0 3.76059019,2.16666667 0,6.5 Z M-1.88813657,4.86142126 C2.3068009,0.0275889553 6.74535665,-2.5 11.4142817,-2.5 C16.0714281,-2.5 20.5554346,0.0156871039 24.8635972,4.83356509 C25.7100866,5.7802059 25.7123889,7.21106927 24.8689502,8.1604292 C20.5858215,12.9814443 16.1221004,15.5 11.479831,15.5 C6.83479644,15.5 2.38177923,12.9786552 -1.87471553,8.15391708 C-2.7032952,7.21472175 -2.70903205,5.80734026 -1.88813657,4.86142126 Z" id="Rectangle-3" fill-rule="nonzero"></path>
                <circle id="Oval" cx="11.5" cy="6.5" r="4.5"></circle>
            </g>
        </g>
    </g>
</svg>