<svg width="36" height="36" viewBox="0 0 36 36" xmlns="http://www.w3.org/2000/svg">
    <title>
        Preview
    </title>
    <g fill="none" fill-rule="evenodd">
        <path fill="none" d="M0 0h36v36H0z"/>
        <path d="M27.347 18.25c-.71-2.578-4.624-4.55-9.345-4.55-4.722 0-8.636 1.972-9.345 4.55" stroke="#25AAFF"/>
        <path d="M21.35 16.968c.1.326.154.673.154 1.032 0 1.935-1.57 3.504-3.504 3.504-1.935 0-3.504-1.57-3.504-3.504 0-1.935 1.57-3.504 3.504-3.504.36 0 .706.054 1.032.155-.61.275-1.032.887-1.032 1.598 0 .968.784 1.752 1.752 1.752.71 0 1.323-.423 1.597-1.032z" fill="#25AAFF"/>
        <path d="M27.347 18c-.71-2.833-4.624-5-9.345-5-4.722 0-8.636 2.167-9.345 5 .71 2.833 4.623 5 9.345 5 4.72 0 8.635-2.167 9.345-5z" stroke="#25AAFF"/>
    </g>
</svg>
