<?xml version="1.0" encoding="UTF-8"?>
<svg width="24px" height="24px" viewBox="0 0 24 24" version="1.1" xmlns="http://www.w3.org/2000/svg" xmlns:xlink="http://www.w3.org/1999/xlink">
    <!-- Generator: Sketch 44.1 (41455) - http://www.bohemiancoding.com/sketch -->
    <title>help</title>
    <desc>Created with Sketch.</desc>
    <defs></defs>
    <g id="Symbols" stroke="none" stroke-width="1" fill="none" fill-rule="evenodd">
        <g id="icons" transform="translate(-294.000000, -152.000000)" fill="#000000">
            <g id="help" transform="translate(294.000000, 152.000000)">
                <path d="M12,21.5 C17.2467051,21.5 21.5,17.2467051 21.5,12 C21.5,6.75329488 17.2467051,2.5 12,2.5 C6.75329488,2.5 2.5,6.75329488 2.5,12 C2.5,17.2467051 6.75329488,21.5 12,21.5 Z M12,24 C5.372583,24 0,18.627417 0,12 C0,5.372583 5.372583,0 12,0 C18.627417,0 24,5.372583 24,12 C24,18.627417 18.627417,24 12,24 Z" id="Oval-4" fill-rule="nonzero"></path>
                <path d="M10.6188313,15.8443767 C10.2622079,16.2010001 10.0809659,16.6402727 10.0809659,17.1482555 C10.0809659,17.6562384 10.2622079,18.095511 10.6188313,18.4521344 C10.9754547,18.8087578 11.4147273,18.9899998 11.9227102,18.9899998 C12.4240521,18.9899998 12.8614394,18.809153 13.2211156,18.453003 C13.5813538,18.0962966 13.7644544,17.6566426 13.7644544,17.1482555 C13.7644544,16.6398684 13.5813538,16.2002145 13.2211156,15.843508 C12.8614394,15.4873581 12.4240521,15.3065113 11.9227102,15.3065113 C11.4147273,15.3065113 10.9754547,15.4877533 10.6188313,15.8443767 Z" id="Path"></path>
                <path d="M10.566215,7.08685006 L10.5172283,6.92246877 C10.5243229,6.80541546 10.5826471,6.70597224 10.6871589,6.60146049 C10.8071881,6.48143123 11.0244954,6.4308617 11.324656,6.4308617 C11.8181258,6.4308617 12.1639468,6.59360888 12.3830727,6.94013353 C12.6220328,7.31802399 12.7400069,7.86629784 12.7400069,8.57307847 C12.7400069,9.46949341 12.5190705,10.3173844 12.0763913,11.1206566 C11.5889387,12.0051732 11.350681,12.7284447 11.3506159,13.3058029 L11.3691487,14.117726 L11.3747637,14.3619804 L12.418046,14.3619804 L12.4300163,14.1245694 C12.463658,13.4573432 12.5366166,12.9855336 12.6441803,12.7861471 C12.7498843,12.5902081 12.9332275,12.4135597 13.1905263,12.2544058 C13.4913136,12.0683518 13.6894571,11.9439101 13.789631,11.878171 C13.8867332,11.8144477 14.0704393,11.6965764 14.3343051,11.5287281 C15.0664378,11.0407691 15.5611677,10.4714002 15.8259098,9.81616628 C15.9724863,9.45639269 16.0462612,9.0476995 16.0462612,8.59148014 C16.0462612,7.61736898 15.682125,6.80801957 14.9621659,6.18095839 C14.2511881,5.56171969 13.2717601,5.25 12.0239193,5.25 C10.7692611,5.25 9.82988912,5.55704504 9.20016088,6.16688713 C8.56727714,6.77978506 8.25,7.45668232 8.25,8.18664346 C8.25,8.72920177 8.40212356,9.14982902 8.70154531,9.44559929 C8.99991938,9.74033465 9.36053195,9.89037519 9.76971506,9.89037519 C10.1564935,9.89037519 10.4948418,9.76335257 10.7736896,9.51385717 C11.0597178,9.25793725 11.2066226,8.91175012 11.2066226,8.49027097 C11.2066226,8.24061533 11.1711608,8.03278865 11.10028,7.86118257 C11.0325047,7.69709488 10.9214574,7.52115045 10.7635679,7.32893682 L10.6353557,7.17324999 C10.607961,7.14081087 10.5939063,7.12317564 10.566215,7.08685006 Z" id="Path"></path>
            </g>
        </g>
    </g>
</svg>