<?xml version="1.0" encoding="UTF-8"?>
<svg width="24px" height="24px" viewBox="0 0 24 24" version="1.1" xmlns="http://www.w3.org/2000/svg" xmlns:xlink="http://www.w3.org/1999/xlink">
    <!-- Generator: Sketch 44.1 (41455) - http://www.bohemiancoding.com/sketch -->
    <title>info</title>
    <desc>Created with Sketch.</desc>
    <defs></defs>
    <g id="Symbols" stroke="none" stroke-width="1" fill="none" fill-rule="evenodd">
        <g id="icons" transform="translate(-197.000000, -200.000000)">
            <g id="info" transform="translate(197.000000, 200.000000)">
                <path d="M12,24 C5.372583,24 0,18.627417 0,12 C0,5.372583 5.372583,0 12,0 C18.627417,0 24,5.372583 24,12 C24,18.627417 18.627417,24 12,24 Z" id="Oval-4" fill="#000000" fill-rule="nonzero"></path>
                <path d="M11.4469965,4.49293286 C11.77562,4.16430931 12.1731425,4 12.639576,4 C13.0989422,4 13.4929312,4.16430931 13.8215548,4.49293286 C14.1501783,4.82155641 14.3144876,5.21907894 14.3144876,5.68551237 C14.3144876,6.1519458 14.1501783,6.54946832 13.8215548,6.87809187 C13.4929312,7.20671542 13.0989422,7.37102473 12.639576,7.37102473 C12.1731425,7.37102473 11.77562,7.20671542 11.4469965,6.87809187 C11.1183729,6.54946832 10.9540636,6.1519458 10.9540636,5.68551237 C10.9540636,5.21907894 11.1183729,4.82155641 11.4469965,4.49293286 Z M10,18.4805654 C10.3816273,18.4169608 10.6431088,18.3215554 10.7844523,18.1943463 C10.9964675,18.0035326 11.1024735,17.6607799 11.1024735,17.1660777 L11.1024735,10.7844523 C11.1024735,10.3462876 11.0282693,10.047704 10.8798587,9.88869258 C10.731448,9.72968118 10.4381647,9.61130781 10,9.5335689 L10,9.00353357 L14.1660777,9.00353357 L14.1660777,17.2508834 C14.1660777,17.724384 14.2367484,18.0282679 14.3780919,18.1625442 C14.5194353,18.2968205 14.7844504,18.4028265 15.1731449,18.4805654 L15.1731449,19 L10,19 L10,18.4805654 Z" id="i" fill="#FFFFFF"></path>
            </g>
        </g>
    </g>
</svg>