<?xml version="1.0" encoding="UTF-8"?>
<svg width="24px" height="24px" viewBox="0 0 24 24" version="1.1" xmlns="http://www.w3.org/2000/svg" xmlns:xlink="http://www.w3.org/1999/xlink">
    <!-- Generator: Sketch 44.1 (41455) - http://www.bohemiancoding.com/sketch -->
    <title>lock</title>
    <desc>Created with Sketch.</desc>
    <defs></defs>
    <g id="Symbols" stroke="none" stroke-width="1" fill="none" fill-rule="evenodd">
        <g id="icons" transform="translate(-391.000000, -17.000000)" fill="#000000">
            <g id="lock" transform="translate(391.000000, 17.000000)">
                <path d="M11,15.7324356 L11,19.5 L13,19.5 L13,15.7324356 C13.5978014,15.3866262 14,14.7402824 14,14 C14,12.8954305 13.1045695,12 12,12 C10.8954305,12 10,12.8954305 10,14 C10,14.7402824 10.4021986,15.3866262 11,15.7324356 Z M3,8 L21,8 C22.6568542,8 24,9.34314575 24,11 L24,21 C24,22.6568542 22.6568542,24 21,24 L3,24 C1.34314575,24 2.02906125e-16,22.6568542 0,21 L0,11 L0,11 C-2.02906125e-16,9.34314575 1.34314575,8 3,8 L3,8 Z" id="Combined-Shape"></path>
                <path d="M19.5,11.6960449 L4.5,11.6960449 L4.5,7.5 C4.5,3.60346378 7.88559685,0.5 12,0.5 C16.1144032,0.5 19.5,3.60346378 19.5,7.5 L19.5,11.6960449 Z M16.5,8.69604492 C16.5,8.04788072 16.5,8.0475965 16.5,7.5 C16.5,5.32140398 14.5130138,3.5 12,3.5 C9.48698616,3.5 7.5,5.32140398 7.5,7.5 C7.5,8.15477061 7.5,8.51906569 7.5,8.82827537 L16.5,8.69604492 Z" id="Oval-5" fill-rule="nonzero"></path>
            </g>
        </g>
    </g>
</svg>