<?xml version="1.0" encoding="UTF-8"?>
<svg width="27px" height="26px" viewBox="0 0 27 26" version="1.1" xmlns="http://www.w3.org/2000/svg" xmlns:xlink="http://www.w3.org/1999/xlink">
    <!-- Generator: Sketch 44.1 (41455) - http://www.bohemiancoding.com/sketch -->
    <title>neutral</title>
    <desc>Created with Sketch.</desc>
    <defs></defs>
    <g id="Symbols" stroke="none" stroke-width="1" fill="none" fill-rule="evenodd">
        <g id="icons" transform="translate(-12.000000, -61.000000)" fill-rule="nonzero" fill="#000000">
            <path d="M37.2494106,85.3298723 C37.3680412,86.5318203 36.1172678,87.3848921 35.0595798,86.8234147 L29.3316692,83.7827336 C28.0982884,84.0958198 26.8111623,84.2566628 25.5,84.2566628 C18.0984831,84.2566628 12,79.1178814 12,72.6283314 C12,66.1387814 18.0984831,61 25.5,61 C32.9015169,61 39,66.1387814 39,72.6283314 C39,75.0177988 38.1633896,77.2918283 36.644509,79.2010923 L37.2494106,85.3298723 Z M33.5959177,78.8597679 C33.5538545,78.4335893 33.6919468,78.0092938 33.9760911,77.6916663 C35.2897319,76.2232278 36,74.4659973 36,72.6283314 C36,67.9489247 31.3533171,64.0334778 25.5,64.0334778 C19.6466829,64.0334778 15,67.9489247 15,72.6283314 C15,77.307738 19.6466829,81.223185 25.5,81.223185 C26.7380021,81.223185 27.9446925,81.0472442 29.0821103,80.70785 C29.4561946,80.596227 29.8585673,80.6363284 30.2039019,80.8196505 L33.9876001,82.8282397 L33.5959177,78.8597679 Z" id="neutral"></path>
        </g>
    </g>
</svg>