<?xml version="1.0" encoding="UTF-8"?>
<svg width="19px" height="19px" viewBox="0 0 19 19" version="1.1" xmlns="http://www.w3.org/2000/svg" xmlns:xlink="http://www.w3.org/1999/xlink">
    <!-- Generator: Sketch 44.1 (41455) - http://www.bohemiancoding.com/sketch -->
    <title>pencil</title>
    <desc>Created with Sketch.</desc>
    <defs></defs>
    <g id="Symbols" stroke="none" stroke-width="1" fill="none" fill-rule="evenodd">
        <g id="icons" transform="translate(-481.000000, -202.000000)" fill="#000000">
            <path d="M482.399545,214.463321 C482.499388,214.496762 482.606255,214.51488 482.717353,214.51488 L482.717353,214.51488 L501.192388,214.51488 C501.744673,214.51488 502.192388,214.067164 502.192388,213.51488 L502.192388,213.51488 L502.192388,210.899495 C502.192388,210.34721 501.744673,209.899495 501.192388,209.899495 L501.192388,209.899495 L482.717353,209.899495 L482.717353,209.899495 C482.656418,209.899495 482.596755,209.904945 482.538827,209.915385 C482.478292,209.916021 482.416327,209.927378 482.355512,209.951073 L478.495551,211.996618 C478.073695,212.16098 478.097817,212.729604 478.532259,212.861936 L482.283275,214.41601 C482.317052,214.43231 482.351885,214.446767 482.387644,214.459251 L482.39222,214.461147 C482.394662,214.46189 482.397103,214.462615 482.399545,214.463321 Z" id="pencil" transform="translate(490.192388, 212.207187) rotate(-45.000000) translate(-490.192388, -212.207187) "></path>
        </g>
    </g>
</svg>