<?xml version="1.0" encoding="UTF-8"?>
<svg width="18px" height="23px" viewBox="0 0 18 23" version="1.1" xmlns="http://www.w3.org/2000/svg" xmlns:xlink="http://www.w3.org/1999/xlink">
    <!-- Generator: Sketch 44.1 (41455) - http://www.bohemiancoding.com/sketch -->
    <title>trash</title>
    <desc>Created with Sketch.</desc>
    <defs></defs>
    <g id="Symbols" stroke="none" stroke-width="1" fill="none" fill-rule="evenodd">
        <g id="icons" transform="translate(-483.000000, -18.000000)" fill="#000000">
            <path d="M499.990695,22.863014 C499.99683,22.9077994 500,22.9535295 500,23 L500,39 C500,40.1045695 499.104569,41 498,41 L486,41 C484.895431,41 484,40.1045695 484,39 L484,23 C484,22.9535295 484.00317,22.9077994 484.009305,22.863014 C483.426961,22.7175837 483,22.24211 483,21.6779944 C483,20.9982593 483.619913,20.4472252 484.384615,20.4472252 L489.538462,20.4472252 L489.538462,20.2112914 C489.538462,19.0704305 490.030687,18.5 491.015137,18.5 C491.1335,18.5 491.593149,18.5 493.027344,18.5 C493.983474,18.5 494.461538,19.0704305 494.461538,20.2112914 L494.461538,20.4472252 L499.615385,20.4472252 C500.380087,20.4472252 501,20.9982593 501,21.6779944 C501,22.24211 500.573039,22.7175837 499.990695,22.863014 Z M491,26 L491,37 C491,37.5522847 491.447715,38 492,38 C492.552285,38 493,37.5522847 493,37 L493,26 C493,25.4477153 492.552285,25 492,25 C491.447715,25 491,25.4477153 491,26 Z M487,26 L487,37 C487,37.5522847 487.447715,38 488,38 C488.552285,38 489,37.5522847 489,37 L489,26 C489,25.4477153 488.552285,25 488,25 C487.447715,25 487,25.4477153 487,26 Z M495,26 L495,37 C495,37.5522847 495.447715,38 496,38 C496.552285,38 497,37.5522847 497,37 L497,26 C497,25.4477153 496.552285,25 496,25 C495.447715,25 495,25.4477153 495,26 Z" id="trash"></path>
        </g>
    </g>
</svg>