<?xml version="1.0" encoding="UTF-8"?>
<svg width="24px" height="24px" viewBox="0 0 24 24" version="1.1" xmlns="http://www.w3.org/2000/svg" xmlns:xlink="http://www.w3.org/1999/xlink">
    <!-- Generator: Sketch 44.1 (41455) - http://www.bohemiancoding.com/sketch -->
    <title>users</title>
    <desc>Created with Sketch.</desc>
    <defs></defs>
    <g id="Symbols" stroke="none" stroke-width="1" fill="none" fill-rule="evenodd">
        <g id="icons" transform="translate(-347.000000, -62.000000)" fill="#000000">
            <g id="users" transform="translate(347.000000, 62.000000)">
                <path d="M12.9547515,14.7692308 C11.2717128,13.7064778 10.1538462,11.8299386 10.1538462,9.69230769 C10.1538462,6.37859919 12.8401377,3.69230769 16.1538462,3.69230769 C19.4675547,3.69230769 22.1538462,6.37859919 22.1538462,9.69230769 C22.1538462,11.8299386 21.0359795,13.7064778 19.3529408,14.7692308 L20,14.7692308 L20,14.7692308 C22.209139,14.7692308 24,16.5600918 24,18.7692308 L24,22.6343149 C24,23.388562 23.388562,24 22.6343149,24 C16.3958333,24 12.111879,24 9.78245192,24 L9.78245192,24 C8.96796468,24 8.30769231,23.3397276 8.30769231,22.5252404 L8.30769231,18.7692308 L8.30769231,18.7692308 C8.30769231,16.5600918 10.0985533,14.7692308 12.3076923,14.7692308 L12.3076923,14.7692308 L12.9547515,14.7692308 Z" id="Combined-Shape"></path>
                <path d="M12.7913137,2.6011631 C11.709379,1.02999607 9.89805066,0 7.84615385,0 C4.53244535,0 1.84615385,2.6862915 1.84615385,6 C1.84615385,8.13763093 2.96402046,10.0141701 4.64705917,11.0769231 L3.69230769,11.0769231 L3.69230769,11.0769231 C1.65310246,11.0769231 -4.14405138e-15,12.7300255 1.84467826e-15,14.7692308 L0,18.8329327 C1.18486091e-15,19.6474199 0.66027237,20.3076923 1.47475962,20.3076923 L6.46153846,20.3076923 L6.46153846,18.4615385 C6.46153846,16.3636466 7.6279528,14.5381853 9.34764029,13.598296 C8.67901195,12.4340222 8.30769231,11.0946704 8.30769231,9.69230769 C8.30769231,6.56232806 10.1404371,3.8604089 12.7913137,2.6011631 Z" id="Combined-Shape"></path>
            </g>
        </g>
    </g>
</svg>