<?xml version="1.0" encoding="UTF-8"?>
<svg width="24px" height="24px" viewBox="0 0 24 24" version="1.1" xmlns="http://www.w3.org/2000/svg" xmlns:xlink="http://www.w3.org/1999/xlink">
    <!-- Generator: Sketch 44.1 (41455) - http://www.bohemiancoding.com/sketch -->
    <title>warning</title>
    <desc>Created with Sketch.</desc>
    <defs></defs>
    <g id="Symbols" stroke="none" stroke-width="1" fill="none" fill-rule="evenodd">
        <g id="icons" transform="translate(-246.000000, -152.000000)" fill-rule="nonzero" fill="#000000">
            <g id="warning" transform="translate(246.000000, 152.000000)">
                <path d="M12,21.5 C17.2467051,21.5 21.5,17.2467051 21.5,12 C21.5,6.75329488 17.2467051,2.5 12,2.5 C6.75329488,2.5 2.5,6.75329488 2.5,12 C2.5,17.2467051 6.75329488,21.5 12,21.5 Z M12,24 C5.372583,24 0,18.627417 0,12 C0,5.372583 5.372583,0 12,0 C18.627417,0 24,5.372583 24,12 C24,18.627417 18.627417,24 12,24 Z" id="Oval-4"></path>
                <path d="M12.0910249,15.3479499 C11.5832416,15.3479499 11.1441388,15.529122 10.7876554,15.8856054 C10.431172,16.2420888 10.25,16.6811916 10.25,17.1889748 C10.25,17.6967581 10.431172,18.1358609 10.7876554,18.4923443 C11.1441388,18.8488277 11.5832416,19.0299997 12.0910249,19.0299997 C12.5988082,19.0299997 13.037911,18.8488277 13.3943944,18.4923443 C13.7508778,18.1358609 13.9320498,17.6967581 13.9320498,17.1889748 C13.9320498,16.6811916 13.7508778,16.2420888 13.3943944,15.8856054 C13.037911,15.529122 12.5988082,15.3479499 12.0910249,15.3479499 Z M12.6245928,14.144893 C12.7526969,12.9919557 12.8460799,12.2215061 12.9037816,11.8418897 C12.9605519,11.4684008 13.0676311,10.9972212 13.2239962,10.4319017 C13.4887599,9.47136455 13.6715205,8.78169163 13.7733531,8.35893227 C13.8805392,7.91394739 13.9320498,7.58681806 13.9320498,7.35772849 C13.9320498,6.61699383 13.7421479,6.08274422 13.3659749,5.74597983 C12.9981116,5.41665459 12.5693522,5.25 12.0910249,5.25 C11.5990355,5.25 11.1660619,5.41925484 10.8041329,5.75307285 C10.4353466,6.09321557 10.25,6.64392862 10.25,7.42210522 C10.25,7.67635618 10.3036325,8.01417564 10.4139016,8.44876775 C10.4823643,8.71639858 10.632585,9.24387619 10.8670088,10.0396857 C11.047931,10.6487947 11.1690674,11.1232395 11.2287407,11.4574101 C11.2891296,11.7955877 11.4088931,12.6993318 11.5853535,14.1475237 L11.6121311,14.3672851 L12.5998825,14.3672851 L12.6245928,14.144893 Z" id="!"></path>
            </g>
        </g>
    </g>
</svg>