<svg width="40" height="40" viewBox="0 0 40 40" xmlns="http://www.w3.org/2000/svg"><title>Warning</title><g fill="none" fill-rule="evenodd"><path d="M0 0h40v40H0z"/><path d="M22 14.02c0 2.087-.062 4-.186 5.735-.124 1.736-.28 3.484-.465 5.245H18.68c-.207-1.76-.372-3.516-.496-5.264a81.213 81.213 0 0 1-.186-5.717V7h4v7.02zm1 17c0 .88-.287 1.596-.863 2.15-.575.553-1.287.83-2.137.83a2.99 2.99 0 0 1-2.12-.83c-.586-.554-.88-1.27-.88-2.15 0-.882.294-1.605.88-2.17A2.949 2.949 0 0 1 20 28c.85 0 1.562.283 2.137.85.576.565.863 1.288.863 2.17z" fill="#CCB60F"/></g></svg>