<?xml version="1.0" standalone="no"?> 
<!DOCTYPE svg PUBLIC "-//W3C//DTD SVG 1.1//EN" "http://www.w3.org/Graphics/SVG/1.1/DTD/svg11.dtd" >
<svg xmlns="http://www.w3.org/2000/svg">
<defs>
  <font id="DressCodeIcons" horiz-adv-x="512">
    <font-face font-family="DressCodeIcons"
      units-per-em="512" ascent="512"
      descent="0" />
    <missing-glyph horiz-adv-x="0" />
    <glyph glyph-name="add"
      unicode="&#xE001;"
      horiz-adv-x="512" d="M288 288L288 512L224 512L224 288L0 288L0 224L224 224L224 0L288 0L288 224L512 224L512 288L288 288z" />
    <glyph glyph-name="arrow-left"
      unicode="&#xE002;"
      horiz-adv-x="512" d="M336 59.259259L336 0L176 256L336 512L336 452.7407407L214.309859 256L336 59.259259L336 59.259259z" />
    <glyph glyph-name="arrow-right"
      unicode="&#xE003;"
      horiz-adv-x="512" d="M176 452.7407407L176 512L336 256L176 0L176 59.259259L297.690141 256L176 452.7407407z" />
    <glyph glyph-name="check"
      unicode="&#xE004;"
      horiz-adv-x="512" d="M168.692297 19.456L512 429.6875136L445.490973 485.376L168.290639 151.882163L65.3563471 269.891664L0 212.854074L168.692297 19.456z" />
    <glyph glyph-name="close"
      unicode="&#xE005;"
      horiz-adv-x="512" d="M256.0080520000009 173.82936C227.7347720000009 146.682221 200.5450450000009 121.796536 174.4384900000009 99.17195C135.8522090000009 65.732125 96.3622500000009 32.675139 55.9674271000009 0L0.6433037590008 55.324123C32.8895717000008 96.147818 65.8626055000009 135.98269 99.5633946000009 174.829934C122.2563900000009 200.988383 147.0115950000009 228.042263 173.8293600000009 255.991948C146.6822210000009 284.265228 121.7965360000009 311.4549550000001 99.1719503000009 337.56151C65.7321254000009 376.147791 32.6751392000008 415.63775 -9e-13 456.0325729L55.3241233000008 511.356696241C96.1478175000009 479.1104283 135.9826900000009 446.1373945000001 174.8299340000009 412.4366054C200.9883830000009 389.74361 228.0422630000009 364.988405 255.9919480000009 338.17064C284.2652280000009 365.317779 311.4549550000009 390.203464 337.5615100000009 412.8280497C376.1477910000009 446.2678746000001 415.6377500000009 479.3248608 456.0325730000009 512L511.3566960000009 456.6758767C479.1104280000009 415.8521825000001 446.1373940000008 376.01731 412.4366050000009 337.170066C389.7436100000009 311.011617 364.9884050000009 283.957737 338.1706400000009 256.008052C365.3177790000009 227.734772 390.2034640000009 200.545045 412.8280500000009 174.43849C446.2678750000009 135.852209 479.3248610000009 96.36225 512.0000000000008 55.967427L456.6758770000009 0.643304C415.852182000001 32.889572 376.0173100000009 65.862606 337.1700660000009 99.563395C311.0116170000009 122.25639 283.9577370000009 147.011595 256.0080520000009 173.82936L256.0080520000009 173.82936zM256.1422210000009 255.324113L255.6085560000009 255.857779L256.1422210000009 256.391444L256.6758870000009 255.857779L256.1422210000009 255.324113L256.1422210000009 255.324113z" />
    <glyph glyph-name="cog"
      unicode="&#xE006;"
      horiz-adv-x="512" d="M256.0000001 160L256.0000001 160L256.0000001 160L256.0000001 160C309.0193361000001 160 352.0000001 202.980664 352.0000001 256C352.0000001 309.019336 309.0193361000001 352 256.0000001 352C202.9806641 352 160.0000001 309.019336 160.0000001 256C160.0000001 202.980664 202.9806641 160 256.0000001 160L256.0000001 160zM128.0000001 256C128.0000001 326.692448 185.3075521 384 256.0000001 384C326.6924481000001 384 384.0000001 326.692448 384.0000001 256C384.0000001 185.307552 326.6924481000001 128 256.0000001 128C185.3075521 128 128.0000001 185.307552 128.0000001 256zM354.7287691 415.1029046L373.4627041 460.3306242L378.8523221000001 427.1182986C375.4199481 431.0758589 368.5203881000001 437.8512751 359.6433451000001 444.5743864C352.6429071 449.8762336 345.6766971 454.0690992 339.1608501 456.7680515C336.3997201 457.9117488 333.3668321 458.9322461 330.1005941 459.8209174C317.1469281000001 463.345324 302.7664721000001 464.3673115 291.2118081000001 463.9182016C290.0206291 463.8631664 317.4248961 483.5422443 317.4248961 483.5422443L298.6928791000001 438.3191553000001L289.9089771 417.1129402000001L267.0060891 418.6355030000001C263.3568511000001 418.878101 259.6869871 419 256.0000001 419C252.3130131 419 248.6431491 418.878101 244.9939111 418.6355030000001L222.0910231 417.1129402000001L213.3071211 438.3191553000001L194.5751041 483.5422443L221.8708011 463.8686195C209.2335281 464.3673115 194.8530721 463.345324 181.8994061 459.8209174C178.6331681 458.9322461 175.6002801 457.9117488 172.8391501 456.7680515C166.3233031 454.0690992 159.3570931 449.8762336 152.3566551 444.5743864C143.4796121 437.8512751 136.5800521 431.0758589 133.1476781 427.1182986L138.5372961 460.3306242L157.2712311 415.1029046L166.0604961 393.883743L148.7698061 378.7663340000001C143.2506361 373.940874 138.0591261 368.749364 133.2336661 363.230194L118.1162571 345.939504L96.8970955 354.728769L51.6693759 373.4627040000001L84.8817015 378.852322C80.9241412 375.419948 74.148725 368.5203880000001 67.4256137 359.643345C62.1237665 352.6429070000001 57.9309009 345.676697 55.2319486 339.16085C54.0882513 336.39972 53.067754 333.366832 52.1790827 330.100594C48.6546761 317.146928 47.6326886 302.766472 48.0817985 291.211808C48.1368337 290.020629 28.4577558 317.424896 28.4577558 317.424896L73.6808448 298.692879L94.8870599 289.908977L93.3644971 267.006089C93.1218991 263.356851 93.0000001 259.686987 93.0000001 256C93.0000001 252.313013 93.1218991 248.643149 93.3644971 244.9939110000001L94.8870599 222.091023L73.6808448 213.307121L28.4577558 194.575104L48.1313806 221.870801C47.6326886 209.233528 48.6546761 194.853072 52.1790827 181.899406C53.067754 178.633168 54.0882513 175.60028 55.2319486 172.83915C57.9309009 166.323303 62.1237665 159.357093 67.4256137 152.356655C74.148725 143.479612 80.9241412 136.580052 84.8817015 133.147678L51.6693759 138.537296L96.8970955 157.271231L118.1162571 166.060496L133.2336661 148.769806C138.0591261 143.250636 143.2506361 138.059126 148.7698061 133.233666L166.0604961 118.116257L157.2712311 96.897095L138.5372961 51.669376L133.1476781 84.881701C136.5800521 80.924141 143.4796121 74.148725 152.3566551 67.425614C159.3570931 62.123766 166.3233031 57.930901 172.8391501 55.231949C175.6002801 54.088251 178.6331681 53.067754 181.8994061 52.179083C194.8530721 48.654676 209.2335281 47.632688 220.7881921 48.081798C221.9793711 48.136834 194.5751041 28.457756 194.5751041 28.457756L213.3071211 73.680845L222.0910231 94.88706L244.9939111 93.364497C248.6431491 93.121899 252.3130131 93 256.0000001 93C259.6869871 93 263.3568511000001 93.121899 267.0060891 93.364497L289.9089771 94.88706L298.6928791000001 73.680845L317.4248961 28.457756L290.1291991000001 48.131381C302.7664721000001 47.632688 317.1469281000001 48.654676 330.1005941 52.179083C333.3668321 53.067754 336.3997201 54.088251 339.1608501 55.231949C345.6766971 57.930901 352.6429071 62.123766 359.6433451000001 67.425614C368.5203881000001 74.148725 375.4199481 80.924141 378.8523221000001 84.881701L373.4627041 51.669376L354.7287691 96.897095L345.9395041 118.116257L363.2301941 133.233666C368.7493641000001 138.059126 373.9408741000001 143.250636 378.7663341 148.769806L393.8837431 166.060496L415.1029051000001 157.271231L460.3306241 138.537296L427.1182991 133.147678C431.0758591 136.580052 437.8512751 143.479612 444.5743861000001 152.356655C449.8762341000001 159.357093 454.0690991 166.323303 456.7680511 172.83915C457.9117491 175.60028 458.9322461 178.633168 459.8209171 181.899406C463.3453241 194.853072 464.3673121 209.233528 463.9182021 220.788192C463.8631661 221.979371 483.5422441 194.575104 483.5422441 194.575104L438.3191551000001 213.307121L417.1129401 222.091023L418.6355031000001 244.9939110000001C418.8781011000001 248.643149 419.0000001 252.313013 419.0000001 256C419.0000001 259.686987 418.8781011000001 263.356851 418.6355031000001 267.006089L417.1129401 289.908977L438.3191551000001 298.692879L483.5422441 317.424896L463.8686191 290.1291990000001C464.3673121 302.766472 463.3453241 317.146928 459.8209171 330.100594C458.9322461 333.366832 457.9117491 336.39972 456.7680511 339.16085C454.0690991 345.676697 449.8762341000001 352.6429070000001 444.5743861000001 359.643345C437.8512751 368.5203880000001 431.0758591 375.419948 427.1182991 378.852322L460.3306241 373.4627040000001L415.1029051000001 354.728769L393.8837431 345.939504L378.7663341 363.230194C373.9408741000001 368.749364 368.7493641000001 373.940874 363.2301941 378.7663340000001L345.9395041 393.883743L354.7287691 415.1029046zM384.2929141 402.857035L384.2929141 402.857035L384.2929141 402.857035C390.8878871 397.090989 397.0909891 390.887887 402.8570351 384.292914L448.0847541 403.0268490000001C448.0847541 403.0268490000001 474.4063571 380.198244 486.3321971 351.40672C498.2580361 322.6151950000001 495.7881141 287.860751 495.7881141 287.860751L450.5650251 269.128734C450.8534751 264.789779 451.0000001 260.4120010000001 451.0000001 256C451.0000001 251.587999 450.8534751 247.210221 450.5650251 242.871266L495.7881141 224.139249C495.7881141 224.139249 498.2580361 189.384805 486.3321971 160.59328C474.4063571 131.801756 448.0847541 108.973151 448.0847541 108.973151L402.8570351 127.707086C397.0909891 121.112113 390.8878871 114.909011 384.2929141 109.142965L403.0268491000001 63.915246C403.0268491000001 63.915246 380.1982441 37.593643 351.4067201000001 25.667803C322.6151951000001 13.741964 287.8607511 16.211886 287.8607511 16.211886L269.1287341000001 61.434975C264.7897791000001 61.146525 260.4120011 61 256.0000001 61C251.5879991 61 247.2102211 61.146525 242.8712661 61.434975L224.1392491 16.211886C224.1392491 16.211886 189.3848051 13.741964 160.5932801 25.667803C131.8017561 37.593643 108.9731511 63.915246 108.9731511 63.915246L127.7070861 109.142965C121.1121131 114.909011 114.9090111 121.112113 109.1429651 127.707086L63.9152458 108.973151C63.9152458 108.973151 37.5936435 131.801756 25.6678036 160.59328C13.7419636 189.384805 16.2118859 224.139249 16.2118859 224.139249L61.434975 242.871266C61.1465253 247.210221 61.0000001 251.587999 61.0000001 256C61.0000001 260.4120010000001 61.1465253 264.789779 61.434975 269.128734L16.2118859 287.860751C16.2118859 287.860751 13.7419636 322.6151950000001 25.6678036 351.40672C37.5936435 380.198244 63.9152458 403.0268490000001 63.9152458 403.0268490000001L109.1429651 384.292914C114.9090111 390.887887 121.1121131 397.090989 127.7070861 402.857035L108.9731511 448.0847543C108.9731511 448.0847543 131.8017561 474.4063566 160.5932801 486.3321965C189.3848051 498.2580365 224.1392491 495.7881142 224.1392491 495.7881142L242.8712661 450.5650251C247.2102211 450.8534748 251.5879991 451 256.0000001 451C260.4120011 451 264.7897791000001 450.8534748 269.1287341000001 450.5650251L287.8607511 495.7881142C287.8607511 495.7881142 322.6151951000001 498.2580365 351.4067201000001 486.3321965C380.1982441 474.4063566 403.0268491000001 448.0847543 403.0268491000001 448.0847543L384.2929141 402.857035z" />
    <glyph glyph-name="drag"
      unicode="&#xE007;"
      horiz-adv-x="512" d="M272.00000005 96L272.00000005 224L400.00000005 224L400.00000005 182.864067C400.00000005 161.846552 410.5148270500001 153.932567 423.25643205 164.988897L486.40529505 219.785346C499.24946805 230.930677 499.14689905 249.089833 486.40529505 260.146163L423.25643205 314.942611C410.41225905 326.087943 400.00000005 318.233874 400.00000005 297.0674410000001L400.00000005 256L272.00000005 256L272.00000005 384L313.06744105 384C334.23387405 384 342.08794305 394.412259 330.94261105 407.256432L276.14616305 470.4052951C265.08983305 483.1468995 246.93067705 483.2494677 235.78534605 470.4052951L180.98889705 407.256432C169.93256705 394.5148270000001 177.84655205 384 198.86406705 384L240.00000005 384L240.00000005 256L112.00000005 256L112.00000005 297.0674410000001C112.00000005 318.233874 101.58774085 326.087943 88.74356835 314.942611L25.59470495 260.146163C12.85310059 249.089833 12.75053237 230.930677 25.59470495 219.785346L88.74356835 164.988897C101.48517265 153.932567 112.00000005 161.846552 112.00000005 182.864067L112.00000005 224L240.00000005 224L240.00000005 96L198.86406705 96C177.84655205 96 169.93256705 85.485173 180.98889705 72.743568L235.78534605 9.594705C246.93067705 -3.249468 265.08983305 -3.146899 276.14616305 9.594705L330.94261105 72.743568C342.08794305 85.587741 334.23387405 96 313.06744105 96L272.00000005 96z" />
    <glyph glyph-name="eye"
      unicode="&#xE008;"
      horiz-adv-x="512" d="M262.167329 351.956951C368.644728 350.469289 457.04335 310.609876 480 261.290384C456.666234 204.604585 365.287018 160 256 160C146.712982 160 55.3337658 204.604587 32 261.290384C54.9485374 310.592447 143.292805 350.441117 249.719798 351.9553600000001C199.616089 348.741662 159.972497 307.078623 159.972497 256.154735C159.972497 203.135399 202.945773 160.154735 255.955995 160.154735C308.966217 160.154735 351.9394930000001 203.135399 351.9394930000001 256.154735C351.9394930000001 265.993633 350.459625 275.48683 347.710371 284.42381L347.710371 284.42381C340.185941 267.755206 323.421327 256.154735 303.947744 256.154735C277.442633 256.154735 255.955995 277.6450670000001 255.955995 304.154735C255.955995 323.631666 267.554471 340.399162 284.22021 347.924886C277.180151 350.091342 269.794877 351.4696830000001 262.167329 351.956951zM511.035882 252.6492150000001C511.378066 253.761975 511.699519 254.878951 512 256L512 256C492.560848 328.524558 385.347179 384 256 384C126.652821 384 19.4391524 328.524558 0 256C0.300480966 254.878951 0.621934313 253.761975 0.964117607 252.6492150000001C0.621934313 251.636603 0.300480966 250.620155 8e-13 249.6L1.9571436 249.6C25.8112572 180.237075 130.484893 128 256 128C381.515107 128 486.188743 180.237075 510.042856 249.6L512 249.6C511.699519 250.620155 511.378066 251.636603 511.035882 252.6492150000001L511.035882 252.6492150000001z" />
    <glyph glyph-name="help"
      unicode="&#xE009;"
      horiz-adv-x="512" d="M256 21L256 21C385.786916 21 491 126.213084 491 256C491 385.786916 385.786916 491 256 491C126.213084 491 21 385.786916 21 256C21 126.213084 126.213084 21 256 21L256 21zM256 0L256 0C114.615104 0 0 114.615104 0 256C0 397.3848960000001 114.615104 512 256 512C397.3848960000001 512 512 397.3848960000001 512 256C512 114.615104 397.3848960000001 0 256 0L256 0zM249.235294 337.763158C241.285908 337.763158 233.677324 336.793869 226.409314 334.8552630000001C219.141304 332.916657 211.532719 329.780723 203.583333 325.447368L192 357.263158C200.403637 362.052656 209.999538 365.872793 220.78799 368.723684C231.576443 371.574576 242.648636 373 254.004902 373C267.632421 373 278.874956 371.11844 287.732843 367.3552630000001C296.590731 363.592086 303.63151 358.8596780000001 308.855392 353.157895C314.079274 347.456112 317.713225 341.1842450000001 319.757353 334.342105C321.801481 327.499966 322.823529 320.885997 322.823529 314.5C322.823529 306.7455750000001 321.404017 299.789504 318.564951 293.631579C315.725884 287.473653 312.148714 281.771956 307.833333 276.526316C303.517952 271.2806760000001 298.8619530000001 266.320199 293.8651960000001 261.644737C288.868439 256.9692750000001 284.21244 252.179849 279.897059 247.276316C275.581678 242.372782 272.004508 237.184238 269.165441 231.710526C266.326375 226.236815 264.906863 220.078982 264.906863 213.236842L264.906863 209.302632C264.906863 207.820168 265.020424 206.394744 265.247549 205.026316L229.816176 205.026316C229.361926 207.307029 229.021243 209.758759 228.794118 212.381579C228.566992 215.004399 228.453431 217.456129 228.453431 219.736842C228.453431 227.263196 229.702602 233.991198 232.20098 239.921053C234.699359 245.850907 237.879066 251.324536 241.740196 256.342105C245.601326 261.3596740000001 249.746301 266.0350660000001 254.175245 270.368421C258.604189 274.701776 262.749164 279.0350660000001 266.610294 283.368421C270.471425 287.701776 273.651131 292.1491 276.14951 296.710526C278.647888 301.271953 279.897059 306.289446 279.897059 311.763158C279.897059 319.289511 277.341937 325.504361 272.2316180000001 330.407895C267.121298 335.311428 259.455933 337.763158 249.235294 337.763158L249.235294 337.763158zM275.808824 153.026316C275.808824 145.04382 273.196922 138.543885 267.9730390000001 133.526316C262.7491570000001 128.508747 256.276182 126 248.553922 126C241.058786 126 234.642592 128.508747 229.305147 133.526316C223.967702 138.543885 221.29902 145.04382 221.29902 153.026316C221.29902 161.008812 223.967702 167.565764 229.305147 172.697368C234.642592 177.828973 241.058786 180.394737 248.553922 180.394737C256.276182 180.394737 262.7491570000001 177.828973 267.9730390000001 172.697368C273.196922 167.565764 275.808824 161.008812 275.808824 153.026316L275.808824 153.026316z" />
    <glyph glyph-name="history"
      unicode="&#xE00A;"
      horiz-adv-x="512" d="M256 0C397.3848960000001 0 512 114.615104 512 256C512 397.3848960000001 397.3848960000001 512 256 512C114.615104 512 0 397.3848960000001 0 256C0 114.615104 114.615104 0 256 0zM256 64C362.038672 64 448 149.961328 448 256C448 362.038672 362.038672 448 256 448C149.961328 448 64 362.038672 64 256C64 149.961328 149.961328 64 256 64zM288 288L288 352L288 384L224 384L224 352L224 256L224 224L272 224L320 224L352 224L352 288L320 288L288 288z" />
    <glyph glyph-name="info"
      unicode="&#xE00B;"
      horiz-adv-x="512" d="M256 0C397.3848960000001 0 512 114.615104 512 256C512 397.3848960000001 397.3848960000001 512 256 512C114.615104 512 0 397.3848960000001 0 256C0 114.615104 114.615104 0 256 0zM231.563636 288.581818L288.581818 288.581818L288.581818 95.418182L231.563636 95.418182L207.127273 95.418182L207.127273 127.612121L223.418182 127.612121L223.418182 256.387879L207.127273 256.387879L207.127273 288.581818L231.563636 288.581818L231.563636 288.581818zM223.418182 416.5818182L288.581818 416.5818182L288.581818 351.418182L223.418182 351.418182L223.418182 416.5818182z" />
    <glyph glyph-name="lock"
      unicode="&#xE00C;"
      horiz-adv-x="512" d="M96 288L74.6645251 288C51.1066857 288 32 268.8961070000001 32 245.330261L32 42.669739C32 19.10555 51.1015585 0 74.6645251 0L437.335475 0C460.893314 0 480 19.103893 480 42.669739L480 245.330261C480 268.89445 460.898441 288 437.335475 288L416 288L416 342C416 435.7034671 344.36556 512 256 512C167.63444 512 96 435.7034671 96 342L96 288L96 288zM160 288L352 288C352 288 352 338.940432 352 350.6088470000001C352 404.396496 309.019336 448 256 448C202.980664 448 160 404.396496 160 350.6088470000001C160 338.589589 160 288 160 288z" />
    <glyph glyph-name="menu"
      unicode="&#xE00D;"
      horiz-adv-x="512" d="M96.15625 395L415.84375 395L426.5 395L426.5 416L415.84375 416L96.15625 416L85.5 416L85.5 395L96.15625 395L96.15625 395zM96.5 245L415.5 245L426.5 245L426.5 266L415.5 266L96.5 266L85.5 266L85.5 245L96.5 245L96.5 245zM96.15625 96L415.84375 96L426.5 96L426.5 117L415.84375 117L96.15625 117L85.5 117L85.5 96L96.15625 96L96.15625 96z" />
    <glyph glyph-name="more"
      unicode="&#xE00E;"
      horiz-adv-x="512" d="M64 191.449C99.346224 191.449 128 220.102776 128 255.449C128 290.795224 99.346224 319.449 64 319.449C28.653776 319.449 0 290.795224 0 255.449C0 220.102776 28.653776 191.449 64 191.449L64 191.449L64 191.449zM512 255.449C512 290.795224 483.346224 319.449 448 319.449C412.653776 319.449 384 290.795224 384 255.449C384 220.102776 412.653776 191.449 448 191.449C483.346224 191.449 512 220.102776 512 255.449L512 255.449zM256 191.449C291.346224 191.449 320 220.102776 320 255.449C320 290.795224 291.346224 319.449 256 319.449C220.653776 319.449 192 290.795224 192 255.449C192 220.102776 220.653776 191.449 256 191.449L256 191.449L256 191.449z" />
    <glyph glyph-name="msg-error"
      unicode="&#xE00F;"
      horiz-adv-x="512" d="M256.0080520000009 173.82936C227.7347720000009 146.682221 200.5450450000009 121.796536 174.4384900000009 99.17195C135.8522090000009 65.732125 96.3622500000009 32.675139 55.9674271000009 0L0.6433037590008 55.324123C32.8895717000008 96.147818 65.8626055000009 135.98269 99.5633946000009 174.829934C122.2563900000009 200.988383 147.0115950000009 228.042263 173.8293600000009 255.991948C146.6822210000009 284.265228 121.7965360000009 311.4549550000001 99.1719503000009 337.56151C65.7321254000009 376.147791 32.6751392000008 415.63775 -9e-13 456.0325729L55.3241233000008 511.356696241C96.1478175000009 479.1104283 135.9826900000009 446.1373945000001 174.8299340000009 412.4366054C200.9883830000009 389.74361 228.0422630000009 364.988405 255.9919480000009 338.17064C284.2652280000009 365.317779 311.4549550000009 390.203464 337.5615100000009 412.8280497C376.1477910000009 446.2678746000001 415.6377500000009 479.3248608 456.0325730000009 512L511.3566960000009 456.6758767C479.1104280000009 415.8521825000001 446.1373940000008 376.01731 412.4366050000009 337.170066C389.7436100000009 311.011617 364.9884050000009 283.957737 338.1706400000009 256.008052C365.3177790000009 227.734772 390.2034640000009 200.545045 412.8280500000009 174.43849C446.2678750000009 135.852209 479.3248610000009 96.36225 512.0000000000008 55.967427L456.6758770000009 0.643304C415.852182000001 32.889572 376.0173100000009 65.862606 337.1700660000009 99.563395C311.0116170000009 122.25639 283.9577370000009 147.011595 256.0080520000009 173.82936L256.0080520000009 173.82936zM256.1422210000009 255.324113L255.6085560000009 255.857779L256.1422210000009 256.391444L256.6758870000009 255.857779L256.1422210000009 255.324113L256.1422210000009 255.324113z" />
    <glyph glyph-name="msg-info"
      unicode="&#xE010;"
      horiz-adv-x="512" d="M304 352L304 64L320 64L320 0L192 0L192 64L208 64L208.125475 288L192 288L192 352L304 352zM200 432.3522013C200 448.7883421 205.366613 462.1718561 216.1 472.5031447C226.833387 482.8344332 240.133254 488 256 488C271.400077 488 284.583279 482.8344332 295.55 472.5031447C306.516722 462.1718561 312 448.7883421 312 432.3522013C312 415.9160604 306.516722 402.415147 295.55 391.849057C284.583279 381.282966 271.400077 376 256 376C240.133254 376 226.833387 381.282966 216.1 391.849057C205.366613 402.415147 200 415.9160604 200 432.3522013L200 432.3522013z" />
    <glyph glyph-name="msg-neutral"
      unicode="&#xE011;"
      horiz-adv-x="512" d="M319.262268 100.430421C299.028918 96.884489 277.833659 95 256 95C114.615104 95 0 174.021742 0 271.5C0 368.978258 114.615104 448 256 448C397.3848960000001 448 512 368.978258 512 271.5C512 218.930324 478.66527 171.728552 425.774288 139.3943C440.066659 112.614454 458.691456 87.204128 481.086419 63.538162L481.086419 63.538162C477.21534 63.409234 473.319097 63.344 469.4 63.344C412.046296 63.344 359.587217 77.314919 319.262268 100.430421z" />
    <glyph glyph-name="msg-success"
      unicode="&#xE012;"
      horiz-adv-x="512" d="M176 32L512 416L448 480L176 160L64 288L0 224L176 32z" />
    <glyph glyph-name="msg-warning"
      unicode="&#xE013;"
      horiz-adv-x="512" d="M304 362.2641510000001C304 317.718855 302.511643 276.9310030000001 299.534884 239.899371C296.558125 202.867739 292.837232 165.568322 288.372093 128L224.372093 128C219.410828 165.568322 215.441875 203.00191 212.465116 240.301887C209.488357 277.601864 208 318.255545 208 362.2641510000001L208 512L304 512L304 362.2641510000001zM312 55.647799C312 39.211658 306.6333870000001 25.828144 295.9 15.496855C285.166613 5.165567 271.8667460000001 0 256 0C240.599923 0 227.416722 5.165567 216.45 15.496855C205.483278 25.828144 200 39.211658 200 55.647799C200 72.08394 205.483278 85.584853 216.45 96.150943C227.416722 106.717034 240.599923 112 256 112C271.8667460000001 112 285.166613 106.717034 295.9 96.150943C306.6333870000001 85.584853 312 72.08394 312 55.647799L312 55.647799z" />
    <glyph glyph-name="pencil"
      unicode="&#xE014;"
      horiz-adv-x="512" d="M77.9957471 215.412959L0 0L215.154653 78.254053L77.9957471 215.412959L77.9957471 215.412959zM56.5065731 57.378999L93.5376992 154.229638L154.264281 93.550945L56.5065731 57.378999zM101.042397 192.366309L78.211419 215.197287L375.014132 511.9999999999999L512 375.014132L215.197287 78.211419L192.366309 101.042397L420.676088 329.352176L329.352176 420.6760882L101.042397 192.366309zM375.014132 466.3380441L352.183154 443.5070662L443.507066 352.183154L466.338044 375.014132L375.014132 466.3380441z" />
    <glyph glyph-name="play"
      unicode="&#xE015;"
      horiz-adv-x="512" d="M256 0C397.3848960000001 0 512 114.615104 512 256C512 397.3848960000001 397.3848960000001 512 256 512C114.615104 512 0 397.3848960000001 0 256C0 114.615104 114.615104 0 256 0zM192 96L192 418.1333333L384 257.066667L192 96z" />
    <glyph glyph-name="redo"
      unicode="&#xE016;"
      horiz-adv-x="512" d="M256 353.632829C110.481687 329.011725 1e-13 208.17648 1e-13 62.820147C1e-13 55.815141 0.256589853 48.867084 0.761325435 41.984C50.3792323 132.392795 144.849041 196.886854 256 208.603453L256 99.744861L511.9999999999999 284.368431L256 468.992L256 353.632829L256 353.632829z" />
    <glyph glyph-name="search"
      unicode="&#xE017;"
      horiz-adv-x="512" d="M368.0488305 167.179941L509.8202975 25.408474C515.6328374999999 19.595934 515.6328374999999 10.171945 509.8202975 4.359405C504.0077575 -1.453135 494.5837685 -1.453135 488.7712285 4.359405L346.9997615 146.130872C310.4429905 114.432345 262.7390965 95.249695 210.5548545 95.249695C95.472436 95.249695 2.1797025 188.542429 2.1797025 303.624848C2.1797025 418.7072665 95.472436 512 210.5548545 512C325.6372735 512 418.9300075000001 418.7072665 418.9300075000001 303.624848C418.9300075000001 251.440606 399.7473575 203.736712 368.0488305 167.179941L368.0488305 167.179941zM210.5548545 125.017574C309.1969285 125.017574 389.1621285 204.982774 389.1621285 303.624848C389.1621285 402.266921 309.1969285 482.2321211 210.5548545 482.2321211C111.9127815 482.2321211 31.9475814 402.266921 31.9475814 303.624848C31.9475814 204.982774 111.9127815 125.017574 210.5548545 125.017574z" />
    <glyph glyph-name="trash"
      unicode="&#xE018;"
      horiz-adv-x="512" d="M144 448L16 448L16 416L49.688 416L79.4181333 0L103.9266667 0L410.0888 0L435.605867 0L465.336 416L496 416L496 448L368.017067 448L368.017067 480L400.1536 480L400.1536 512L112 512L112 480L144 480L144 448zM176.017067 448L336 448L336 480L176.017067 480L176.017067 448zM433.318933 416L81.7050667 416L109.1482667 32L405.8757330000001 32L433.318933 416zM176 352L208.017067 352L208.017067 96L176 96L176 352zM240 352L272.017067 352L272.017067 95.679993L240 95.679993L240 352zM304 352L336.017067 352L336.017067 95.679993L304 95.679993L304 352z" />
    <glyph glyph-name="undo"
      unicode="&#xE019;"
      horiz-adv-x="512" d="M256.0000000000001 353.632829C401.5183130000001 329.011725 512 208.17648 512 62.820147C512 55.815141 511.74341 48.867084 511.2386750000001 41.984C461.6207680000001 132.392795 367.1509590000001 196.886854 256.0000000000001 208.603453L256.0000000000001 99.744861L-1e-13 284.368431L256.0000000000001 468.992L256.0000000000001 353.632829L256.0000000000001 353.632829z" />
    <glyph glyph-name="user"
      unicode="&#xE01A;"
      horiz-adv-x="512" d="M256.0000001480001 234.833333C332.4914381480001 234.833333 394.5000001480001 296.841895 394.5000001480001 373.3333330000001C394.5000001480001 449.8247712 332.4914381480001 511.833333333 256.0000001480001 511.833333333C179.508562148 511.833333333 117.500000148 449.8247712 117.500000148 373.3333330000001C117.500000148 296.841895 179.508562148 234.833333 256.0000001480001 234.833333L256.0000001480001 234.833333zM256.0000001480001 255.833333C191.106542148 255.833333 138.500000148 308.4398750000001 138.500000148 373.3333330000001C138.500000148 438.2267914 191.106542148 490.8333333 256.0000001480001 490.8333333C320.8934581480001 490.8333333 373.5000001480001 438.2267914 373.5000001480001 373.3333330000001C373.5000001480001 308.4398750000001 320.8934581480001 255.833333 256.0000001480001 255.833333L256.0000001480001 255.833333zM382.7010951480001 221.34957L437.840019148 9.983695L448.0000001480001 23.134125L64.000000148 23.134125L74.159981548 9.983695L129.298905548 221.34957L112.226950748 216.095911C151.762365148 181.522954 202.392286148 162.134125 256.0000001480001 162.134125C309.607717148 162.134125 360.237637148 181.522955 399.773061148 216.095921L382.7010951480001 221.34957L382.7010951480001 221.34957zM403.021057148 226.65043L398.7339821480001 243.084219L385.949103148 231.904089C350.2055681480001 200.647057 304.474166148 183.134125 256.0000001480001 183.134125C207.525836148 183.134125 161.794433148 200.647056 126.050897648 231.904089L113.266018348 243.084219L108.978942848 226.65043L53.840018788 15.284554L50.409471852 2.134125L64.000000148 2.134125L448.0000001480001 2.134125L461.590528148 2.134125L458.159981148 15.284554L403.021057148 226.65043L403.021057148 226.65043z" />
  </font>
</defs>
</svg>
