<?xml version="1.0" encoding="UTF-8"?>
<svg width="29px" height="30px" viewBox="0 0 29 30" version="1.1" xmlns="http://www.w3.org/2000/svg" xmlns:xlink="http://www.w3.org/1999/xlink">
    <!-- Generator: Sketch 44.1 (41455) - http://www.bohemiancoding.com/sketch -->
    <title>zalando-logo</title>
    <desc>Created with Sketch.</desc>
    <defs></defs>
    <g id="Page-1" stroke="none" stroke-width="1" fill="none" fill-rule="evenodd">
        <g id="zalando-logo" fill-rule="nonzero" fill="#FF6900">
            <path d="M6.01,29.949 C4.915,29.949 4.307,29.691 3.983,29.502 C3.532,29.24 2.703,28.574 1.96,26.601 C0.768,23.436 0.064,19.571 0.032,15.035 L0.032,15.019 C0.064,10.48 0.768,6.617 1.96,3.454 C2.703,1.48 3.532,0.813 3.983,0.552 C4.307,0.362 4.914,0.104 6.008,0.104 C6.425,0.104 6.914,0.143 7.485,0.235 C10.795,0.776 14.461,2.091 18.371,4.334 L18.385,4.341 C22.264,6.638 25.226,9.185 27.345,11.808 C28.667,13.446 28.824,14.502 28.824,15.027 C28.824,15.55 28.667,16.61 27.345,18.245 C25.226,20.869 22.264,23.416 18.385,25.713 L18.371,25.721 C14.461,27.963 10.795,29.278 7.485,29.819 C6.914,29.913 6.426,29.949 6.01,29.949" id="Shape"></path>
        </g>
    </g>
</svg>