<svg width="36" height="36" viewBox="0 0 36 36" xmlns="http://www.w3.org/2000/svg">
    <title>
        Cog
    </title>
    <g fill="none" fill-rule="evenodd">
        <path fill="none" d="M0 0h36v36H0z"/>
        <path d="M13.807 24.846c.717.44 1.51.77 2.352.97l.693-2.082h2.294l.694 2.08c.835-.195 1.62-.52 2.33-.954l-1.066-2.134 1.622-1.622 2.134 1.067c.433-.71.76-1.495.955-2.33l-2.08-.693v-2.294l2.08-.694c-.196-.835-.522-1.62-.955-2.33l-2.134 1.066-1.622-1.622 1.067-2.134c-.71-.433-1.495-.76-2.33-.955l-.693 2.08h-2.294l-.694-2.08c-.852.2-1.652.535-2.375.983l1.053 2.106-1.622 1.622-2.09-1.045c-.426.707-.747 1.484-.94 2.31l2.08.693v2.294l-2.08.694c.197.844.528 1.636.968 2.353l2.062-1.03 1.622 1.62-1.03 2.063z" stroke="#25AAFF"/>
        <circle stroke="#25AAFF" cx="18" cy="18" r="3"/>
    </g>
</svg>
