<svg xmlns="http://www.w3.org/2000/svg" width="33" height="26" viewBox="0 0 33 26">
    <g fill="#000" fill-rule="evenodd">
        <path fill-rule="nonzero" d="M16.309 7.559c-1.842 1.994-4.076 5.195-4.81 9.734a11.492 11.492 0 0 1-3.72-.27l-3.97 2.084a1.25 1.25 0 0 1-1.825-1.231l.419-4.192C1.337 12.333.75 10.73.75 9.045.75 4.408 5.14.75 10.454.75c3.566 0 6.795 1.656 8.486 4.26.333-.068-.57.498-1.862 1.759.039.073.076.147.112.222.054.114-.32.29-.881.568zm0 0c.266-.289.524-.552.769-.79-1.118-2.091-3.691-3.519-6.624-3.519C6.43 3.25 3.25 5.9 3.25 9.045c0 1.231.482 2.41 1.376 3.399.237.261.352.611.317.962l-.24 2.408 2.347-1.233a1.25 1.25 0 0 1 .935-.092 8.725 8.725 0 0 0 2.47.352c.552 0 1.095-.05 1.623-.149.28-.052-.158-3.025.96-4.657.859-1.25 2.329-2.009 3.27-2.476z"/>
        <path d="M30.863 23.875a1.25 1.25 0 0 1-1.825 1.23l-4.513-2.37c-.974.242-1.99.367-3.025.367-5.892 0-10.75-4.053-10.75-9.176S15.608 4.75 21.5 4.75s10.75 4.053 10.75 9.176c0 1.879-.661 3.667-1.862 5.17l.475 4.78zM27.9 19.344a2.5 2.5 0 0 1 .534-1.808c.865-1.082 1.316-2.326 1.316-3.61 0-3.61-3.617-6.676-8.25-6.676s-8.25 3.066-8.25 6.676c0 3.61 3.617 6.676 8.25 6.676.828 0 1.64-.1 2.42-.293a2.5 2.5 0 0 1 1.767.212l2.458 1.292-.245-2.47z"/>
    </g>
</svg>
