<svg xmlns="http://www.w3.org/2000/svg" width="23" height="24" viewBox="0 0 23 24">
    <path fill="#000" fill-rule="nonzero" d="M18.584 13.7v2.332c0 .123.045.242.124.33a.392.392 0 0 0 .595 0l3.45-3.825a.503.503 0 0 0 0-.66l-3.45-3.825a.401.401 0 0 0-.297-.136c-.233 0-.422.209-.422.467V10.7H12.9V5.06h2.363c.257 0 .466-.188.466-.42a.401.401 0 0 0-.136-.298L11.768.892a.503.503 0 0 0-.66 0l-3.825 3.45a.392.392 0 0 0 0 .595.494.494 0 0 0 .33.124H9.9V10.7H4.291V8.383a.494.494 0 0 0-.123-.33.392.392 0 0 0-.595 0l-3.45 3.824a.503.503 0 0 0 0 .66l3.45 3.825a.401.401 0 0 0 .297.137c.233 0 .421-.21.421-.467V13.7H9.9v5.654H7.613c-.257 0-.466.188-.466.42 0 .112.049.22.136.298l3.825 3.45a.503.503 0 0 0 .66 0l3.825-3.45a.392.392 0 0 0 0-.595.494.494 0 0 0-.33-.123H12.9V13.7h5.684z"/>
</svg>
