<svg xmlns="http://www.w3.org/2000/svg" width="24" height="24" viewBox="0 0 24 24">
    <path fill="#000" fill-rule="nonzero" d="M12 24C5.373 24 0 18.627 0 12S5.373 0 12 0s12 5.373 12 12-5.373 12-12 12zm-1.358-7.89a1.767 1.767 0 0 0-.534 1.298c0 .508.178.94.534 1.297.357.357.79.535 1.298.535.501 0 .932-.178 1.292-.535.36-.356.54-.789.54-1.297 0-.509-.18-.941-.54-1.298a1.772 1.772 0 0 0-1.292-.534c-.509 0-.941.178-1.298.534zM9.006 4.974C8.336 5.624 8 6.33 8 7.092c0 .544.145.959.434 1.245.29.286.632.429 1.028.429.374 0 .695-.12.963-.36.269-.24.403-.562.403-.964a1.62 1.62 0 0 0-.1-.614 2.218 2.218 0 0 0-.345-.54l-.148-.18a1.237 1.237 0 0 1-.16-.223.5.5 0 0 1-.042-.222c0-.212.094-.412.281-.599.187-.187.5-.28.937-.28.671 0 1.158.24 1.462.72.303.48.455 1.158.455 2.033a6.27 6.27 0 0 1-.8 3.072c-.532.967-.799 1.761-.799 2.382l.021.922h.646c.043-.84.136-1.395.28-1.663.146-.268.39-.508.732-.72.342-.212.57-.355.683-.429.113-.074.325-.21.635-.408.784-.522 1.317-1.133 1.6-1.832.155-.381.232-.815.232-1.303 0-1.037-.383-1.89-1.149-2.557S13.42 4 12.056 4c-1.362 0-2.38.325-3.05.974z"/>
</svg>
