<svg xmlns="http://www.w3.org/2000/svg" width="24" height="24" viewBox="0 0 24 24">
    <g fill="#000" fill-rule="nonzero">
        <path d="M12 21.5a9.5 9.5 0 1 0 0-19 9.5 9.5 0 0 0 0 19zm0 2.5C5.373 24 0 18.627 0 12S5.373 0 12 0s12 5.373 12 12-5.373 12-12 12z"/>
        <path d="M11.796 4.75c-.472 0-.881.17-1.214.502a1.663 1.663 0 0 0-.502 1.214c0 .473.17.882.502 1.215.333.332.742.502 1.214.502.466 0 .873-.17 1.206-.502.332-.333.502-.742.502-1.215 0-.472-.17-.881-.502-1.214a1.652 1.652 0 0 0-1.206-.502zm-2.34 5.31c.308.055.532.132.627.234.09.097.126.313.126.608v5.552c0 .343-.057.586-.194.71-.09.08-.289.143-.556.187l-.209.035v.914h5v-.907l-.2-.04c-.275-.055-.478-.126-.569-.213-.071-.08-.107-.283-.107-.612V9.103H9.25v.92l.206.037z"/>
    </g>
</svg>
