<?xml version="1.0" encoding="UTF-8"?>
<svg width="24px" height="24px" viewBox="0 0 24 24" version="1.1" xmlns="http://www.w3.org/2000/svg" xmlns:xlink="http://www.w3.org/1999/xlink">
    <!-- Generator: Sketch 44.1 (41455) - http://www.bohemiancoding.com/sketch -->
    <title>info-circle</title>
    <desc>Created with Sketch.</desc>
    <defs></defs>
    <g id="Symbols" stroke="none" stroke-width="1" fill="none" fill-rule="evenodd">
        <g id="icons" transform="translate(-197.000000, -152.000000)" fill-rule="nonzero" fill="#000000">
            <g id="info-circle" transform="translate(197.000000, 152.000000)">
                <path d="M12,21.5 C17.2467051,21.5 21.5,17.2467051 21.5,12 C21.5,6.75329488 17.2467051,2.5 12,2.5 C6.75329488,2.5 2.5,6.75329488 2.5,12 C2.5,17.2467051 6.75329488,21.5 12,21.5 Z M12,24 C5.372583,24 0,18.627417 0,12 C0,5.372583 5.372583,0 12,0 C18.627417,0 24,5.372583 24,12 C24,18.627417 18.627417,24 12,24 Z" id="Oval-4"></path>
                <path d="M11.7964311,4.75 C11.3243147,4.75 10.9148865,4.91929867 10.5821102,5.2520749 C10.249334,5.58485114 10.0800353,5.99427932 10.0800353,6.46639578 C10.0800353,6.93851225 10.249334,7.34794043 10.5821102,7.68071666 C10.9148865,8.0134929 11.3243147,8.18279156 11.7964311,8.18279156 C12.2623393,8.18279156 12.6687068,8.01353924 13.0015294,7.68071666 C13.3343056,7.34794043 13.5036043,6.93851225 13.5036043,6.46639578 C13.5036043,5.99427932 13.3343056,5.58485114 13.0015294,5.2520749 C12.6687068,4.91925232 12.2623393,4.75 11.7964311,4.75 Z M9.45632719,11.0603608 C9.76416467,11.1149772 9.98761821,11.1918547 10.0827132,11.2937422 C10.1737839,11.3913179 10.209152,11.6073431 10.209152,11.9024736 L10.209152,17.4544878 C10.209152,17.7972263 10.151777,18.0403677 10.0152323,18.1632579 C9.92478632,18.2446593 9.72645032,18.3069019 9.45890025,18.3514936 L9.25,18.3863103 L9.25,19.3000002 L14.2506361,19.3000002 L14.2506361,18.3931411 L14.0496651,18.3529469 C13.7748717,18.2979882 13.5724603,18.22693 13.4811274,18.1401637 C13.4100342,18.0608509 13.3744877,17.8568859 13.3744877,17.5282687 L13.3744877,10.1030743 L9.25,10.1030743 L9.25,11.0237544 L9.45632719,11.0603608 Z" id="i"></path>
            </g>
        </g>
    </g>
</svg>