<svg xmlns="http://www.w3.org/2000/svg" width="123" height="65" viewBox="0 0 123 65">
    <g fill="none" fill-rule="evenodd">
        <path fill="#FF680D" d="M69.119 12.034l.766-.778a755.13 755.13 0 0 0 4.495-4.608 1.81 1.81 0 0 1 2.58-.021c8.483 8.482 8.483 22.234 0 30.716a21.722 21.722 0 0 1-23.144 4.924 1.81 1.81 0 0 1 1.296-3.38 18.102 18.102 0 0 0 19.29-4.103c6.629-6.63 7.04-17.123 1.234-24.232a967.847 967.847 0 0 1-3.17 3.242l-.838.85c.837 2.08.27 4.726-1.615 6.61l-3.291 3.29-1.278-1.28-1.922 1.92a.905.905 0 1 1-1.28-1.28l1.923-1.922-2.557-2.562-1.925 1.925a.905.905 0 1 1-1.28-1.28l1.927-1.927-1.279-1.28 3.283-3.284c1.937-1.937 4.68-2.482 6.785-1.54zm-16.3 21.188a793.096 793.096 0 0 0-4.06 4.167 1.81 1.81 0 0 1-2.582.021c-8.482-8.482-8.482-22.234 0-30.716A21.722 21.722 0 0 1 69.322 1.77a1.81 1.81 0 0 1-1.295 3.38 18.102 18.102 0 0 0-19.29 4.103c-6.63 6.63-7.041 17.123-1.235 24.232a967.847 967.847 0 0 1 2.8-2.866c-.844-2.082-.278-4.735 1.61-6.622l3.283-3.283 7.687 7.67-3.29 3.292c-1.934 1.933-4.669 2.48-6.772 1.546z"/>
        <path fill="#2D2D2D" d="M.395 57.095h1.683l2.552 4.96 2.53-4.96h1.683v7.7H7.49v-5.522l-2.398 4.73h-.946l-2.409-4.73v5.522H.395v-7.7zm15.056 2.574c.473.535.71 1.287.71 2.255 0 .19-.004.333-.012.429h-4.345c.096.418.292.746.589.984s.662.358 1.094.358c.3 0 .589-.057.864-.17.275-.115.515-.278.72-.49l.77.803c-.293.322-.65.572-1.072.748-.422.176-.89.264-1.403.264-.601 0-1.13-.125-1.59-.374-.458-.25-.811-.6-1.06-1.05-.25-.452-.375-.97-.375-1.557s.127-1.108.38-1.562a2.687 2.687 0 0 1 1.061-1.062c.455-.253.972-.38 1.551-.38.939 0 1.645.268 2.118.804zm-.6 1.727c-.014-.433-.157-.778-.429-1.034-.271-.257-.63-.385-1.078-.385-.418 0-.768.126-1.05.38-.283.252-.457.599-.523 1.039h3.08zm4.98-2.228a2.378 2.378 0 0 1 1.193-.313v1.386c-.608-.037-1.094.104-1.457.423-.363.32-.545.75-.545 1.293v2.838h-1.43V58.91h1.43v1.133c.198-.382.468-.673.809-.875zm4.902.952c-.476 0-.863.161-1.16.484-.297.322-.446.74-.446 1.254 0 .528.149.953.446 1.276.297.322.684.484 1.16.484.704 0 1.232-.231 1.584-.693l.891.737a2.603 2.603 0 0 1-1.045.88c-.432.205-.935.308-1.507.308-.58 0-1.094-.125-1.545-.374-.451-.25-.801-.6-1.05-1.05-.25-.452-.375-.97-.375-1.557 0-.594.127-1.119.38-1.573a2.66 2.66 0 0 1 1.056-1.056c.45-.25.97-.374 1.556-.374.536 0 1.014.093 1.436.28.421.187.764.453 1.028.798l-.869.825c-.396-.433-.91-.65-1.54-.65zm9.1-.655c.388.407.582.959.582 1.656v3.674h-1.44v-3.256c0-.411-.118-.736-.353-.974-.234-.238-.553-.357-.957-.357-.476.007-.854.168-1.133.484-.278.315-.418.718-.418 1.21v2.893h-1.43v-8.162h1.43v3.399c.404-.77 1.111-1.163 2.123-1.177.675 0 1.207.203 1.595.61zm5.864 5.33v-.715c-.205.256-.47.45-.792.583a2.915 2.915 0 0 1-1.11.198 2.37 2.37 0 0 1-1.084-.237 1.735 1.735 0 0 1-.72-.654 1.77 1.77 0 0 1-.254-.935c0-.55.195-.981.583-1.293.389-.312.939-.471 1.65-.478h1.716v-.154c0-.345-.113-.613-.34-.803-.228-.191-.558-.286-.99-.286-.558 0-1.141.183-1.75.55l-.517-.99a6.508 6.508 0 0 1 1.26-.556c.377-.114.82-.17 1.325-.17.763 0 1.355.183 1.777.55.421.366.636.88.643 1.54l.011 3.85h-1.408zm-.506-1.326c.294-.194.459-.434.495-.72v-.528h-1.485c-.381 0-.662.056-.841.17-.18.114-.27.299-.27.556 0 .249.094.447.28.594.188.146.443.22.765.22.41 0 .763-.098 1.056-.292zm8.857-4.004c.389.407.583.959.583 1.656v3.674h-1.44v-3.256c0-.411-.118-.736-.353-.974-.234-.238-.553-.357-.957-.357-.476.007-.852.168-1.127.484-.275.315-.413.718-.413 1.21v2.893h-1.43V58.91h1.43v1.1c.404-.756 1.108-1.14 2.112-1.155.675 0 1.207.203 1.595.61zm5.832 4.967c-.47.286-.96.429-1.474.429-.506 0-.92-.149-1.243-.446-.322-.297-.484-.735-.484-1.314v-2.904h-.825l-.01-1.045h.835v-1.617h1.42v1.617h1.682v1.045h-1.683v2.65c0 .272.052.464.154.578.103.114.257.17.462.17.22 0 .499-.08.836-.241l.33 1.078zm8.887-5.852a2.602 2.602 0 0 0-1.128-.264c-.476 0-.913.113-1.309.34-.396.228-.707.541-.935.941-.227.4-.34.838-.34 1.315 0 .476.113.914.34 1.314a2.55 2.55 0 0 0 2.244 1.293c.367 0 .735-.081 1.106-.242.37-.162.698-.385.984-.671l.87.968c-.404.41-.873.735-1.409.973a3.968 3.968 0 0 1-1.628.358 4.03 4.03 0 0 1-2.035-.528 3.87 3.87 0 0 1-1.452-1.436 3.92 3.92 0 0 1-.528-2.007 3.872 3.872 0 0 1 2.008-3.421 4.17 4.17 0 0 1 2.062-.517c.55 0 1.09.11 1.617.33.528.22.98.524 1.353.913l-.858 1.078a2.9 2.9 0 0 0-.962-.737zm7.603 1.089c.473.535.71 1.287.71 2.255 0 .19-.004.333-.012.429h-4.345c.096.418.292.746.589.984s.662.358 1.094.358c.3 0 .589-.057.864-.17.275-.115.515-.278.72-.49l.77.803c-.293.322-.65.572-1.072.748-.422.176-.89.264-1.403.264-.601 0-1.13-.125-1.59-.374-.458-.25-.811-.6-1.06-1.05-.25-.452-.375-.97-.375-1.557s.127-1.108.38-1.562a2.687 2.687 0 0 1 1.061-1.062c.455-.253.972-.38 1.551-.38.939 0 1.645.268 2.118.804zm-.6 1.727c-.014-.433-.157-.778-.429-1.034-.271-.257-.63-.385-1.078-.385-.418 0-.768.126-1.05.38-.283.252-.457.599-.523 1.039h3.08zm7.878-1.93c.389.406.583.958.583 1.655v3.674h-1.44v-3.256c0-.411-.118-.736-.353-.974-.234-.238-.553-.357-.957-.357-.476.007-.852.168-1.127.484-.275.315-.413.718-.413 1.21v2.893h-1.43V58.91h1.43v1.1c.404-.756 1.108-1.14 2.112-1.155.675 0 1.207.203 1.595.61zm5.832 4.966c-.47.286-.96.429-1.474.429-.506 0-.92-.149-1.243-.446-.322-.297-.484-.735-.484-1.314v-2.904h-.825l-.01-1.045h.835v-1.617h1.42v1.617h1.682v1.045h-1.683v2.65c0 .272.052.464.154.578.103.114.257.17.462.17.22 0 .499-.08.836-.241l.33 1.078zm5.838-4.763c.473.535.71 1.287.71 2.255 0 .19-.004.333-.012.429h-4.345c.096.418.292.746.589.984s.662.358 1.094.358c.3 0 .589-.057.864-.17.275-.115.515-.278.72-.49l.77.803c-.293.322-.65.572-1.072.748-.422.176-.89.264-1.403.264-.601 0-1.13-.125-1.59-.374-.458-.25-.811-.6-1.06-1.05-.25-.452-.375-.97-.375-1.557s.127-1.108.38-1.562a2.687 2.687 0 0 1 1.061-1.062c.455-.253.972-.38 1.551-.38.939 0 1.645.268 2.118.804zm-.6 1.727c-.014-.433-.157-.778-.429-1.034-.271-.257-.63-.385-1.078-.385-.418 0-.768.126-1.05.38-.283.252-.457.599-.523 1.039h3.08zm4.98-2.228a2.378 2.378 0 0 1 1.193-.313v1.386c-.608-.037-1.094.104-1.457.423-.363.32-.545.75-.545 1.293v2.838h-1.43V58.91h1.43v1.133c.198-.382.468-.673.809-.875zm11.042 5.627l-.682-1.628h-3.762l-.682 1.628h-1.529l3.377-7.7h1.53l3.332 7.7h-1.584zm-3.916-2.893h2.706l-1.342-3.234-1.364 3.234zm12.042-4.114c.531.462.797 1.114.797 1.958 0 .88-.266 1.563-.797 2.051-.532.488-1.282.732-2.25.732h-1.683v2.266h-1.474v-7.7h3.157c.968 0 1.718.23 2.25.693zm-1.045 3.08c.297-.242.445-.602.445-1.078 0-.47-.148-.822-.445-1.056-.297-.235-.724-.352-1.282-.352h-1.606v2.849h1.606c.558 0 .985-.121 1.282-.363zm3.263-3.773h1.474v7.7h-1.474v-7.7zm6.113 3.014a2.831 2.831 0 0 0-.842-.143c-.242 0-.434.042-.577.126a.422.422 0 0 0-.215.39c0 .184.09.325.27.424.18.1.464.204.852.314.41.124.748.247 1.012.368s.493.3.688.54c.194.237.291.551.291.94 0 .572-.22 1.012-.66 1.32-.44.308-.993.462-1.66.462-.455 0-.9-.072-1.332-.215a3.134 3.134 0 0 1-1.1-.61l.495-1.001a2.9 2.9 0 0 0 .946.533c.367.128.715.193 1.045.193.264 0 .475-.046.633-.138a.447.447 0 0 0 .236-.412.498.498 0 0 0-.275-.462c-.183-.103-.48-.217-.89-.341a7.594 7.594 0 0 1-.969-.347 1.751 1.751 0 0 1-.649-.517c-.183-.23-.275-.533-.275-.907 0-.58.211-1.022.633-1.326.421-.304.951-.456 1.59-.456.388 0 .771.055 1.149.165.377.11.713.264 1.006.462l-.517 1.034a4.227 4.227 0 0 0-.885-.396z"/>
    </g>
</svg>
