<svg width="40" height="40" viewBox="0 0 40 40" xmlns="http://www.w3.org/2000/svg">
    <title>
        Info
    </title>
    <g fill="none" fill-rule="evenodd">
        <path d="M0 0h40v40H0z"/>
        <path d="M19.326 16H22v15h1v3h-6v-3h1v-4.02c0-2.087.062-4 .186-5.735.053-.746.112-1.494.177-2.245H17v-3h2.326zM17 9.98c0-.88.287-1.596.863-2.15C18.438 7.277 19.15 7 20 7c.825 0 1.53.277 2.12.83.586.554.88 1.27.88 2.15 0 .882-.294 1.605-.88 2.17-.59.567-1.295.85-2.12.85-.85 0-1.562-.283-2.138-.85-.575-.565-.862-1.288-.862-2.17z" fill="#25AAFF"/>
    </g>
</svg>
