<svg xmlns="http://www.w3.org/2000/svg" width="24" height="18" viewBox="0 0 24 18">
    <g fill="#000" fill-rule="evenodd">
        <path d="M9.422 10.741a4.364 4.364 0 1 1 4.653 0h.023a3.357 3.357 0 0 1 3.357 3.357v2.363a.993.993 0 0 1-.994.994H7.115c-.593 0-1.073-.48-1.073-1.073v-2.284a3.357 3.357 0 0 1 3.357-3.357h.023z"/>
        <path d="M9.303 1.892A4.364 4.364 0 1 0 3.38 8.056h-.695A2.685 2.685 0 0 0 0 10.74v2.956c0 .592.48 1.072 1.073 1.072h3.626v-1.342c0-1.526.849-2.854 2.1-3.537a5.707 5.707 0 0 1 2.504-7.998zM14.182 1.892a4.364 4.364 0 1 1 5.923 6.164h.694a2.685 2.685 0 0 1 2.686 2.685v2.956c0 .592-.48 1.072-1.073 1.072h-3.627v-1.342a4.027 4.027 0 0 0-2.099-3.537 5.707 5.707 0 0 0-2.504-7.998z"/>
    </g>
</svg>
