<svg xmlns="http://www.w3.org/2000/svg" width="20" height="20" viewBox="0 0 20 20">
    <path fill="#000" fill-rule="nonzero" d="M6.796 18.333H1.23c-.334 0-.622-.082-.866-.247C.122 17.92 0 17.726 0 17.5V9.167c0-.226.122-.421.365-.586.244-.165.532-.248.866-.248h5.438a.849.849 0 0 1 .094-.013c.2-.017.516-.273.95-.768.433-.495.854-1.02 1.262-1.575.567-.756.988-1.276 1.263-1.563.15-.156.279-.365.387-.625.108-.26.181-.47.219-.631.037-.161.094-.424.168-.788.059-.339.11-.604.157-.794.046-.191.127-.417.243-.678.117-.26.259-.477.426-.65A.754.754 0 0 1 12.4 0c.383 0 .727.046 1.031.137.304.09.554.204.75.338.196.135.363.31.5.528.138.217.238.412.3.586.063.173.113.39.15.65.038.261.059.456.063.587.004.13.006.299.006.507 0 .33-.042.662-.125.996a5.22 5.22 0 0 1-.237.762 30.12 30.12 0 0 1-.338.742c-.025.052-.067.13-.125.235a2.234 2.234 0 0 0-.238.599H17.6c.65 0 1.21.247 1.681.742.471.495.71 1.08.719 1.758 0 .764-.23 1.41-.688 1.94.125.382.188.712.188.99a2.78 2.78 0 0 1-.537 1.783c.141.486.141.994 0 1.524-.125.494-.35.902-.676 1.224.076.972-.129 1.757-.612 2.356-.533.66-1.354.999-2.462 1.016H13.6c-.55 0-1.15-.067-1.8-.202-.65-.134-1.156-.26-1.519-.377a66.349 66.349 0 0 1-1.506-.515c-1.025-.373-1.683-.564-1.975-.573h-.004z"/>
</svg>
