<svg xmlns="http://www.w3.org/2000/svg" width="24" height="24" viewBox="0 0 24 24">
    <g fill="#000" fill-rule="evenodd">
        <path d="M12.955 14.77a6 6 0 1 1 6.398 0H20a4 4 0 0 1 4 4v3.864C24 23.39 23.389 24 22.634 24H9.782c-.814 0-1.474-.66-1.474-1.475V18.77a4 4 0 0 1 4-4h.647z"/>
        <path d="M12.791 2.601a6 6 0 1 0-8.144 8.476h-.955A3.692 3.692 0 0 0 0 14.769v4.064c0 .814.66 1.475 1.475 1.475h4.987v-1.846a5.537 5.537 0 0 1 2.886-4.864 7.847 7.847 0 0 1 3.444-10.997z"/>
    </g>
</svg>
