<svg xmlns="http://www.w3.org/2000/svg" width="24" height="24" viewBox="0 0 24 24">
    <g fill="#000" fill-rule="nonzero">
        <path d="M12 21.5a9.5 9.5 0 1 0 0-19 9.5 9.5 0 0 0 0 19zm0 2.5C5.373 24 0 18.627 0 12S5.373 0 12 0s12 5.373 12 12-5.373 12-12 12z"/>
        <path d="M12.091 15.348c-.508 0-.947.181-1.303.538a1.784 1.784 0 0 0-.538 1.303c0 .508.181.947.538 1.303.356.357.795.538 1.303.538.508 0 .947-.181 1.303-.538.357-.356.538-.795.538-1.303 0-.508-.181-.947-.538-1.303a1.784 1.784 0 0 0-1.303-.538zm.534-1.203c.128-1.153.221-1.923.279-2.303.057-.374.164-.845.32-1.41.265-.96.448-1.65.55-2.073.107-.445.158-.772.158-1.001 0-.741-.19-1.275-.566-1.612a1.863 1.863 0 0 0-1.275-.496c-.492 0-.925.17-1.287.503-.369.34-.554.89-.554 1.67 0 .253.054.591.164 1.026.068.267.219.795.453 1.59.18.61.302 1.084.362 1.418.06.339.18 1.242.356 2.69l.027.22h.988l.025-.222z"/>
    </g>
</svg>
