<svg xmlns="http://www.w3.org/2000/svg" width="24" height="24" viewBox="0 0 24 24">
    <path fill="#000" fill-rule="nonzero" d="M12 24C5.373 24 0 18.627 0 12S5.373 0 12 0s12 5.373 12 12-5.373 12-12 12zm-1.466-7.847A1.765 1.765 0 0 0 10 17.45c0 .508.178.94.534 1.297.357.356.789.534 1.297.534.508 0 .94-.178 1.296-.534.356-.357.534-.789.534-1.297 0-.508-.178-.94-.534-1.296a1.765 1.765 0 0 0-1.296-.534c-.508 0-.94.178-1.297.534zm.011-11.65c-.363.335-.545.904-.545 1.709 0 .268.06.638.18 1.11.077.304.25.91.518 1.82.212.713.353 1.267.424 1.662.07.395.208 1.432.412 3.111h.625c.148-1.333.255-2.22.322-2.661.067-.441.193-.993.376-1.656.303-1.1.513-1.893.63-2.376.116-.483.174-.845.174-1.084 0-.762-.185-1.31-.555-1.64A1.856 1.856 0 0 0 11.83 4c-.494 0-.923.168-1.286.503z"/>
</svg>
